<svg width="16" height="16" viewBox="0 0 16 16" fill="none" xmlns="http://www.w3.org/2000/svg">
<g id="Caret Down">
<path id="Vector" d="M12.6463 5.64634C12.6927 5.59989 12.7479 5.56304 12.8086 5.5379C12.8693 5.51276 12.9343 5.49982 13 5.49982C13.0657 5.49982 13.1308 5.51276 13.1915 5.5379C13.2521 5.56304 13.3073 5.59989 13.3538 5.64634C13.4002 5.6928 13.4371 5.74795 13.4622 5.80865C13.4873 5.86934 13.5003 5.9344 13.5003 6.00009C13.5003 6.06579 13.4873 6.13085 13.4622 6.19154C13.4371 6.25224 13.4002 6.30739 13.3538 6.35385L8.35375 11.3538C8.30732 11.4003 8.25217 11.4372 8.19147 11.4624C8.13077 11.4875 8.06571 11.5005 8 11.5005C7.9343 11.5005 7.86923 11.4875 7.80853 11.4624C7.74783 11.4372 7.69269 11.4003 7.64625 11.3538L2.64625 6.35385C2.55243 6.26003 2.49973 6.13278 2.49973 6.00009C2.49973 5.86741 2.55243 5.74016 2.64625 5.64634C2.74007 5.55252 2.86732 5.49982 3 5.49982C3.13269 5.49982 3.25993 5.55252 3.35375 5.64634L8 10.2932L12.6463 5.64634Z" fill="#667085"/>
</g>
</svg>
