<svg width="28" height="28" viewBox="0 0 28 28" fill="none" xmlns="http://www.w3.org/2000/svg">
<g id="CaretCircleRight">
<path id="Vector" d="M14 2.625C11.7502 2.625 9.551 3.29213 7.68039 4.54203C5.80978 5.79193 4.35182 7.56847 3.49088 9.64698C2.62993 11.7255 2.40467 14.0126 2.84357 16.2192C3.28248 18.4257 4.36584 20.4525 5.95667 22.0433C7.54749 23.6342 9.57432 24.7175 11.7809 25.1564C13.9874 25.5953 16.2745 25.3701 18.353 24.5091C20.4315 23.6482 22.2081 22.1902 23.458 20.3196C24.7079 18.449 25.375 16.2498 25.375 14C25.3718 10.9841 24.1724 8.09271 22.0398 5.96018C19.9073 3.82764 17.0159 2.62818 14 2.625ZM17.2441 14.6191L12.8691 18.9941C12.7878 19.0754 12.6913 19.1398 12.585 19.1838C12.4788 19.2278 12.365 19.2505 12.25 19.2505C12.135 19.2505 12.0212 19.2278 11.915 19.1838C11.8088 19.1398 11.7122 19.0754 11.6309 18.9941C11.5496 18.9128 11.4852 18.8163 11.4412 18.71C11.3972 18.6038 11.3745 18.49 11.3745 18.375C11.3745 18.26 11.3972 18.1462 11.4412 18.04C11.4852 17.9337 11.5496 17.8372 11.6309 17.7559L15.388 14L11.6309 10.2441C11.4668 10.0799 11.3745 9.85719 11.3745 9.625C11.3745 9.39281 11.4668 9.17012 11.6309 9.00594C11.7951 8.84175 12.0178 8.74951 12.25 8.74951C12.4822 8.74951 12.7049 8.84175 12.8691 9.00594L17.2441 13.3809C17.3254 13.4622 17.39 13.5587 17.434 13.6649C17.478 13.7712 17.5007 13.885 17.5007 14C17.5007 14.115 17.478 14.2288 17.434 14.3351C17.39 14.4413 17.3254 14.5378 17.2441 14.6191Z" fill="#667085"/>
</g>
</svg>
