<svg width="12" height="12" viewBox="0 0 12 12" fill="none" xmlns="http://www.w3.org/2000/svg">
<g id="light-cross" clip-path="url(#clip0_223_4084)">
<circle id="Ellipse 6" cx="6" cy="6" r="6" fill="#025ACE"/>
<path id="Vector" d="M8.20959 7.5024C8.40505 7.69796 8.40505 8.01446 8.20959 8.20947C8.11208 8.30697 7.98409 8.35595 7.85601 8.35595C7.72802 8.35595 7.60003 8.30697 7.50253 8.20947L6.00005 6.7069L4.49758 8.20947C4.40008 8.30697 4.27209 8.35595 4.1441 8.35595C4.01601 8.35595 3.88802 8.30697 3.79052 8.20947C3.59505 8.01446 3.59505 7.69796 3.79052 7.5024L5.29308 5.99993L3.79052 4.49746C3.59505 4.3019 3.59505 3.9854 3.79052 3.7904C3.98608 3.59493 4.30202 3.59493 4.49758 3.7904L6.00005 5.29296L7.50253 3.7904C7.69808 3.59493 8.01403 3.59493 8.20959 3.7904C8.40505 3.9854 8.40505 4.3019 8.20959 4.49746L6.70702 5.99993L8.20959 7.5024Z" fill="white"/>
</g>
<defs>
<clipPath id="clip0_223_4084">
<rect width="12" height="12" fill="white"/>
</clipPath>
</defs>
</svg>
