<svg width="240" height="240" viewBox="0 0 240 240" fill="none" xmlns="http://www.w3.org/2000/svg">
<path d="M204.767 35.0652C190.107 20.4341 171.683 9.57315 151.071 4.0626L151.068 4.06055L120.002 120.001L204.875 35.1279L204.767 35.0652Z" fill="#FAC712"/>
<path d="M151.069 4.06079C141.16 1.41178 130.746 0 120.002 0C109.259 0 98.8456 1.41178 88.9375 4.05976L89.8143 7.33201C90.1326 8.51892 90.4571 9.73048 90.7898 10.9739L91.3154 12.937C91.6235 14.087 91.9397 15.2657 92.2672 16.4906L92.4377 17.1261C92.6872 18.0574 92.9449 19.0195 93.2088 20.0031L95.023 26.7724C95.061 26.9131 95.098 27.0538 95.136 27.1954L96.5395 32.4349C96.6627 32.897 96.789 33.3682 96.9163 33.8416L120.003 120L139.443 47.447L151.069 4.06079Z" fill="#FEEF00"/>
<path d="M235.941 88.9337L235.939 88.9296C230.43 68.3197 219.57 49.8968 204.941 35.2369L204.876 35.125L204.853 35.1476L181.752 58.2494L120.001 120L235.941 88.9337Z" fill="#F69F23"/>
<path d="M151.068 235.939C151.069 235.939 151.069 235.939 151.068 235.939L139.443 192.553L120.003 120L88.9365 235.939V235.94C98.8446 238.588 109.258 240 120.001 240C130.744 240 141.156 238.588 151.065 235.94L151.068 235.939Z" fill="#7421B0"/>
<path d="M120.002 120L35.1279 204.873L35.2286 204.931C49.8915 219.567 68.3196 230.43 88.9356 235.94L100.56 192.554L120.002 120Z" fill="#3A48BA"/>
<path d="M204.764 204.939L204.876 204.874L204.853 204.851L173.1 173.099L120.001 120L151.066 235.939C171.679 230.43 190.103 219.569 204.764 204.939Z" fill="#D2298E"/>
<path d="M120.003 120L4.06358 151.065H4.06152C9.57105 171.68 20.434 190.107 35.0682 204.769L35.1278 204.873L35.1483 204.852L66.9005 173.1L120.003 120Z" fill="#006FC4"/>
<path d="M235.938 151.073L235.942 151.066L235.94 151.065L192.554 139.44L120.002 120L204.875 204.873L204.938 204.765C219.568 190.105 230.428 171.682 235.938 151.073Z" fill="#FF2600"/>
<path d="M240 120.001C240 109.26 238.589 98.8488 235.942 88.9428V88.9346H235.94L192.554 100.559L120.002 120L235.941 151.066V151.061C238.589 141.155 240 130.743 240 120.001Z" fill="#FB6312"/>
<path d="M120.002 120.001L4.06284 88.9346L4.06078 88.9336C1.41178 98.8427 0 109.256 0 120C0 130.744 1.41178 141.157 4.06078 151.066L47.447 139.441L120.002 120.001Z" fill="#00C2AF"/>
<path d="M120.002 120.001L100.561 47.4468C100.412 46.8862 100.271 46.3605 100.124 45.8142L98.9792 41.5409C98.4576 39.5942 97.9555 37.7204 97.4802 35.9472L96.0838 30.7354C95.9359 30.182 95.7891 29.6368 95.6454 29.0998L94.3599 24.3018C94.326 24.1735 94.2931 24.0523 94.2593 23.925L88.9366 4.06157C68.3216 9.5711 49.8946 20.433 35.2316 35.0673L35.1289 35.1268L120.002 120.001Z" fill="#7FD200"/>
<path d="M120.003 120L35.1298 35.126L35.0723 35.2266C20.4371 49.8885 9.57305 68.3166 4.0625 88.9337C14.5579 91.7459 25.8788 94.7789 47.4487 100.558L120.003 120Z" fill="#00B500"/>
</svg>
