<svg width="17" height="16" viewBox="0 0 17 16" fill="none" xmlns="http://www.w3.org/2000/svg">
<g id="PencilSimple">
<path id="Vector" d="M14.619 4.5861L11.8265 1.79297C11.7336 1.70009 11.6234 1.62641 11.502 1.57614C11.3807 1.52587 11.2506 1.5 11.1193 1.5C10.988 1.5 10.8579 1.52587 10.7366 1.57614C10.6152 1.62641 10.505 1.70009 10.4121 1.79297L2.70524 9.50047C2.61198 9.593 2.53804 9.70313 2.48771 9.82448C2.43739 9.94584 2.41169 10.076 2.41211 10.2073V13.0005C2.41211 13.2657 2.51747 13.52 2.70501 13.7076C2.89254 13.8951 3.1469 14.0005 3.41211 14.0005H6.20524C6.33661 14.0009 6.46675 13.9752 6.5881 13.9249C6.70945 13.8746 6.81959 13.8006 6.91211 13.7073L14.619 6.00047C14.7119 5.90761 14.7856 5.79736 14.8358 5.67602C14.8861 5.55468 14.912 5.42463 14.912 5.29329C14.912 5.16195 14.8861 5.03189 14.8358 4.91055C14.7856 4.78921 14.7119 4.67896 14.619 4.5861ZM6.20524 13.0005H3.41211V10.2073L8.91211 4.70735L11.7052 7.50047L6.20524 13.0005ZM12.4121 6.79297L9.61899 4.00047L11.119 2.50047L13.9121 5.29297L12.4121 6.79297Z" fill="#667085"/>
</g>
</svg>
