<svg width="240" height="240" viewBox="0 0 240 240" fill="none" xmlns="http://www.w3.org/2000/svg">
<path opacity="0.42" d="M120 239.367C159.212 239.367 191 231.754 191 222.363C191 212.972 159.212 205.359 120 205.359C80.7878 205.359 49 212.972 49 222.363C49 231.754 80.7878 239.367 120 239.367Z" fill="#DCDED4"/>
<path d="M119.916 160.981L63.7695 139.928V212.006C63.7695 213.923 64.9585 215.639 66.7535 216.312L117.493 235.338C119.055 235.924 120.776 235.924 122.338 235.338L173.284 216.235C174.955 215.609 176.061 214.012 176.061 212.227V139.928L119.916 160.981Z" fill="#025ACE"/>
<path d="M118.293 116.161L64.4341 136.356C62.7681 136.981 61.6641 138.574 61.6641 140.354V153.46C61.6641 154.323 62.2001 155.096 63.0081 155.399L117.751 175.926C119.201 176.47 120.8 176.47 122.25 175.926L176.403 155.62C177.566 155.184 178.337 154.072 178.337 152.829V138.813C178.337 137.96 177.808 137.197 177.009 136.897L121.708 116.16C120.607 115.748 119.394 115.748 118.293 116.161Z" fill="#025ACE"/>
<path d="M117.291 175.755L63.7695 155.686V211.525C63.7695 213.426 64.9485 215.127 66.7285 215.794L117.034 234.657C117.694 234.905 118.384 235.024 119.078 235.061V176.12C118.471 176.077 117.869 175.971 117.291 175.755Z" fill="#034BA9"/>
<path d="M119.077 160.802L62.2246 138.434C61.8816 139.05 61.6816 139.749 61.6816 140.486V153.48C61.6816 154.336 62.2126 155.101 63.0136 155.402L117.29 175.754C117.588 175.866 117.896 175.94 118.204 176.006C118.493 176.061 118.784 176.099 119.077 176.119V160.802Z" fill="#034BA9"/>
<path d="M99.7475 169.022V228.465L84.6465 222.802V163.359L99.7475 169.022Z" fill="#4EA5D9"/>
<path d="M99.0385 123.381L86.0605 128.248L140.04 150.286C141.275 150.79 142.082 151.991 142.082 153.325V168.597L157.184 162.934V148.073C157.184 146.484 156.202 145.061 154.716 144.498L99.0385 123.381Z" fill="#4EA5D9"/>
<path d="M154.255 128.248L141.277 123.381L85.0958 144.689C83.9138 145.137 83.1328 146.269 83.1328 147.533V162.933L98.2348 168.596V152.886C98.2348 151.817 98.8818 150.855 99.8708 150.451L154.255 128.248Z" fill="#4EA5D9"/>
<path d="M133.886 100.455C133.886 100.455 145.404 129.911 120.43 137.393C120.43 137.393 134.911 129.195 130.445 105.5L133.886 100.455Z" fill="#3B7CA3"/>
<path d="M121.579 97.1362C121.579 97.1362 117.228 100.897 120.43 137.393C120.43 137.393 130.315 105.087 133.886 100.455C133.886 100.455 126.192 96.1932 121.579 97.1362Z" fill="#4EA5D9"/>
<path d="M105.956 100.455C105.956 100.455 94.4384 129.911 119.412 137.393C119.412 137.393 104.931 129.195 109.397 105.5L105.956 100.455Z" fill="#3B7CA3"/>
<path d="M113.772 97.1362C113.772 97.1362 122.615 100.897 119.413 137.393C119.413 137.393 109.528 105.087 105.957 100.455C105.957 100.455 109.16 96.1932 113.772 97.1362Z" fill="#4EA5D9"/>
<path d="M152.516 117.437C152.516 117.437 151.627 133.349 119.357 138.139L123.161 133.086C123.161 133.086 136.793 131.332 142.608 120.472C142.608 120.472 144.533 113.094 152.516 117.437Z" fill="#3B7CA3"/>
<path d="M152.715 117.502C152.715 117.502 139.908 117.502 119.556 138.204C119.556 138.204 119.205 127.677 128.855 118.73C138.504 109.783 147.276 106.8 152.715 117.502Z" fill="#4EA5D9"/>
<path d="M86.9238 117.437C86.9238 117.437 87.8138 133.349 120.083 138.139L116.28 133.086C116.28 133.086 102.648 131.332 96.8328 120.472C96.8328 120.472 94.9058 113.094 86.9238 117.437Z" fill="#3B7CA3"/>
<path d="M86.7246 117.502C86.7246 117.502 99.5316 117.502 119.884 138.204C119.884 138.204 120.235 127.677 110.585 118.73C100.935 109.783 92.1636 106.8 86.7246 117.502Z" fill="#4EA5D9"/>
<path d="M140.438 169.022V228.465L155.538 222.802V163.359L140.438 169.022Z" fill="#4EA5D9"/>
<path d="M125.639 178.539L126.601 180.74L128.751 181.094L127.195 182.808L127.562 185.228L125.639 184.085L123.716 185.228L124.083 182.808L122.527 181.094L124.677 180.74L125.639 178.539Z" fill="white"/>
<path d="M125.639 189.713L126.601 191.915L128.751 192.268L127.195 193.982L127.562 196.403L125.639 195.26L123.716 196.403L124.083 193.982L122.527 192.268L124.677 191.915L125.639 189.713Z" fill="white"/>
<path d="M125.639 200.889L126.601 203.091L128.751 203.444L127.195 205.158L127.562 207.578L125.639 206.435L123.716 207.578L124.083 205.158L122.527 203.444L124.677 203.091L125.639 200.889Z" fill="white"/>
<path d="M125.639 212.062L126.601 214.264L128.751 214.618L127.195 216.332L127.562 218.753L125.639 217.609L123.716 218.753L124.083 216.332L122.527 214.618L124.677 214.264L125.639 212.062Z" fill="white"/>
<path d="M125.639 223.238L126.601 225.44L128.751 225.793L127.195 227.507L127.562 229.927L125.639 228.785L123.716 229.927L124.083 227.507L122.527 225.793L124.677 225.44L125.639 223.238Z" fill="white"/>
<path d="M134.624 175.17L135.586 177.372L137.736 177.725L136.18 179.439L136.547 181.859L134.624 180.716L132.701 181.859L133.068 179.439L131.512 177.725L133.663 177.372L134.624 175.17Z" fill="white"/>
<path d="M134.624 186.344L135.586 188.546L137.736 188.899L136.18 190.613L136.547 193.034L134.624 191.891L132.701 193.034L133.068 190.613L131.512 188.899L133.663 188.546L134.624 186.344Z" fill="white"/>
<path d="M134.624 197.52L135.586 199.722L137.736 200.075L136.18 201.789L136.547 204.209L134.624 203.067L132.701 204.209L133.068 201.789L131.512 200.075L133.663 199.722L134.624 197.52Z" fill="white"/>
<path d="M134.624 208.693L135.586 210.895L137.736 211.248L136.18 212.963L136.547 215.383L134.624 214.24L132.701 215.383L133.068 212.963L131.512 211.248L133.663 210.895L134.624 208.693Z" fill="white"/>
<path d="M134.624 219.869L135.586 222.071L137.736 222.424L136.18 224.138L136.547 226.558L134.624 225.416L132.701 226.558L133.068 224.138L131.512 222.424L133.663 222.071L134.624 219.869Z" fill="white"/>
<path d="M161.576 165.062L162.538 167.264L164.688 167.618L163.132 169.332L163.5 171.753L161.576 170.609L159.653 171.753L160.021 169.332L158.465 167.618L160.615 167.264L161.576 165.062Z" fill="white"/>
<path d="M161.576 176.238L162.538 178.44L164.688 178.793L163.132 180.507L163.5 182.928L161.576 181.785L159.653 182.928L160.021 180.507L158.465 178.793L160.615 178.44L161.576 176.238Z" fill="white"/>
<path d="M161.576 187.412L162.538 189.614L164.688 189.967L163.132 191.681L163.5 194.101L161.576 192.958L159.653 194.101L160.021 191.681L158.465 189.967L160.615 189.614L161.576 187.412Z" fill="white"/>
<path d="M161.576 198.586L162.538 200.788L164.688 201.141L163.132 202.855L163.5 205.276L161.576 204.133L159.653 205.276L160.021 202.855L158.465 201.141L160.615 200.788L161.576 198.586Z" fill="white"/>
<path d="M161.576 209.762L162.538 211.964L164.688 212.317L163.132 214.031L163.5 216.451L161.576 215.309L159.653 216.451L160.021 214.031L158.465 212.317L160.615 211.964L161.576 209.762Z" fill="white"/>
<path d="M170.56 161.693L171.522 163.895L173.672 164.248L172.116 165.963L172.484 168.383L170.56 167.24L168.637 168.383L169.004 165.963L167.449 164.248L169.599 163.895L170.56 161.693Z" fill="white"/>
<path d="M170.56 172.869L171.522 175.071L173.672 175.424L172.116 177.138L172.484 179.559L170.56 178.416L168.637 179.559L169.004 177.138L167.449 175.424L169.599 175.071L170.56 172.869Z" fill="white"/>
<path d="M170.56 184.043L171.522 186.245L173.672 186.598L172.116 188.312L172.484 190.732L170.56 189.589L168.637 190.732L169.004 188.312L167.449 186.598L169.599 186.245L170.56 184.043Z" fill="white"/>
<path d="M170.56 195.217L171.522 197.419L173.672 197.773L172.116 199.486L172.484 201.907L170.56 200.764L168.637 201.907L169.004 199.486L167.449 197.773L169.599 197.419L170.56 195.217Z" fill="white"/>
<path d="M170.56 206.393L171.522 208.595L173.672 208.948L172.116 210.662L172.484 213.082L170.56 211.94L168.637 213.082L169.004 210.662L167.449 208.948L169.599 208.595L170.56 206.393Z" fill="white"/>
<path d="M114.409 178.539L113.448 180.74L111.297 181.094L112.853 182.808L112.486 185.228L114.409 184.085L116.332 185.228L115.965 182.808L117.521 181.094L115.371 180.74L114.409 178.539Z" fill="white"/>
<path d="M114.409 189.713L113.448 191.915L111.297 192.268L112.853 193.982L112.486 196.403L114.409 195.26L116.332 196.403L115.965 193.982L117.521 192.268L115.371 191.915L114.409 189.713Z" fill="white"/>
<path d="M114.409 200.887L113.448 203.089L111.297 203.442L112.853 205.156L112.486 207.576L114.409 206.433L116.332 207.576L115.965 205.156L117.521 203.442L115.371 203.089L114.409 200.887Z" fill="white"/>
<path d="M114.409 212.061L113.448 214.263L111.297 214.617L112.853 216.331L112.486 218.751L114.409 217.608L116.332 218.751L115.965 216.331L117.521 214.617L115.371 214.263L114.409 212.061Z" fill="white"/>
<path d="M114.409 223.236L113.448 225.438L111.297 225.791L112.853 227.505L112.486 229.925L114.409 228.783L116.332 229.925L115.965 227.505L117.521 225.791L115.371 225.438L114.409 223.236Z" fill="white"/>
<path d="M105.426 175.17L104.465 177.372L102.314 177.725L103.87 179.439L103.503 181.859L105.426 180.716L107.349 181.859L106.982 179.439L108.538 177.725L106.388 177.372L105.426 175.17Z" fill="white"/>
<path d="M105.426 186.344L104.465 188.546L102.314 188.899L103.87 190.613L103.503 193.034L105.426 191.891L107.349 193.034L106.982 190.613L108.538 188.899L106.388 188.546L105.426 186.344Z" fill="white"/>
<path d="M105.426 197.518L104.465 199.72L102.314 200.073L103.87 201.787L103.503 204.207L105.426 203.065L107.349 204.207L106.982 201.787L108.538 200.073L106.388 199.72L105.426 197.518Z" fill="white"/>
<path d="M105.426 208.693L104.465 210.895L102.314 211.248L103.87 212.963L103.503 215.383L105.426 214.24L107.349 215.383L106.982 212.963L108.538 211.248L106.388 210.895L105.426 208.693Z" fill="white"/>
<path d="M105.426 219.867L104.465 222.069L102.314 222.422L103.87 224.136L103.503 226.556L105.426 225.414L107.349 226.556L106.982 224.136L108.538 222.422L106.388 222.069L105.426 219.867Z" fill="white"/>
<path d="M78.4733 165.061L77.5113 167.263L75.3613 167.617L76.9173 169.331L76.5503 171.751L78.4733 170.608L80.3963 171.751L80.0293 169.331L81.5853 167.617L79.4343 167.263L78.4733 165.061Z" fill="white"/>
<path d="M78.4733 176.236L77.5113 178.438L75.3613 178.791L76.9173 180.505L76.5503 182.926L78.4733 181.783L80.3963 182.926L80.0293 180.505L81.5853 178.791L79.4343 178.438L78.4733 176.236Z" fill="white"/>
<path d="M78.4733 187.412L77.5113 189.614L75.3613 189.967L76.9173 191.681L76.5503 194.101L78.4733 192.958L80.3963 194.101L80.0293 191.681L81.5853 189.967L79.4343 189.614L78.4733 187.412Z" fill="white"/>
<path d="M78.4733 198.586L77.5113 200.788L75.3613 201.141L76.9173 202.855L76.5503 205.276L78.4733 204.133L80.3963 205.276L80.0293 202.855L81.5853 201.141L79.4343 200.788L78.4733 198.586Z" fill="white"/>
<path d="M78.4733 209.76L77.5113 211.962L75.3613 212.315L76.9173 214.029L76.5503 216.449L78.4733 215.307L80.3963 216.449L80.0293 214.029L81.5853 212.315L79.4343 211.962L78.4733 209.76Z" fill="white"/>
<path d="M69.489 161.693L68.527 163.895L66.377 164.248L67.933 165.963L67.566 168.383L69.489 167.24L71.412 168.383L71.045 165.963L72.601 164.248L70.45 163.895L69.489 161.693Z" fill="white"/>
<path d="M114.16 162.01L113.12 164.389L110.797 164.77L112.478 166.622L112.081 169.238L114.16 168.003L116.238 169.238L115.841 166.622L117.522 164.77L115.199 164.389L114.16 162.01Z" fill="white"/>
<path d="M104.452 158.369L103.413 160.749L101.09 161.13L102.771 162.982L102.374 165.597L104.452 164.363L106.53 165.597L106.133 162.982L107.814 161.13L105.491 160.749L104.452 158.369Z" fill="white"/>
<path d="M76.4518 147.582L75.4128 149.962L73.0898 150.343L74.7708 152.195L74.3738 154.811L76.4518 153.576L78.5308 154.811L78.1338 152.195L79.8148 150.343L77.4918 149.962L76.4518 147.582Z" fill="white"/>
<path d="M66.7448 143.941L65.7058 146.32L63.3828 146.702L65.0638 148.554L64.6668 151.169L66.7448 149.935L68.8228 151.169L68.4258 148.554L70.1068 146.702L67.7838 146.32L66.7448 143.941Z" fill="white"/>
<path d="M126.264 161.02L127.303 163.399L129.627 163.781L127.946 165.633L128.342 168.248L126.264 167.013L124.186 168.248L124.583 165.633L122.902 163.781L125.225 163.399L126.264 161.02Z" fill="white"/>
<path d="M135.972 157.379L137.011 159.759L139.334 160.14L137.653 161.992L138.05 164.608L135.972 163.373L133.894 164.608L134.291 161.992L132.609 160.14L134.933 159.759L135.972 157.379Z" fill="white"/>
<path d="M163.971 147.582L165.01 149.962L167.334 150.343L165.653 152.195L166.049 154.811L163.971 153.576L161.893 154.811L162.29 152.195L160.609 150.343L162.932 149.962L163.971 147.582Z" fill="white"/>
<path d="M173.679 143.941L174.718 146.32L177.041 146.702L175.36 148.554L175.757 151.169L173.679 149.935L171.601 151.169L171.998 148.554L170.316 146.702L172.64 146.32L173.679 143.941Z" fill="white"/>
<path d="M69.489 172.867L68.527 175.069L66.377 175.422L67.933 177.136L67.566 179.557L69.489 178.414L71.412 179.557L71.045 177.136L72.601 175.422L70.45 175.069L69.489 172.867Z" fill="white"/>
<path d="M69.489 184.043L68.527 186.245L66.377 186.598L67.933 188.312L67.566 190.732L69.489 189.589L71.412 190.732L71.045 188.312L72.601 186.598L70.45 186.245L69.489 184.043Z" fill="white"/>
<path d="M69.489 195.217L68.527 197.419L66.377 197.773L67.933 199.486L67.566 201.907L69.489 200.764L71.412 201.907L71.045 199.486L72.601 197.773L70.45 197.419L69.489 195.217Z" fill="white"/>
<path d="M69.489 206.391L68.527 208.593L66.377 208.946L67.933 210.66L67.566 213.08L69.489 211.938L71.412 213.08L71.045 210.66L72.601 208.946L70.45 208.593L69.489 206.391Z" fill="white"/>
<path opacity="0.15" d="M63.7695 155.686V158.844L120.001 179.929L176.061 158.908V155.75L120.001 176.771L63.7695 155.686Z" fill="black"/>
<path d="M19.0593 39.0666C18.9087 36.6616 20.403 34.919 21.9181 34.5566C21.8217 35.0671 21.8815 35.5379 22.0372 35.9192C20.9368 36.4574 20.0312 38.2605 20.933 40.2811C20.2587 40.0315 19.6133 39.6231 19.0593 39.0666Z" fill="#662D91"/>
<path d="M34.2007 21.2665L29.9199 29.7051L34.4405 31.9983L38.7213 23.5597L34.2007 21.2665Z" fill="#0071BC"/>
<path d="M70.8926 3.99294C69.6857 6.11558 70.1477 8.75691 71.9546 10.2896C71.3313 10.9369 70.708 11.5842 70.084 12.2314C67.6564 9.68399 67.3803 5.81118 69.3876 3.00977C69.8893 3.33749 70.391 3.66458 70.8926 3.99294Z" fill="#0071BC"/>
<path d="M63.4514 66.2172C63.1136 66.0786 62.731 66.1977 62.5382 66.4945C62.4304 66.4139 62.3226 66.3338 62.2148 66.2538C62.5463 65.8454 63.1155 65.7307 63.5686 65.9752C63.5295 66.0559 63.4904 66.1366 63.4514 66.2172Z" fill="#009245"/>
<path d="M37.4402 28.2621L37.0586 32.4844L45.5131 33.2484L45.8947 29.0262L37.4402 28.2621Z" fill="#009245"/>
<path d="M24.1953 30.2302L19.6016 31.7871L20.3792 34.0816L24.973 32.5246L24.1953 30.2302Z" fill="#FCEE21"/>
<path d="M86.1765 53.4971L82.209 54.3125L82.6161 56.2935L86.5836 55.4781L86.1765 53.4971Z" fill="#FCEE21"/>
<path d="M80.8953 59.2275L80.8594 59.834L82.6802 59.9418L82.7161 59.3353L80.8953 59.2275Z" fill="#FBB03B"/>
<path d="M31.3146 73.5903L29.957 75.4004L32.0504 76.9704L33.408 75.1604L31.3146 73.5903Z" fill="#FBB03B"/>
<path d="M85.0505 40.8852C84.7675 41.5167 84.1549 41.7612 83.7207 41.6503C83.8133 41.5324 83.8606 41.4051 83.8726 41.2879C84.2243 41.2986 84.6957 40.9602 84.736 40.3262C84.8747 40.4806 84.9837 40.6697 85.0505 40.8852Z" fill="#662D91"/>
<path d="M60.8676 81.6862C60.434 82.0347 59.9065 81.9849 59.6367 81.7473C59.7457 81.6975 59.8271 81.6244 59.8781 81.5437C60.1252 81.6798 60.5865 81.6112 60.8474 81.1719C60.8903 81.3326 60.8985 81.5078 60.8676 81.6862Z" fill="#ED1E79"/>
<path d="M99.9906 66.7648L99.377 67.9863L100.04 68.3196L100.654 67.0981L99.9906 66.7648Z" fill="#C1272D"/>
<path d="M16.0305 6.43183L16 7.20703L16.4207 7.22358L16.4512 6.44837L16.0305 6.43183Z" fill="#ED1E79"/>
<path d="M73.4868 16.5997L70.6484 19.0234L75.173 24.3221L78.0114 21.8983L73.4868 16.5997Z" fill="#0071BC"/>
<path d="M185.961 34.5108C187.991 30.7508 187.08 26.1476 183.859 23.5359C184.924 22.38 185.99 21.2229 187.057 20.0664C191.402 24.4283 192.036 31.192 188.632 36.1709C187.742 35.6175 186.852 35.0636 185.961 34.5108Z" fill="#0071BC"/>
<path d="M85.1288 82.2316C84.4412 80.5117 82.6576 79.5368 80.8949 79.8821C80.806 79.2078 80.7178 78.5315 80.6289 77.8559C83.286 77.6215 85.7111 79.2897 86.4227 81.8043C85.9916 81.9462 85.5599 82.088 85.1288 82.2316Z" fill="#009245"/>
<path d="M201.84 18.9998L198.016 19.1406L198.086 21.0508L201.911 20.91L201.84 18.9998Z" fill="#009245"/>
<path d="M176.849 41.9164L176 44.5781L181.331 46.2791L182.18 43.6174L176.849 41.9164Z" fill="#FCEE21"/>
<path d="M173.911 75.1013L170.113 81.6035L173.36 83.4997L177.157 76.9975L173.911 75.1013Z" fill="#FCEE21"/>
<path d="M228.754 63.0014L226.615 66.4805L237.056 72.8975L239.194 69.4184L228.754 63.0014Z" fill="#FBB03B"/>
<path d="M80.0343 71.001L77.8086 73.6211L80.8388 76.1953L83.0646 73.5752L80.0343 71.001Z" fill="#FBB03B"/>
<path d="M199.782 25.9473C204.046 24.7858 207.726 26.8259 208.939 29.4105C207.985 29.4256 207.164 29.7092 206.535 30.1296C205.164 28.3523 201.59 27.3931 198.295 29.7609C198.495 28.4563 198.989 27.1473 199.782 25.9473Z" fill="#662D91"/>
<path d="M230.659 67.7119C234.189 66.9846 237.081 68.8318 237.936 70.9992C237.16 70.9633 236.476 71.1505 235.943 71.4606C234.918 69.9442 232.057 68.9799 229.254 70.7396C229.484 69.6883 229.953 68.6472 230.659 67.7119Z" fill="#ED1E79"/>
<path d="M71.5464 1.00057L70.709 4.49414L77.1482 6.03756L77.9856 2.54399L71.5464 1.00057Z" fill="#ED1E79"/>
<path d="M128.84 82.2375C127.633 80.1149 128.095 77.4736 129.902 75.9408C129.279 75.2936 128.655 74.6463 128.031 73.9991C125.604 76.5465 125.328 80.4193 127.335 83.2207C127.837 82.893 128.338 82.5659 128.84 82.2375Z" fill="#0071BC"/>
<path d="M144.124 56.7333L140.156 55.918L140.563 53.937L144.531 54.7524L144.124 56.7333Z" fill="#FCEE21"/>
<path d="M138.843 51.003L138.807 50.3965L140.627 50.2887L140.663 50.8952L138.843 51.003Z" fill="#FBB03B"/>
<path d="M142.998 69.3472C142.715 68.7157 142.102 68.4712 141.668 68.5821C141.761 68.7 141.808 68.8273 141.82 68.9445C142.172 68.9338 142.643 69.2722 142.683 69.9062C142.822 69.7518 142.931 69.5628 142.998 69.3472Z" fill="#662D91"/>
<path d="M157.938 43.4676L157.324 42.2461L157.988 41.9128L158.601 43.1344L157.938 43.4676Z" fill="#C1272D"/>
<path d="M131.434 69.6308L128.596 67.207L133.12 61.9084L135.959 64.3321L131.434 69.6308Z" fill="#0071BC"/>
<path d="M143.076 4.00077C142.388 5.72069 140.605 6.69567 138.842 6.3503C138.753 7.02465 138.665 7.7009 138.576 8.37652C141.233 8.61097 143.658 6.94273 144.37 4.42807C143.939 4.28627 143.507 4.14447 143.076 4.00077Z" fill="#009245"/>
<path d="M137.98 15.2314L135.754 12.6113L138.784 10.0372L141.01 12.6572L137.98 15.2314Z" fill="#FBB03B"/>
<path d="M129.494 85.2318L128.656 81.7383L135.095 80.1949L135.933 83.6884L129.494 85.2318Z" fill="#ED1E79"/>
<path d="M228.367 51.105L227.719 51.3867L228.245 52.5972L228.893 52.3154L228.367 51.105Z" fill="#0071BC"/>
<path d="M217.538 31.1055C218.103 31.6141 218.937 31.6487 219.523 31.2013C219.679 31.4332 219.834 31.667 219.989 31.8989C219.053 32.4674 217.857 32.2941 217.139 31.4962C217.272 31.3664 217.405 31.2359 217.538 31.1055Z" fill="#C1272D"/>
<path d="M217.644 71.4843L217.072 72.6211L217.64 72.9067L218.212 71.7699L217.644 71.4843Z" fill="#662D91"/>
<path d="M221.504 93.8297L220.34 94.1172L220.589 95.1244L221.753 94.8369L221.504 93.8297Z" fill="#FBB03B"/>
<path d="M220.89 34.5359L218.479 36.4863L219.537 37.7947L221.948 35.8442L220.89 34.5359Z" fill="#ED1E79"/>
<path d="M4.97065 114.659C4.63536 110.666 7.05863 107.718 9.56319 107.061C9.42076 107.914 9.53735 108.693 9.80962 109.324C7.99957 110.255 6.55696 113.284 8.12814 116.611C6.99686 116.218 5.91033 115.563 4.97065 114.659Z" fill="#662D91"/>
<path d="M21.5721 103.872L19.3652 104.691L20.8948 108.811L23.1016 107.991L21.5721 103.872Z" fill="#0071BC"/>
<path d="M53.6804 100.444C53.1838 100.475 52.7842 100.847 52.7237 101.327C52.5435 101.292 52.3632 101.258 52.1836 101.223C52.3481 100.526 52.979 100.047 53.6804 100.078C53.6804 100.199 53.6804 100.322 53.6804 100.444Z" fill="#0071BC"/>
<path d="M53.2899 95.8457C54.8289 97.328 57.169 97.5076 58.8593 96.3058C59.2734 96.9745 59.6874 97.6425 60.1009 98.3118C57.4167 99.82 54.0733 99.2181 52.1309 96.9095C52.5172 96.5554 52.9035 96.2012 53.2899 95.8457Z" fill="#009245"/>
<path d="M26.4552 72.6829C25.8357 73.9856 26.2227 75.5215 27.354 76.3465C27.0149 76.7549 26.6752 77.1633 26.3361 77.5717C24.7952 76.1763 24.4643 73.9081 25.525 72.1699C25.8351 72.3407 26.1452 72.5121 26.4552 72.6829Z" fill="#C1272D"/>
<path d="M41.7454 100.111L39.4102 103.105L45.4065 107.781L47.7418 104.786L41.7454 100.111Z" fill="#009245"/>
<path d="M11.3009 85.1634L8.12109 86.7422L8.90976 88.3307L12.0896 86.752L11.3009 85.1634Z" fill="#FCEE21"/>
<path d="M56.4054 96.7295C55.8017 92.3462 58.3005 88.9537 61.0244 88.082C60.9167 89.0312 61.0912 89.8839 61.4284 90.5626C59.4873 91.6958 58.0749 95.1199 60.0016 98.6978C58.7316 98.3303 57.4957 97.673 56.4054 96.7295Z" fill="#662D91"/>
<path d="M2.12618 110.114L1 112.75L5.85793 114.826L6.98411 112.19L2.12618 110.114Z" fill="#ED1E79"/>
<path d="M164.388 115.297L158 123.002L162.128 126.424L168.515 118.719L164.388 115.297Z" fill="#0071BC"/>
<path d="M214.291 74.8579C212.815 78.8745 214.373 83.3101 217.939 85.4415C217.047 86.7405 216.155 88.0381 215.263 89.337C210.332 85.6306 208.741 79.0137 211.407 73.5918C212.368 74.0128 213.33 74.4357 214.291 74.8579Z" fill="#0071BC"/>
<path d="M65.6234 90.8604C66.7868 91.5524 68.2559 91.3236 69.1238 90.3379C69.4761 90.6908 69.8277 91.0425 70.1794 91.3954C68.7431 92.7139 66.5946 92.8267 65.0625 91.6847C65.2497 91.4106 65.4362 91.1364 65.6234 90.8604Z" fill="#C1272D"/>
<path d="M187.082 105.8L186.217 109.49L193.605 111.222L194.47 107.532L187.082 105.8Z" fill="#009245"/>
<path d="M72.4945 106.319L70.8867 106.51L70.9821 107.313L72.5898 107.122L72.4945 106.319Z" fill="#FCEE21"/>
<path d="M143.509 99.2988L138.289 100.609L138.944 103.216L144.164 101.906L143.509 99.2988Z" fill="#FCEE21"/>
<path d="M182.399 106.851L180.906 107.697L181.188 108.195L182.681 107.348L182.399 106.851Z" fill="#FBB03B"/>
<path d="M212.203 116.81C212.686 113.303 215.345 111.228 217.632 111.146C217.344 111.854 217.294 112.549 217.407 113.145C215.666 113.598 213.837 115.931 214.548 119.104C213.649 118.546 212.838 117.772 212.203 116.81Z" fill="#662D91"/>
<path d="M72.7364 90.3986L70.2539 91.584L70.8967 92.9302L73.3792 91.7448L72.7364 90.3986Z" fill="#ED1E79"/>
<path d="M218.005 108.899L214.348 111.426L219.065 118.253L222.722 115.726L218.005 108.899Z" fill="#0071BC"/>
<path d="M220.042 100.858L214.469 103.648L215.862 106.432L221.436 103.641L220.042 100.858Z" fill="#FCEE21"/>
<path d="M221.645 122.972L219.895 124.676L223.307 128.182L225.057 126.479L221.645 122.972Z" fill="#FCEE21"/>
<path d="M201.679 88.112L197.881 91.3281L199.626 93.3892L203.424 90.1731L201.679 88.112Z" fill="#ED1E79"/>
</svg>
