<svg width="20" height="20" viewBox="0 0 20 20" fill="none" xmlns="http://www.w3.org/2000/svg">
<path d="M9.70019 2C9.70019 2 10.9117 2.24429 13.5413 2.92199C16.0253 3.56223 16.896 3.81821 16.896 3.81821C16.896 3.81821 17.024 6.37887 15.8973 11.014C14.9876 14.7556 11.5951 16.8271 9.70019 18C7.80525 16.8271 4.41282 14.7559 3.50311 11.014C2.3764 6.37887 2.50439 3.81821 2.50439 3.81821C2.50439 3.81821 3.37513 3.56223 5.85905 2.92199C8.48865 2.24429 9.70019 2 9.70019 2Z" fill="#F9FAFB"/>
<g clip-path="url(#clip0_37_2198)">
<path d="M9.99996 6.75C9.35717 6.75 8.72881 6.94061 8.19435 7.29772C7.65989 7.65484 7.24333 8.16242 6.99735 8.75628C6.75136 9.35014 6.687 10.0036 6.81241 10.634C6.93781 11.2645 7.24734 11.8436 7.70186 12.2981C8.15638 12.7526 8.73548 13.0622 9.36591 13.1876C9.99635 13.313 10.6498 13.2486 11.2437 13.0026C11.8375 12.7566 12.3451 12.3401 12.7022 11.8056C13.0593 11.2711 13.25 10.6428 13.25 10C13.249 9.13833 12.9063 8.3122 12.297 7.70291C11.6878 7.09361 10.8616 6.75091 9.99996 6.75ZM11.4268 9.42688L9.67683 11.1769C9.65361 11.2001 9.62604 11.2186 9.59569 11.2311C9.56534 11.2437 9.53281 11.2502 9.49996 11.2502C9.4671 11.2502 9.43457 11.2437 9.40422 11.2311C9.37387 11.2186 9.3463 11.2001 9.32308 11.1769L8.57308 10.4269C8.52617 10.38 8.49982 10.3163 8.49982 10.25C8.49982 10.1837 8.52617 10.12 8.57308 10.0731C8.61999 10.0262 8.68362 9.99986 8.74996 9.99986C8.8163 9.99986 8.87992 10.0262 8.92683 10.0731L9.49996 10.6466L11.0731 9.07312C11.0963 9.0499 11.1239 9.03147 11.1542 9.0189C11.1846 9.00633 11.2171 8.99986 11.25 8.99986C11.2828 8.99986 11.3153 9.00633 11.3457 9.0189C11.376 9.03147 11.4036 9.0499 11.4268 9.07312C11.4501 9.09635 11.4685 9.12393 11.4811 9.15428C11.4936 9.18462 11.5001 9.21715 11.5001 9.25C11.5001 9.28285 11.4936 9.31538 11.4811 9.34572C11.4685 9.37607 11.4501 9.40365 11.4268 9.42688Z" fill="#12B76A"/>
</g>
<defs>
<clipPath id="clip0_37_2198">
<rect width="8" height="8" fill="white" transform="translate(5.99996 6)"/>
</clipPath>
</defs>
</svg>
