<svg width="375" height="812" viewBox="0 0 375 812" fill="none" xmlns="http://www.w3.org/2000/svg">
<rect width="375" height="812" fill="#025ACE"/>
<path d="M200.586 407.881C200.96 407.524 201.458 407.936 201.146 408.348C200.219 409.571 199.256 410.769 198.259 411.951C197.256 413.129 196.207 414.286 195.112 415.42C194.017 416.554 192.945 417.644 191.714 418.711C191.51 418.895 191.239 418.987 190.965 418.965L190.847 418.956L183.754 418.444C181.382 418.288 179.01 418.066 176.66 417.866L169.567 417.265L162.474 416.621L159.757 416.367C158.825 416.28 158.513 415.074 159.286 414.546L161.584 412.974C166.078 409.883 170.046 406.08 173.422 401.833C176.82 397.585 179.603 392.849 181.975 387.934C184.324 382.997 186.217 377.816 187.768 372.546C188.52 369.899 189.205 367.231 189.798 364.54C190.368 361.849 190.847 359.092 191.166 356.445L191.23 355.937C191.297 355.411 191.762 355.028 192.291 355.064L192.649 355.089C195.044 355.245 197.256 355.6 199.514 356.067C201.749 356.534 203.961 357.179 206.105 357.935C208.249 358.691 210.325 359.648 212.286 360.76C212.874 361.093 212.455 361.839 211.83 361.582C210.804 361.16 209.777 360.782 208.728 360.448C207.679 360.115 206.63 359.803 205.558 359.536C203.437 358.981 201.247 358.647 199.081 358.358C197.273 358.135 196.409 357.944 194.954 357.913C194.422 357.902 193.996 358.332 193.963 358.863C193.921 359.538 193.86 359.854 193.743 360.893C193.584 362.316 193.401 363.717 193.196 365.118C192.763 367.92 192.238 370.722 191.554 373.502C190.208 379.039 188.384 384.487 185.989 389.713C183.571 394.939 180.606 399.965 176.911 404.523C175.064 406.792 173.034 408.926 170.867 410.905C169.824 411.78 169.564 411.997 169.506 412.044C168.92 412.524 169.206 413.462 169.955 413.574L177.002 414.575C179.352 414.908 181.701 415.242 184.05 415.62L189.682 416.569C190.214 416.659 190.761 416.531 191.193 416.208C192.084 415.543 192.879 414.915 193.812 414.13C194.975 413.151 196.115 412.106 197.256 411.083C198.373 410.038 199.514 408.971 200.586 407.881Z" fill="white"/>
<path d="M181.45 359.07C179.694 358.803 177.915 358.625 176.136 358.536C175.794 358.514 175.36 358.514 174.904 358.514C169.111 358.514 165.12 364.207 167.309 369.455C168.358 372.012 169.294 374.636 170.206 377.26C171.095 379.884 171.916 382.553 172.669 385.266C173.01 386.496 173.338 387.73 173.661 388.976C173.933 390.021 175.259 389.932 175.298 388.853C175.347 387.529 175.332 386.199 175.269 384.865C175.132 381.974 174.699 379.084 174.06 376.237C173.422 373.391 172.578 370.589 171.529 367.876C170.457 365.074 172.327 362.005 175.36 361.582C175.657 361.538 175.976 361.494 176.273 361.449C177.983 361.227 179.694 361.004 181.427 360.804C181.56 360.789 181.692 360.774 181.824 360.759C182.904 360.636 183.009 359.322 181.937 359.146C181.774 359.12 181.612 359.094 181.45 359.07Z" fill="#F6CB63"/>
<path d="M154.351 431.572L143.017 457.266H137.964L141.426 449.4L134 431.572H139.36L142.18 439.411L143.938 444.528L145.865 439.519L149.27 431.572H154.351Z" fill="white"/>
<path d="M171.52 431.572H175.931V449.699H171.604L171.381 447.059C170.32 449.182 167.417 450.217 165.351 450.271C159.851 450.298 155.775 447.005 155.775 440.636C155.775 434.375 160.047 431.109 165.462 431.136C167.947 431.136 170.32 432.279 171.381 434.076L171.52 431.572ZM160.354 440.608C160.354 444.065 162.81 446.134 165.853 446.134C173.084 446.134 173.084 435.137 165.853 435.137C162.81 435.137 160.354 437.152 160.354 440.608Z" fill="white"/>
<path d="M179.811 457.266V431.572H184.11L184.417 434.076C185.841 432.062 188.326 431.163 190.447 431.163C196.17 431.163 199.995 435.328 199.995 440.663C199.995 445.97 196.561 450.162 190.615 450.162C188.661 450.162 185.757 449.563 184.417 447.576V457.266H179.811ZM195.389 440.635C195.389 437.805 193.435 435.491 190.112 435.491C186.79 435.491 184.836 437.805 184.836 440.635C184.836 443.466 186.986 445.78 190.112 445.78C193.239 445.807 195.389 443.466 195.389 440.635Z" fill="white"/>
<path d="M207.309 442.214C207.616 444.446 209.599 446.079 212.865 446.079C214.568 446.079 216.801 445.453 217.834 444.392L220.765 447.222C218.811 449.209 215.601 450.162 212.781 450.162C206.36 450.162 202.563 446.297 202.563 440.499C202.563 434.974 206.416 431 212.446 431C218.671 431 222.552 434.756 221.826 442.214H207.309ZM217.415 438.512C217.108 436.172 215.238 434.974 212.586 434.974C210.101 434.974 208.063 436.144 207.393 438.512H217.415Z" fill="white"/>
<path d="M229.615 431.571L229.95 433.667C231.374 431.435 233.3 431.082 235.198 431.082C237.125 431.082 238.967 431.816 240 432.796L237.934 436.689C236.985 435.927 236.12 435.518 234.612 435.518C232.211 435.518 229.978 436.77 229.978 440.118V449.672H225.372V431.544H229.615V431.571Z" fill="white"/>
<path d="M137.791 755V749.545H138.601V750.398H138.672C138.786 750.107 138.969 749.88 139.223 749.719C139.476 749.556 139.78 749.474 140.135 749.474C140.495 749.474 140.795 749.556 141.034 749.719C141.275 749.88 141.463 750.107 141.598 750.398H141.655C141.795 750.116 142.004 749.892 142.284 749.727C142.563 749.558 142.898 749.474 143.289 749.474C143.776 749.474 144.175 749.627 144.485 749.933C144.795 750.236 144.951 750.708 144.951 751.349V755H144.112V751.349C144.112 750.947 144.002 750.659 143.782 750.487C143.562 750.314 143.303 750.227 143.005 750.227C142.621 750.227 142.324 750.343 142.113 750.575C141.902 750.805 141.797 751.096 141.797 751.449V755H140.945V751.264C140.945 750.954 140.844 750.704 140.643 750.515C140.442 750.323 140.183 750.227 139.865 750.227C139.648 750.227 139.444 750.285 139.255 750.401C139.068 750.517 138.916 750.678 138.8 750.884C138.686 751.088 138.63 751.323 138.63 751.591V755H137.791ZM148.088 755.128C147.742 755.128 147.429 755.063 147.147 754.933C146.865 754.8 146.641 754.609 146.476 754.361C146.31 754.11 146.227 753.807 146.227 753.452C146.227 753.139 146.289 752.886 146.412 752.692C146.535 752.495 146.699 752.341 146.905 752.23C147.111 752.119 147.339 752.036 147.587 751.982C147.838 751.925 148.09 751.88 148.344 751.847C148.675 751.804 148.944 751.772 149.15 751.751C149.358 751.727 149.51 751.688 149.604 751.634C149.701 751.579 149.75 751.484 149.75 751.349V751.321C149.75 750.971 149.654 750.698 149.462 750.504C149.273 750.31 148.985 750.213 148.599 750.213C148.199 750.213 147.886 750.301 147.658 750.476C147.431 750.651 147.271 750.838 147.179 751.037L146.383 750.753C146.525 750.421 146.715 750.163 146.952 749.979C147.191 749.792 147.451 749.661 147.733 749.588C148.017 749.512 148.296 749.474 148.571 749.474C148.746 749.474 148.947 749.496 149.175 749.538C149.404 749.579 149.626 749.663 149.839 749.79C150.054 749.918 150.233 750.111 150.375 750.369C150.517 750.627 150.588 750.973 150.588 751.406V755H149.75V754.261H149.707C149.65 754.38 149.556 754.506 149.423 754.641C149.291 754.776 149.114 754.891 148.894 754.986C148.674 755.08 148.405 755.128 148.088 755.128ZM148.216 754.375C148.547 754.375 148.827 754.31 149.054 754.18C149.284 754.049 149.456 753.881 149.572 753.675C149.691 753.469 149.75 753.253 149.75 753.026V752.259C149.714 752.301 149.636 752.34 149.516 752.376C149.397 752.409 149.26 752.438 149.104 752.464C148.95 752.488 148.799 752.509 148.653 752.528C148.508 752.545 148.391 752.559 148.301 752.571C148.083 752.599 147.88 752.646 147.69 752.71C147.503 752.771 147.352 752.865 147.236 752.99C147.122 753.113 147.065 753.281 147.065 753.494C147.065 753.786 147.173 754.006 147.388 754.155C147.606 754.302 147.882 754.375 148.216 754.375ZM154.177 755.114C153.723 755.114 153.321 754.999 152.973 754.769C152.625 754.537 152.353 754.21 152.157 753.789C151.96 753.365 151.862 752.865 151.862 752.287C151.862 751.714 151.96 751.217 152.157 750.795C152.353 750.374 152.627 750.049 152.977 749.819C153.327 749.589 153.732 749.474 154.191 749.474C154.547 749.474 154.827 749.534 155.033 749.652C155.241 749.768 155.4 749.901 155.509 750.05C155.62 750.196 155.707 750.317 155.768 750.412H155.839V747.727H156.677V755H155.868V754.162H155.768C155.707 754.261 155.619 754.387 155.505 754.538C155.392 754.687 155.23 754.821 155.019 754.94C154.808 755.056 154.528 755.114 154.177 755.114ZM154.291 754.361C154.627 754.361 154.911 754.273 155.143 754.098C155.375 753.92 155.552 753.675 155.672 753.363C155.793 753.048 155.853 752.685 155.853 752.273C155.853 751.866 155.794 751.509 155.676 751.204C155.557 750.896 155.382 750.657 155.15 750.487C154.918 750.314 154.632 750.227 154.291 750.227C153.936 750.227 153.64 750.318 153.403 750.501C153.169 750.681 152.992 750.926 152.874 751.236C152.758 751.544 152.7 751.889 152.7 752.273C152.7 752.661 152.759 753.014 152.878 753.331C152.998 753.646 153.176 753.897 153.41 754.084C153.647 754.268 153.941 754.361 154.291 754.361ZM160.616 755.114C160.09 755.114 159.637 754.998 159.255 754.766C158.877 754.531 158.584 754.205 158.378 753.786C158.175 753.364 158.073 752.874 158.073 752.315C158.073 751.757 158.175 751.264 158.378 750.838C158.584 750.41 158.871 750.076 159.238 749.837C159.607 749.595 160.038 749.474 160.53 749.474C160.814 749.474 161.095 749.522 161.372 749.616C161.649 749.711 161.901 749.865 162.128 750.078C162.356 750.289 162.537 750.568 162.672 750.916C162.807 751.264 162.874 751.693 162.874 752.202V752.557H158.669V751.832H162.022C162.022 751.525 161.96 751.25 161.837 751.009C161.716 750.767 161.544 750.576 161.319 750.437C161.096 750.297 160.833 750.227 160.53 750.227C160.196 750.227 159.908 750.31 159.664 750.476C159.422 750.639 159.236 750.852 159.106 751.115C158.976 751.378 158.911 751.66 158.911 751.96V752.443C158.911 752.855 158.982 753.204 159.124 753.491C159.268 753.775 159.468 753.991 159.724 754.141C159.98 754.287 160.277 754.361 160.616 754.361C160.836 754.361 161.035 754.33 161.212 754.268C161.392 754.205 161.547 754.11 161.677 753.984C161.807 753.857 161.908 753.698 161.979 753.509L162.789 753.736C162.704 754.01 162.56 754.252 162.359 754.46C162.158 754.666 161.909 754.827 161.613 754.943C161.317 755.057 160.985 755.114 160.616 755.114ZM168.197 755L166.535 749.545H167.416L168.595 753.722H168.652L169.816 749.545H170.711L171.862 753.707H171.919L173.098 749.545H173.978L172.316 755H171.493L170.299 750.81H170.214L169.021 755H168.197ZM175.086 755V749.545H175.924V755H175.086ZM175.513 748.636C175.349 748.636 175.208 748.581 175.09 748.469C174.974 748.358 174.916 748.224 174.916 748.068C174.916 747.912 174.974 747.778 175.09 747.667C175.208 747.556 175.349 747.5 175.513 747.5C175.676 747.5 175.816 747.556 175.932 747.667C176.05 747.778 176.109 747.912 176.109 748.068C176.109 748.224 176.05 748.358 175.932 748.469C175.816 748.581 175.676 748.636 175.513 748.636ZM179.832 749.545V750.256H177.005V749.545H179.832ZM177.829 748.239H178.667V753.438C178.667 753.674 178.701 753.852 178.77 753.97C178.841 754.086 178.931 754.164 179.04 754.205C179.151 754.242 179.268 754.261 179.391 754.261C179.484 754.261 179.559 754.257 179.619 754.247C179.678 754.235 179.725 754.226 179.761 754.219L179.931 754.972C179.874 754.993 179.795 755.014 179.693 755.036C179.591 755.059 179.462 755.071 179.306 755.071C179.069 755.071 178.837 755.02 178.61 754.918C178.385 754.817 178.198 754.661 178.049 754.453C177.902 754.245 177.829 753.982 177.829 753.665V748.239ZM182.047 751.719V755H181.209V747.727H182.047V750.398H182.119C182.246 750.116 182.438 749.892 182.694 749.727C182.952 749.558 183.295 749.474 183.724 749.474C184.095 749.474 184.421 749.549 184.7 749.698C184.98 749.845 185.196 750.071 185.35 750.376C185.506 750.679 185.584 751.065 185.584 751.534V755H184.746V751.591C184.746 751.158 184.634 750.823 184.409 750.586C184.186 750.347 183.878 750.227 183.482 750.227C183.208 750.227 182.961 750.285 182.744 750.401C182.528 750.517 182.358 750.687 182.232 750.909C182.109 751.132 182.047 751.402 182.047 751.719ZM203.993 755V749.545H204.831V755H203.993ZM204.419 748.636C204.255 748.636 204.115 748.581 203.996 748.469C203.88 748.358 203.822 748.224 203.822 748.068C203.822 747.912 203.88 747.778 203.996 747.667C204.115 747.556 204.255 747.5 204.419 747.5C204.582 747.5 204.722 747.556 204.838 747.667C204.956 747.778 205.015 747.912 205.015 748.068C205.015 748.224 204.956 748.358 204.838 748.469C204.722 748.581 204.582 748.636 204.419 748.636ZM207.204 751.719V755H206.366V749.545H207.175V750.398H207.246C207.374 750.121 207.568 749.898 207.829 749.73C208.089 749.56 208.425 749.474 208.837 749.474C209.207 749.474 209.53 749.55 209.807 749.702C210.084 749.851 210.299 750.078 210.453 750.384C210.607 750.687 210.684 751.07 210.684 751.534V755H209.846V751.591C209.846 751.162 209.735 750.829 209.512 750.589C209.289 750.348 208.984 750.227 208.596 750.227C208.328 750.227 208.089 750.285 207.878 750.401C207.67 750.517 207.506 750.687 207.385 750.909C207.264 751.132 207.204 751.402 207.204 751.719ZM216.022 747.727V755H215.141V747.727H216.022ZM218.512 751.719V755H217.674V749.545H218.484V750.398H218.555C218.683 750.121 218.877 749.898 219.137 749.73C219.398 749.56 219.734 749.474 220.146 749.474C220.515 749.474 220.838 749.55 221.115 749.702C221.392 749.851 221.608 750.078 221.762 750.384C221.916 750.687 221.992 751.07 221.992 751.534V755H221.154V751.591C221.154 751.162 221.043 750.829 220.821 750.589C220.598 750.348 220.293 750.227 219.904 750.227C219.637 750.227 219.398 750.285 219.187 750.401C218.979 750.517 218.814 750.687 218.693 750.909C218.573 751.132 218.512 751.402 218.512 751.719ZM225.584 755.114C225.129 755.114 224.728 754.999 224.38 754.769C224.032 754.537 223.759 754.21 223.563 753.789C223.366 753.365 223.268 752.865 223.268 752.287C223.268 751.714 223.366 751.217 223.563 750.795C223.759 750.374 224.033 750.049 224.383 749.819C224.734 749.589 225.138 749.474 225.598 749.474C225.953 749.474 226.233 749.534 226.439 749.652C226.648 749.768 226.806 749.901 226.915 750.05C227.026 750.196 227.113 750.317 227.174 750.412H227.245V747.727H228.084V755H227.274V754.162H227.174C227.113 754.261 227.025 754.387 226.912 754.538C226.798 754.687 226.636 754.821 226.425 754.94C226.214 755.056 225.934 755.114 225.584 755.114ZM225.697 754.361C226.033 754.361 226.317 754.273 226.549 754.098C226.781 753.92 226.958 753.675 227.079 753.363C227.199 753.048 227.26 752.685 227.26 752.273C227.26 751.866 227.2 751.509 227.082 751.204C226.964 750.896 226.789 750.657 226.557 750.487C226.325 750.314 226.038 750.227 225.697 750.227C225.342 750.227 225.046 750.318 224.809 750.501C224.575 750.681 224.399 750.926 224.28 751.236C224.164 751.544 224.106 751.889 224.106 752.273C224.106 752.661 224.165 753.014 224.284 753.331C224.405 753.646 224.582 753.897 224.816 754.084C225.053 754.268 225.347 754.361 225.697 754.361ZM229.735 755V749.545H230.573V755H229.735ZM230.161 748.636C229.998 748.636 229.857 748.581 229.738 748.469C229.622 748.358 229.564 748.224 229.564 748.068C229.564 747.912 229.622 747.778 229.738 747.667C229.857 747.556 229.998 747.5 230.161 747.5C230.324 747.5 230.464 747.556 230.58 747.667C230.698 747.778 230.758 747.912 230.758 748.068C230.758 748.224 230.698 748.358 230.58 748.469C230.464 748.581 230.324 748.636 230.161 748.636ZM233.713 755.128C233.367 755.128 233.054 755.063 232.772 754.933C232.49 754.8 232.266 754.609 232.101 754.361C231.935 754.11 231.852 753.807 231.852 753.452C231.852 753.139 231.914 752.886 232.037 752.692C232.16 752.495 232.324 752.341 232.53 752.23C232.736 752.119 232.964 752.036 233.212 751.982C233.463 751.925 233.715 751.88 233.969 751.847C234.3 751.804 234.569 751.772 234.775 751.751C234.983 751.727 235.135 751.688 235.229 751.634C235.326 751.579 235.375 751.484 235.375 751.349V751.321C235.375 750.971 235.279 750.698 235.087 750.504C234.898 750.31 234.61 750.213 234.224 750.213C233.824 750.213 233.511 750.301 233.283 750.476C233.056 750.651 232.896 750.838 232.804 751.037L232.008 750.753C232.15 750.421 232.34 750.163 232.577 749.979C232.816 749.792 233.076 749.661 233.358 749.588C233.642 749.512 233.921 749.474 234.196 749.474C234.371 749.474 234.572 749.496 234.8 749.538C235.029 749.579 235.251 749.663 235.464 749.79C235.679 749.918 235.858 750.111 236 750.369C236.142 750.627 236.213 750.973 236.213 751.406V755H235.375V754.261H235.332C235.275 754.38 235.181 754.506 235.048 754.641C234.916 754.776 234.739 754.891 234.519 754.986C234.299 755.08 234.03 755.128 233.713 755.128ZM233.841 754.375C234.172 754.375 234.452 754.31 234.679 754.18C234.909 754.049 235.081 753.881 235.197 753.675C235.316 753.469 235.375 753.253 235.375 753.026V752.259C235.339 752.301 235.261 752.34 235.141 752.376C235.022 752.409 234.885 752.438 234.729 752.464C234.575 752.488 234.424 752.509 234.278 752.528C234.133 752.545 234.016 752.559 233.926 752.571C233.708 752.599 233.505 752.646 233.315 752.71C233.128 752.771 232.977 752.865 232.861 752.99C232.747 753.113 232.69 753.281 232.69 753.494C232.69 753.786 232.798 754.006 233.013 754.155C233.231 754.302 233.507 754.375 233.841 754.375Z" fill="white"/>
<path d="M194.433 749.413C194.793 748.581 195.615 748 196.571 748C197.86 748 198.788 749.075 198.904 750.355C198.904 750.355 198.967 750.673 198.829 751.246C198.64 752.025 198.196 752.718 197.598 753.246L194.433 756L191.32 753.246C190.722 752.718 190.279 752.025 190.09 751.246C189.951 750.673 190.014 750.355 190.014 750.355C190.131 749.075 191.059 748 192.347 748C193.304 748 194.073 748.581 194.433 749.413Z" fill="#F6CB63"/>
<path d="M119.7 709C119.7 709 120.912 709.244 123.541 709.922C126.025 710.562 126.896 710.818 126.896 710.818C126.896 710.818 127.024 713.379 125.897 718.014C124.988 721.756 121.595 723.827 119.7 725C117.805 723.827 114.413 721.756 113.503 718.014C112.376 713.379 112.504 710.818 112.504 710.818C112.504 710.818 113.375 710.562 115.859 709.922C118.489 709.244 119.7 709 119.7 709Z" fill="#F9FAFB"/>
<g clip-path="url(#clip0_37_2180)">
<path d="M120 713.75C119.357 713.75 118.729 713.941 118.194 714.298C117.66 714.655 117.243 715.162 116.997 715.756C116.751 716.35 116.687 717.004 116.812 717.634C116.938 718.264 117.247 718.844 117.702 719.298C118.156 719.753 118.735 720.062 119.366 720.188C119.996 720.313 120.65 720.249 121.244 720.003C121.838 719.757 122.345 719.34 122.702 718.806C123.059 718.271 123.25 717.643 123.25 717C123.249 716.138 122.906 715.312 122.297 714.703C121.688 714.094 120.862 713.751 120 713.75ZM121.427 716.427L119.677 718.177C119.654 718.2 119.626 718.219 119.596 718.231C119.565 718.244 119.533 718.25 119.5 718.25C119.467 718.25 119.435 718.244 119.404 718.231C119.374 718.219 119.346 718.2 119.323 718.177L118.573 717.427C118.526 717.38 118.5 717.316 118.5 717.25C118.5 717.184 118.526 717.12 118.573 717.073C118.62 717.026 118.684 717 118.75 717C118.816 717 118.88 717.026 118.927 717.073L119.5 717.647L121.073 716.073C121.096 716.05 121.124 716.031 121.154 716.019C121.185 716.006 121.217 716 121.25 716C121.283 716 121.315 716.006 121.346 716.019C121.376 716.031 121.404 716.05 121.427 716.073C121.45 716.096 121.468 716.124 121.481 716.154C121.494 716.185 121.5 716.217 121.5 716.25C121.5 716.283 121.494 716.315 121.481 716.346C121.468 716.376 121.45 716.404 121.427 716.427Z" fill="#12B76A"/>
</g>
<path d="M140.44 713.672V712.727H146.069V713.672H143.8V720H142.706V713.672H140.44ZM146.661 720V714.545H147.687V715.412H147.744C147.844 715.118 148.019 714.888 148.27 714.719C148.523 714.549 148.809 714.464 149.129 714.464C149.195 714.464 149.273 714.466 149.363 714.471C149.456 714.476 149.528 714.482 149.58 714.489V715.504C149.537 715.492 149.462 715.479 149.353 715.465C149.244 715.449 149.135 715.44 149.026 715.44C148.775 715.44 148.551 715.494 148.355 715.6C148.161 715.704 148.007 715.85 147.893 716.037C147.78 716.222 147.723 716.432 147.723 716.669V720H146.661ZM153.954 717.738V714.545H155.02V720H153.975V719.055H153.919C153.793 719.347 153.592 719.589 153.315 719.783C153.04 719.975 152.698 720.071 152.289 720.071C151.938 720.071 151.628 719.994 151.358 719.84C151.091 719.684 150.88 719.453 150.726 719.148C150.575 718.842 150.499 718.465 150.499 718.015V714.545H151.561V717.887C151.561 718.259 151.664 718.555 151.87 718.775C152.076 718.995 152.343 719.105 152.672 719.105C152.871 719.105 153.069 719.055 153.265 718.956C153.464 718.857 153.629 718.706 153.759 718.505C153.891 718.304 153.957 718.048 153.954 717.738ZM160.534 715.877L159.571 716.048C159.531 715.924 159.467 715.807 159.379 715.696C159.294 715.585 159.178 715.494 159.031 715.423C158.885 715.352 158.701 715.316 158.481 715.316C158.18 715.316 157.929 715.384 157.728 715.518C157.527 715.651 157.426 715.823 157.426 716.033C157.426 716.216 157.494 716.362 157.629 716.474C157.764 716.585 157.981 716.676 158.282 716.747L159.149 716.946C159.651 717.062 160.025 717.241 160.271 717.482C160.517 717.724 160.64 718.037 160.64 718.423C160.64 718.75 160.545 719.041 160.356 719.297C160.169 719.55 159.907 719.749 159.571 719.893C159.237 720.038 158.85 720.11 158.41 720.11C157.799 720.11 157.301 719.98 156.915 719.719C156.529 719.457 156.292 719.084 156.205 718.601L157.231 718.445C157.295 718.712 157.426 718.915 157.625 719.052C157.824 719.187 158.083 719.254 158.403 719.254C158.751 719.254 159.029 719.182 159.237 719.038C159.446 718.891 159.55 718.712 159.55 718.501C159.55 718.331 159.486 718.188 159.358 718.072C159.233 717.956 159.04 717.868 158.779 717.809L157.856 717.607C157.347 717.491 156.971 717.306 156.727 717.053C156.485 716.799 156.365 716.478 156.365 716.09C156.365 715.768 156.454 715.487 156.634 715.245C156.814 715.004 157.063 714.815 157.38 714.68C157.697 714.543 158.061 714.474 158.47 714.474C159.06 714.474 159.524 714.602 159.862 714.858C160.201 715.111 160.425 715.451 160.534 715.877ZM164.354 714.545V715.398H161.374V714.545H164.354ZM162.173 713.239H163.235V718.398C163.235 718.604 163.266 718.759 163.327 718.864C163.389 718.965 163.468 719.035 163.565 719.073C163.665 719.109 163.772 719.126 163.888 719.126C163.974 719.126 164.048 719.121 164.112 719.109C164.176 719.097 164.226 719.087 164.261 719.08L164.453 719.957C164.392 719.981 164.304 720.005 164.19 720.028C164.077 720.054 163.935 720.069 163.764 720.071C163.485 720.076 163.224 720.026 162.983 719.922C162.741 719.818 162.546 719.657 162.397 719.439C162.248 719.221 162.173 718.948 162.173 718.619V713.239ZM167.82 720.11C167.283 720.11 166.82 719.995 166.432 719.766C166.046 719.534 165.748 719.208 165.537 718.789C165.329 718.368 165.225 717.874 165.225 717.308C165.225 716.75 165.329 716.257 165.537 715.831C165.748 715.405 166.041 715.072 166.418 714.833C166.797 714.594 167.239 714.474 167.746 714.474C168.054 714.474 168.352 714.525 168.641 714.627C168.93 714.729 169.189 714.889 169.419 715.107C169.648 715.324 169.829 715.607 169.962 715.955C170.094 716.301 170.161 716.721 170.161 717.216V717.592H165.825V716.797H169.12C169.12 716.518 169.063 716.27 168.95 716.055C168.836 715.837 168.676 715.665 168.47 715.54C168.267 715.414 168.028 715.352 167.753 715.352C167.455 715.352 167.194 715.425 166.972 715.572C166.752 715.716 166.581 715.906 166.46 716.14C166.342 716.372 166.283 716.624 166.283 716.896V717.518C166.283 717.882 166.347 718.192 166.475 718.448C166.605 718.704 166.786 718.899 167.018 719.034C167.25 719.167 167.521 719.233 167.831 719.233C168.032 719.233 168.216 719.205 168.382 719.148C168.547 719.089 168.691 719.001 168.811 718.885C168.932 718.769 169.024 718.626 169.088 718.455L170.093 718.636C170.013 718.932 169.868 719.192 169.66 719.414C169.454 719.634 169.195 719.806 168.882 719.929C168.572 720.05 168.218 720.11 167.82 720.11ZM173.381 720.107C172.94 720.107 172.547 719.994 172.202 719.769C171.858 719.542 171.589 719.219 171.392 718.8C171.198 718.378 171.101 717.873 171.101 717.283C171.101 716.694 171.199 716.19 171.396 715.771C171.594 715.352 171.867 715.031 172.212 714.808C172.558 714.586 172.95 714.474 173.388 714.474C173.726 714.474 173.999 714.531 174.205 714.645C174.413 714.756 174.574 714.886 174.688 715.036C174.804 715.185 174.893 715.316 174.957 715.43H175.021V712.727H176.083V720H175.046V719.151H174.957C174.893 719.267 174.801 719.4 174.68 719.549C174.562 719.698 174.399 719.828 174.19 719.94C173.982 720.051 173.712 720.107 173.381 720.107ZM173.615 719.201C173.92 719.201 174.179 719.121 174.389 718.96C174.602 718.796 174.763 718.57 174.872 718.281C174.983 717.992 175.039 717.656 175.039 717.273C175.039 716.894 174.985 716.562 174.876 716.278C174.767 715.994 174.607 715.773 174.396 715.614C174.186 715.456 173.925 715.376 173.615 715.376C173.295 715.376 173.029 715.459 172.816 715.625C172.603 715.791 172.442 716.017 172.333 716.303C172.227 716.59 172.173 716.913 172.173 717.273C172.173 717.637 172.228 717.965 172.337 718.256C172.446 718.548 172.607 718.778 172.82 718.949C173.035 719.117 173.3 719.201 173.615 719.201ZM180.33 720V712.727H181.392V715.43H181.456C181.518 715.316 181.606 715.185 181.722 715.036C181.838 714.886 181.999 714.756 182.205 714.645C182.411 714.531 182.683 714.474 183.022 714.474C183.462 714.474 183.855 714.586 184.201 714.808C184.547 715.031 184.818 715.352 185.014 715.771C185.213 716.19 185.312 716.694 185.312 717.283C185.312 717.873 185.214 718.378 185.018 718.8C184.821 719.219 184.551 719.542 184.208 719.769C183.865 719.994 183.473 720.107 183.033 720.107C182.701 720.107 182.43 720.051 182.219 719.94C182.011 719.828 181.848 719.698 181.729 719.549C181.611 719.4 181.52 719.267 181.456 719.151H181.367V720H180.33ZM181.371 717.273C181.371 717.656 181.426 717.992 181.538 718.281C181.649 718.57 181.81 718.796 182.021 718.96C182.231 719.121 182.489 719.201 182.795 719.201C183.112 719.201 183.377 719.117 183.59 718.949C183.803 718.778 183.964 718.548 184.073 718.256C184.184 717.965 184.24 717.637 184.24 717.273C184.24 716.913 184.186 716.59 184.077 716.303C183.97 716.017 183.809 715.791 183.594 715.625C183.381 715.459 183.114 715.376 182.795 715.376C182.487 715.376 182.227 715.456 182.013 715.614C181.803 715.773 181.643 715.994 181.534 716.278C181.425 716.562 181.371 716.894 181.371 717.273ZM186.99 722.045C186.832 722.045 186.687 722.032 186.557 722.006C186.427 721.983 186.33 721.957 186.266 721.928L186.522 721.058C186.716 721.11 186.889 721.133 187.04 721.126C187.192 721.119 187.325 721.062 187.441 720.955C187.56 720.849 187.664 720.675 187.754 720.433L187.885 720.071L185.89 714.545H187.026L188.407 718.778H188.464L189.846 714.545H190.985L188.738 720.728C188.633 721.012 188.501 721.252 188.34 721.449C188.179 721.648 187.987 721.797 187.765 721.896C187.542 721.996 187.284 722.045 186.99 722.045ZM197.073 720.099C196.564 720.099 196.114 720.012 195.724 719.837C195.335 719.661 195.031 719.42 194.811 719.112C194.591 718.804 194.482 718.454 194.484 718.061C194.482 717.753 194.545 717.47 194.672 717.212C194.803 716.952 194.979 716.735 195.202 716.562C195.424 716.387 195.673 716.276 195.947 716.229V716.186C195.585 716.098 195.295 715.904 195.077 715.604C194.859 715.303 194.752 714.957 194.754 714.567C194.752 714.195 194.85 713.864 195.049 713.572C195.25 713.279 195.526 713.048 195.876 712.88C196.227 712.712 196.626 712.628 197.073 712.628C197.516 712.628 197.911 712.713 198.259 712.884C198.609 713.052 198.885 713.282 199.086 713.576C199.288 713.867 199.39 714.197 199.392 714.567C199.39 714.957 199.278 715.303 199.058 715.604C198.838 715.904 198.551 716.098 198.199 716.186V716.229C198.471 716.276 198.716 716.387 198.934 716.562C199.154 716.735 199.329 716.952 199.459 717.212C199.592 717.47 199.659 717.753 199.662 718.061C199.659 718.454 199.548 718.804 199.328 719.112C199.108 719.42 198.802 719.661 198.412 719.837C198.023 720.012 197.577 720.099 197.073 720.099ZM197.073 719.201C197.374 719.201 197.634 719.151 197.854 719.052C198.074 718.95 198.245 718.809 198.366 718.629C198.486 718.447 198.548 718.234 198.55 717.99C198.548 717.737 198.482 717.513 198.351 717.319C198.224 717.125 198.05 716.972 197.829 716.861C197.609 716.75 197.357 716.694 197.073 716.694C196.787 716.694 196.532 716.75 196.309 716.861C196.087 716.972 195.912 717.125 195.784 717.319C195.656 717.513 195.593 717.737 195.596 717.99C195.593 718.234 195.651 718.447 195.77 718.629C195.89 718.809 196.062 718.95 196.285 719.052C196.507 719.151 196.77 719.201 197.073 719.201ZM197.073 715.817C197.314 715.817 197.529 715.768 197.716 715.671C197.903 715.574 198.05 715.439 198.156 715.266C198.265 715.094 198.321 714.891 198.323 714.659C198.321 714.432 198.266 714.233 198.16 714.062C198.055 713.892 197.91 713.761 197.723 713.668C197.536 713.574 197.319 713.526 197.073 713.526C196.822 713.526 196.602 713.574 196.412 713.668C196.225 713.761 196.08 713.892 195.976 714.062C195.872 714.233 195.821 714.432 195.823 714.659C195.821 714.891 195.873 715.094 195.979 715.266C196.086 715.439 196.233 715.574 196.42 715.671C196.609 715.768 196.827 715.817 197.073 715.817ZM203.466 720.121C202.905 720.118 202.425 719.97 202.028 719.677C201.63 719.383 201.326 718.956 201.115 718.395C200.904 717.834 200.799 717.158 200.799 716.367C200.799 715.579 200.904 714.905 201.115 714.347C201.328 713.788 201.634 713.362 202.031 713.068C202.431 712.775 202.91 712.628 203.466 712.628C204.022 712.628 204.499 712.776 204.897 713.072C205.295 713.365 205.599 713.791 205.81 714.35C206.023 714.906 206.129 715.579 206.129 716.367C206.129 717.16 206.024 717.837 205.813 718.398C205.603 718.957 205.298 719.384 204.901 719.68C204.503 719.974 204.025 720.121 203.466 720.121ZM203.466 719.173C203.958 719.173 204.343 718.932 204.62 718.452C204.899 717.971 205.039 717.276 205.039 716.367C205.039 715.763 204.975 715.253 204.847 714.837C204.722 714.418 204.541 714.1 204.304 713.885C204.07 713.667 203.79 713.558 203.466 713.558C202.976 713.558 202.591 713.8 202.312 714.283C202.032 714.766 201.892 715.46 201.889 716.367C201.889 716.973 201.952 717.486 202.077 717.905C202.205 718.321 202.386 718.638 202.621 718.853C202.855 719.066 203.137 719.173 203.466 719.173ZM208.521 719.006L208.468 719.393C208.432 719.677 208.372 719.973 208.287 720.281C208.204 720.591 208.117 720.878 208.027 721.143C207.94 721.409 207.868 721.619 207.811 721.776H207.058C207.089 721.629 207.131 721.43 207.186 721.179C207.24 720.93 207.293 720.652 207.346 720.344C207.398 720.037 207.437 719.723 207.463 719.403L207.498 719.006H208.521ZM212.275 720.121C211.713 720.118 211.234 719.97 210.836 719.677C210.439 719.383 210.134 718.956 209.924 718.395C209.713 717.834 209.608 717.158 209.608 716.367C209.608 715.579 209.713 714.905 209.924 714.347C210.137 713.788 210.442 713.362 210.84 713.068C211.24 712.775 211.718 712.628 212.275 712.628C212.831 712.628 213.308 712.776 213.706 713.072C214.103 713.365 214.408 713.791 214.618 714.35C214.831 714.906 214.938 715.579 214.938 716.367C214.938 717.16 214.833 717.837 214.622 718.398C214.411 718.957 214.107 719.384 213.709 719.68C213.311 719.974 212.833 720.121 212.275 720.121ZM212.275 719.173C212.767 719.173 213.152 718.932 213.429 718.452C213.708 717.971 213.848 717.276 213.848 716.367C213.848 715.763 213.784 715.253 213.656 714.837C213.53 714.418 213.349 714.1 213.113 713.885C212.878 713.667 212.599 713.558 212.275 713.558C211.784 713.558 211.4 713.8 211.12 714.283C210.841 714.766 210.7 715.46 210.698 716.367C210.698 716.973 210.761 717.486 210.886 717.905C211.014 718.321 211.195 718.638 211.429 718.853C211.664 719.066 211.945 719.173 212.275 719.173ZM218.73 720.121C218.169 720.118 217.689 719.97 217.291 719.677C216.894 719.383 216.589 718.956 216.379 718.395C216.168 717.834 216.063 717.158 216.063 716.367C216.063 715.579 216.168 714.905 216.379 714.347C216.592 713.788 216.897 713.362 217.295 713.068C217.695 712.775 218.173 712.628 218.73 712.628C219.286 712.628 219.763 712.776 220.161 713.072C220.558 713.365 220.863 713.791 221.073 714.35C221.286 714.906 221.393 715.579 221.393 716.367C221.393 717.16 221.288 717.837 221.077 718.398C220.866 718.957 220.562 719.384 220.164 719.68C219.767 719.974 219.288 720.121 218.73 720.121ZM218.73 719.173C219.222 719.173 219.607 718.932 219.884 718.452C220.163 717.971 220.303 717.276 220.303 716.367C220.303 715.763 220.239 715.253 220.111 714.837C219.985 714.418 219.804 714.1 219.568 713.885C219.333 713.667 219.054 713.558 218.73 713.558C218.24 713.558 217.855 713.8 217.575 714.283C217.296 714.766 217.155 715.46 217.153 716.367C217.153 716.973 217.216 717.486 217.341 717.905C217.469 718.321 217.65 718.638 217.884 718.853C218.119 719.066 218.401 719.173 218.73 719.173ZM225.185 720.121C224.624 720.118 224.144 719.97 223.746 719.677C223.349 719.383 223.045 718.956 222.834 718.395C222.623 717.834 222.518 717.158 222.518 716.367C222.518 715.579 222.623 714.905 222.834 714.347C223.047 713.788 223.352 713.362 223.75 713.068C224.15 712.775 224.628 712.628 225.185 712.628C225.741 712.628 226.218 712.776 226.616 713.072C227.013 713.365 227.318 713.791 227.528 714.35C227.741 714.906 227.848 715.579 227.848 716.367C227.848 717.16 227.743 717.837 227.532 718.398C227.321 718.957 227.017 719.384 226.619 719.68C226.222 719.974 225.743 720.121 225.185 720.121ZM225.185 719.173C225.677 719.173 226.062 718.932 226.339 718.452C226.618 717.971 226.758 717.276 226.758 716.367C226.758 715.763 226.694 715.253 226.566 714.837C226.441 714.418 226.259 714.1 226.023 713.885C225.788 713.667 225.509 713.558 225.185 713.558C224.695 713.558 224.31 713.8 224.031 714.283C223.751 714.766 223.61 715.46 223.608 716.367C223.608 716.973 223.671 717.486 223.796 717.905C223.924 718.321 224.105 718.638 224.339 718.853C224.574 719.066 224.856 719.173 225.185 719.173ZM231.26 718.778V713.977H232.215V718.778H231.26ZM229.339 716.854V715.902H234.14V716.854H229.339ZM241.884 717.738V714.545H242.949V720H241.905V719.055H241.848C241.723 719.347 241.522 719.589 241.245 719.783C240.97 719.975 240.628 720.071 240.218 720.071C239.868 720.071 239.558 719.994 239.288 719.84C239.02 719.684 238.81 719.453 238.656 719.148C238.504 718.842 238.429 718.465 238.429 718.015V714.545H239.49V717.887C239.49 718.259 239.593 718.555 239.799 718.775C240.005 718.995 240.273 719.105 240.602 719.105C240.801 719.105 240.998 719.055 241.195 718.956C241.394 718.857 241.558 718.706 241.689 718.505C241.821 718.304 241.886 718.048 241.884 717.738ZM248.463 715.877L247.501 716.048C247.461 715.924 247.397 715.807 247.309 715.696C247.224 715.585 247.108 715.494 246.961 715.423C246.814 715.352 246.631 715.316 246.411 715.316C246.11 715.316 245.859 715.384 245.658 715.518C245.457 715.651 245.356 715.823 245.356 716.033C245.356 716.216 245.423 716.362 245.558 716.474C245.693 716.585 245.911 716.676 246.212 716.747L247.078 716.946C247.58 717.062 247.954 717.241 248.2 717.482C248.447 717.724 248.57 718.037 248.57 718.423C248.57 718.75 248.475 719.041 248.286 719.297C248.099 719.55 247.837 719.749 247.501 719.893C247.167 720.038 246.78 720.11 246.34 720.11C245.729 720.11 245.231 719.98 244.845 719.719C244.459 719.457 244.222 719.084 244.134 718.601L245.161 718.445C245.225 718.712 245.356 718.915 245.555 719.052C245.754 719.187 246.013 719.254 246.333 719.254C246.681 719.254 246.959 719.182 247.167 719.038C247.375 718.891 247.48 718.712 247.48 718.501C247.48 718.331 247.416 718.188 247.288 718.072C247.162 717.956 246.969 717.868 246.709 717.809L245.786 717.607C245.277 717.491 244.9 717.306 244.656 717.053C244.415 716.799 244.294 716.478 244.294 716.09C244.294 715.768 244.384 715.487 244.564 715.245C244.744 715.004 244.993 714.815 245.31 714.68C245.627 714.543 245.99 714.474 246.4 714.474C246.99 714.474 247.454 714.602 247.792 714.858C248.131 715.111 248.354 715.451 248.463 715.877ZM252.088 720.11C251.551 720.11 251.088 719.995 250.7 719.766C250.314 719.534 250.015 719.208 249.805 718.789C249.596 718.368 249.492 717.874 249.492 717.308C249.492 716.75 249.596 716.257 249.805 715.831C250.015 715.405 250.309 715.072 250.685 714.833C251.064 714.594 251.507 714.474 252.013 714.474C252.321 714.474 252.62 714.525 252.908 714.627C253.197 714.729 253.456 714.889 253.686 715.107C253.916 715.324 254.097 715.607 254.229 715.955C254.362 716.301 254.428 716.721 254.428 717.216V717.592H250.092V716.797H253.388C253.388 716.518 253.331 716.27 253.217 716.055C253.104 715.837 252.944 715.665 252.738 715.54C252.534 715.414 252.295 715.352 252.021 715.352C251.722 715.352 251.462 715.425 251.239 715.572C251.019 715.716 250.849 715.906 250.728 716.14C250.61 716.372 250.55 716.624 250.55 716.896V717.518C250.55 717.882 250.614 718.192 250.742 718.448C250.872 718.704 251.054 718.899 251.286 719.034C251.518 719.167 251.789 719.233 252.099 719.233C252.3 719.233 252.483 719.205 252.649 719.148C252.815 719.089 252.958 719.001 253.079 718.885C253.2 718.769 253.292 718.626 253.356 718.455L254.361 718.636C254.28 718.932 254.136 719.192 253.928 719.414C253.722 719.634 253.462 719.806 253.15 719.929C252.84 720.05 252.486 720.11 252.088 720.11ZM255.606 720V714.545H256.633V715.412H256.689C256.789 715.118 256.964 714.888 257.215 714.719C257.468 714.549 257.755 714.464 258.074 714.464C258.141 714.464 258.219 714.466 258.309 714.471C258.401 714.476 258.473 714.482 258.525 714.489V715.504C258.483 715.492 258.407 715.479 258.298 715.465C258.189 715.449 258.08 715.44 257.971 715.44C257.72 715.44 257.497 715.494 257.3 715.6C257.106 715.704 256.952 715.85 256.839 716.037C256.725 716.222 256.668 716.432 256.668 716.669V720H255.606ZM263.532 715.877L262.569 716.048C262.529 715.924 262.465 715.807 262.377 715.696C262.292 715.585 262.176 715.494 262.029 715.423C261.883 715.352 261.699 715.316 261.479 715.316C261.178 715.316 260.927 715.384 260.726 715.518C260.525 715.651 260.424 715.823 260.424 716.033C260.424 716.216 260.492 716.362 260.627 716.474C260.762 716.585 260.98 716.676 261.28 716.747L262.147 716.946C262.649 717.062 263.023 717.241 263.269 717.482C263.515 717.724 263.638 718.037 263.638 718.423C263.638 718.75 263.543 719.041 263.354 719.297C263.167 719.55 262.905 719.749 262.569 719.893C262.235 720.038 261.848 720.11 261.408 720.11C260.797 720.11 260.299 719.98 259.913 719.719C259.527 719.457 259.29 719.084 259.203 718.601L260.229 718.445C260.293 718.712 260.424 718.915 260.623 719.052C260.822 719.187 261.081 719.254 261.401 719.254C261.749 719.254 262.027 719.182 262.235 719.038C262.444 718.891 262.548 718.712 262.548 718.501C262.548 718.331 262.484 718.188 262.356 718.072C262.231 717.956 262.038 717.868 261.777 717.809L260.854 717.607C260.345 717.491 259.969 717.306 259.725 717.053C259.483 716.799 259.363 716.478 259.363 716.09C259.363 715.768 259.453 715.487 259.632 715.245C259.812 715.004 260.061 714.815 260.378 714.68C260.695 714.543 261.059 714.474 261.468 714.474C262.058 714.474 262.522 714.602 262.86 714.858C263.199 715.111 263.423 715.451 263.532 715.877Z" fill="#F9FAFB"/>
<defs>
<clipPath id="clip0_37_2180">
<rect width="8" height="8" fill="white" transform="translate(116 713)"/>
</clipPath>
</defs>
</svg>
