<svg width="20" height="20" viewBox="0 0 20 20" fill="none" xmlns="http://www.w3.org/2000/svg">
<path id="Vector" d="M9.75 0.25C7.82164 0.25 5.93657 0.821828 4.33319 1.89317C2.72982 2.96451 1.48013 4.48726 0.742179 6.26884C0.00422452 8.05042 -0.188858 10.0108 0.187348 11.9021C0.563554 13.7934 1.49215 15.5307 2.85571 16.8943C4.21928 18.2579 5.95656 19.1865 7.84787 19.5627C9.73919 19.9389 11.6996 19.7458 13.4812 19.0078C15.2627 18.2699 16.7855 17.0202 17.8568 15.4168C18.9282 13.8134 19.5 11.9284 19.5 10C19.4973 7.41498 18.4692 4.93661 16.6413 3.10872C14.8134 1.28084 12.335 0.25273 9.75 0.25ZM13.5516 10.6169L8.67657 13.9919C8.56402 14.0697 8.43233 14.1152 8.29576 14.1236C8.15918 14.1319 8.02293 14.1028 7.90174 14.0392C7.78056 13.9757 7.67907 13.8802 7.60825 13.7631C7.53744 13.6461 7.50001 13.5118 7.5 13.375V6.625C7.50001 6.48817 7.53744 6.35395 7.60825 6.23687C7.67907 6.11978 7.78056 6.02431 7.90174 5.96077C8.02293 5.89723 8.15918 5.86806 8.29576 5.8764C8.43233 5.88475 8.56402 5.9303 8.67657 6.00812L13.5516 9.38313C13.6513 9.45212 13.7329 9.5443 13.7892 9.65174C13.8456 9.75918 13.875 9.87869 13.875 10C13.875 10.1213 13.8456 10.2408 13.7892 10.3483C13.7329 10.4557 13.6513 10.5479 13.5516 10.6169Z" fill="#025ACE"/>
</svg>
