<svg width="8" height="8" viewBox="0 0 8 8" fill="none" xmlns="http://www.w3.org/2000/svg">
<g id="CheckCircle" clip-path="url(#clip0_37_2202)">
<path id="Vector" d="M3.99996 0.75C3.35717 0.75 2.72881 0.940609 2.19435 1.29772C1.65989 1.65484 1.24333 2.16242 0.997349 2.75628C0.751364 3.35014 0.687003 4.00361 0.812405 4.63404C0.937807 5.26448 1.24734 5.84358 1.70186 6.2981C2.15638 6.75262 2.73548 7.06215 3.36591 7.18755C3.99635 7.31295 4.64982 7.24859 5.24368 7.00261C5.83754 6.75662 6.34512 6.34006 6.70223 5.8056C7.05935 5.27114 7.24996 4.64279 7.24996 4C7.24905 3.13833 6.90635 2.3122 6.29705 1.70291C5.68775 1.09361 4.86163 0.75091 3.99996 0.75ZM5.42683 3.42688L3.67683 5.17688C3.65361 5.20012 3.62604 5.21856 3.59569 5.23114C3.56534 5.24372 3.53281 5.2502 3.49996 5.2502C3.4671 5.2502 3.43457 5.24372 3.40422 5.23114C3.37387 5.21856 3.3463 5.20012 3.32308 5.17688L2.57308 4.42688C2.52617 4.37996 2.49982 4.31634 2.49982 4.25C2.49982 4.18366 2.52617 4.12004 2.57308 4.07312C2.61999 4.02621 2.68362 3.99986 2.74996 3.99986C2.8163 3.99986 2.87992 4.02621 2.92683 4.07312L3.49996 4.64656L5.07308 3.07312C5.09631 3.0499 5.12389 3.03147 5.15423 3.0189C5.18458 3.00633 5.21711 2.99986 5.24996 2.99986C5.28281 2.99986 5.31533 3.00633 5.34568 3.0189C5.37603 3.03147 5.4036 3.0499 5.42683 3.07312C5.45006 3.09635 5.46848 3.12393 5.48106 3.15428C5.49363 3.18462 5.5001 3.21715 5.5001 3.25C5.5001 3.28285 5.49363 3.31538 5.48106 3.34572C5.46848 3.37607 5.45006 3.40365 5.42683 3.42688Z" fill="#12B76A"/>
</g>
<defs>
<clipPath id="clip0_37_2202">
<rect width="8" height="8" fill="white"/>
</clipPath>
</defs>
</svg>
