<svg width="351" height="178" viewBox="0 0 351 178" fill="none" xmlns="http://www.w3.org/2000/svg">
<g clip-path="url(#clip0_414_5988)">
<rect width="351" height="178" rx="8" fill="url(#paint0_linear_414_5988)"/>
<path d="M24.3807 30.3636H26.375L29.4148 35.6534H29.5398L32.5795 30.3636H34.5739L30.3523 37.4318V42H28.6023V37.4318L24.3807 30.3636ZM38.3338 42.1761C37.5156 42.1761 36.8016 41.9886 36.1918 41.6136C35.5819 41.2386 35.1084 40.714 34.7713 40.0398C34.4342 39.3655 34.2656 38.5777 34.2656 37.6761C34.2656 36.7708 34.4342 35.9792 34.7713 35.3011C35.1084 34.6231 35.5819 34.0966 36.1918 33.7216C36.8016 33.3466 37.5156 33.1591 38.3338 33.1591C39.152 33.1591 39.866 33.3466 40.4759 33.7216C41.0857 34.0966 41.5592 34.6231 41.8963 35.3011C42.2334 35.9792 42.402 36.7708 42.402 37.6761C42.402 38.5777 42.2334 39.3655 41.8963 40.0398C41.5592 40.714 41.0857 41.2386 40.4759 41.6136C39.866 41.9886 39.152 42.1761 38.3338 42.1761ZM38.3395 40.75C38.8698 40.75 39.3092 40.6098 39.6577 40.3295C40.0062 40.0492 40.2637 39.6761 40.4304 39.2102C40.6009 38.7443 40.6861 38.2311 40.6861 37.6705C40.6861 37.1136 40.6009 36.6023 40.4304 36.1364C40.2637 35.6667 40.0062 35.2898 39.6577 35.0057C39.3092 34.7216 38.8698 34.5795 38.3395 34.5795C37.8054 34.5795 37.3622 34.7216 37.0099 35.0057C36.6615 35.2898 36.402 35.6667 36.2315 36.1364C36.0649 36.6023 35.9815 37.1136 35.9815 37.6705C35.9815 38.2311 36.0649 38.7443 36.2315 39.2102C36.402 39.6761 36.6615 40.0492 37.0099 40.3295C37.3622 40.6098 37.8054 40.75 38.3395 40.75ZM49.8267 38.3807V33.2727H51.5312V42H49.8608V40.4886H49.7699C49.5691 40.9545 49.2472 41.3428 48.804 41.6534C48.3646 41.9602 47.8172 42.1136 47.1619 42.1136C46.6013 42.1136 46.1051 41.9905 45.6733 41.7443C45.2453 41.4943 44.9081 41.125 44.6619 40.6364C44.4195 40.1477 44.2983 39.5436 44.2983 38.8239V33.2727H45.9972V38.6193C45.9972 39.214 46.1619 39.6875 46.4915 40.0398C46.821 40.392 47.2491 40.5682 47.7756 40.5682C48.0938 40.5682 48.41 40.4886 48.7244 40.3295C49.0426 40.1705 49.3059 39.9299 49.5142 39.608C49.7263 39.286 49.8305 38.8769 49.8267 38.3807ZM53.8139 42V33.2727H55.456V34.6591H55.5469C55.706 34.1894 55.9863 33.8201 56.3878 33.5511C56.7931 33.2784 57.2514 33.142 57.7628 33.142C57.8688 33.142 57.9938 33.1458 58.1378 33.1534C58.2855 33.161 58.401 33.1705 58.4844 33.1818V34.8068C58.4162 34.7879 58.295 34.767 58.1207 34.7443C57.9465 34.7178 57.7723 34.7045 57.598 34.7045C57.1965 34.7045 56.8385 34.7898 56.5241 34.9602C56.2135 35.1269 55.9673 35.3598 55.7855 35.6591C55.6037 35.9545 55.5128 36.2917 55.5128 36.6705V42H53.8139ZM64.3253 42V30.3636H68.5866C69.4124 30.3636 70.0961 30.5 70.6378 30.7727C71.1795 31.0417 71.5848 31.4072 71.8537 31.8693C72.1226 32.3277 72.2571 32.8447 72.2571 33.4205C72.2571 33.9053 72.1681 34.3144 71.9901 34.6477C71.812 34.9773 71.5734 35.2424 71.2741 35.4432C70.9787 35.6402 70.6529 35.7841 70.2969 35.875V35.9886C70.6832 36.0076 71.0601 36.1326 71.4276 36.3636C71.7988 36.5909 72.1056 36.9148 72.348 37.3352C72.5904 37.7557 72.7116 38.267 72.7116 38.8693C72.7116 39.464 72.5715 39.9981 72.2912 40.4716C72.0147 40.9413 71.5866 41.3144 71.0071 41.5909C70.4276 41.8636 69.687 42 68.7855 42H64.3253ZM66.081 40.4943H68.6151C69.456 40.4943 70.0582 40.3314 70.4219 40.0057C70.7855 39.6799 70.9673 39.2727 70.9673 38.7841C70.9673 38.4167 70.8745 38.0795 70.6889 37.7727C70.5033 37.4659 70.2382 37.2216 69.8935 37.0398C69.5526 36.858 69.1473 36.767 68.6776 36.767H66.081V40.4943ZM66.081 35.3977H68.4332C68.8272 35.3977 69.1813 35.322 69.4957 35.1705C69.8139 35.0189 70.0658 34.8068 70.2514 34.5341C70.4408 34.2576 70.5355 33.9318 70.5355 33.5568C70.5355 33.0758 70.367 32.6723 70.0298 32.3466C69.6927 32.0208 69.1757 31.858 68.4787 31.858H66.081V35.3977ZM77.1974 42.1932C76.6444 42.1932 76.1444 42.0909 75.6974 41.8864C75.2505 41.678 74.8963 41.3769 74.6349 40.983C74.3774 40.589 74.2486 40.1061 74.2486 39.5341C74.2486 39.0417 74.3433 38.6364 74.5327 38.3182C74.7221 38 74.9777 37.7481 75.2997 37.5625C75.6217 37.3769 75.9815 37.2367 76.3793 37.142C76.777 37.0473 77.1823 36.9754 77.5952 36.9261C78.1179 36.8655 78.5421 36.8163 78.8679 36.7784C79.1937 36.7367 79.4304 36.6705 79.5781 36.5795C79.7259 36.4886 79.7997 36.3409 79.7997 36.1364V36.0966C79.7997 35.6004 79.6596 35.2159 79.3793 34.9432C79.1027 34.6705 78.6899 34.5341 78.1406 34.5341C77.5687 34.5341 77.1179 34.661 76.7884 34.9148C76.4626 35.1648 76.2372 35.4432 76.1122 35.75L74.5156 35.3864C74.705 34.8561 74.9815 34.428 75.3452 34.1023C75.7126 33.7727 76.1349 33.5341 76.6122 33.3864C77.0895 33.2348 77.5914 33.1591 78.1179 33.1591C78.4664 33.1591 78.8357 33.2008 79.2259 33.2841C79.6198 33.3636 79.9872 33.5114 80.3281 33.7273C80.6728 33.9432 80.955 34.2519 81.1747 34.6534C81.3944 35.0511 81.5043 35.5682 81.5043 36.2045V42H79.8452V40.8068H79.777C79.6671 41.0265 79.5024 41.2424 79.2827 41.4545C79.063 41.6667 78.7808 41.8428 78.4361 41.983C78.0914 42.1231 77.6785 42.1932 77.1974 42.1932ZM77.5668 40.8295C78.0365 40.8295 78.438 40.7367 78.7713 40.5511C79.1084 40.3655 79.3641 40.1231 79.5384 39.8239C79.7164 39.5208 79.8054 39.197 79.8054 38.8523V37.7273C79.7448 37.7879 79.6274 37.8447 79.4531 37.8977C79.2827 37.947 79.0876 37.9905 78.8679 38.0284C78.6482 38.0625 78.4342 38.0947 78.2259 38.125C78.0175 38.1515 77.8433 38.1742 77.7031 38.1932C77.3736 38.2348 77.0724 38.3049 76.7997 38.4034C76.5308 38.5019 76.3149 38.6439 76.152 38.8295C75.9929 39.0114 75.9134 39.2538 75.9134 39.5568C75.9134 39.9773 76.0687 40.2955 76.3793 40.5114C76.6899 40.7235 77.0857 40.8295 77.5668 40.8295ZM85.4659 30.3636V42H83.767V30.3636H85.4659ZM90.2912 42.1932C89.7382 42.1932 89.2382 42.0909 88.7912 41.8864C88.3442 41.678 87.9901 41.3769 87.7287 40.983C87.4711 40.589 87.3423 40.1061 87.3423 39.5341C87.3423 39.0417 87.437 38.6364 87.6264 38.3182C87.8158 38 88.0715 37.7481 88.3935 37.5625C88.7154 37.3769 89.0753 37.2367 89.473 37.142C89.8707 37.0473 90.276 36.9754 90.6889 36.9261C91.2116 36.8655 91.6359 36.8163 91.9616 36.7784C92.2874 36.7367 92.5241 36.6705 92.6719 36.5795C92.8196 36.4886 92.8935 36.3409 92.8935 36.1364V36.0966C92.8935 35.6004 92.7533 35.2159 92.473 34.9432C92.1965 34.6705 91.7836 34.5341 91.2344 34.5341C90.6624 34.5341 90.2116 34.661 89.8821 34.9148C89.5563 35.1648 89.331 35.4432 89.206 35.75L87.6094 35.3864C87.7988 34.8561 88.0753 34.428 88.4389 34.1023C88.8063 33.7727 89.2287 33.5341 89.706 33.3864C90.1832 33.2348 90.6851 33.1591 91.2116 33.1591C91.5601 33.1591 91.9295 33.2008 92.3196 33.2841C92.7135 33.3636 93.081 33.5114 93.4219 33.7273C93.7666 33.9432 94.0488 34.2519 94.2685 34.6534C94.4882 35.0511 94.598 35.5682 94.598 36.2045V42H92.9389V40.8068H92.8707C92.7609 41.0265 92.5961 41.2424 92.3764 41.4545C92.1567 41.6667 91.8745 41.8428 91.5298 41.983C91.1851 42.1231 90.7723 42.1932 90.2912 42.1932ZM90.6605 40.8295C91.1302 40.8295 91.5317 40.7367 91.8651 40.5511C92.2022 40.3655 92.4579 40.1231 92.6321 39.8239C92.8101 39.5208 92.8991 39.197 92.8991 38.8523V37.7273C92.8385 37.7879 92.7211 37.8447 92.5469 37.8977C92.3764 37.947 92.1813 37.9905 91.9616 38.0284C91.742 38.0625 91.5279 38.0947 91.3196 38.125C91.1113 38.1515 90.937 38.1742 90.7969 38.1932C90.4673 38.2348 90.1662 38.3049 89.8935 38.4034C89.6245 38.5019 89.4086 38.6439 89.2457 38.8295C89.0866 39.0114 89.0071 39.2538 89.0071 39.5568C89.0071 39.9773 89.1624 40.2955 89.473 40.5114C89.7836 40.7235 90.1795 40.8295 90.6605 40.8295ZM98.5597 36.8182V42H96.8608V33.2727H98.4915V34.6932H98.5994C98.8002 34.2311 99.1146 33.8598 99.5426 33.5795C99.9744 33.2992 100.518 33.1591 101.173 33.1591C101.768 33.1591 102.289 33.2841 102.736 33.5341C103.183 33.7803 103.529 34.1477 103.776 34.6364C104.022 35.125 104.145 35.7292 104.145 36.4489V42H102.446V36.6534C102.446 36.0208 102.281 35.5265 101.952 35.1705C101.622 34.8106 101.17 34.6307 100.594 34.6307C100.2 34.6307 99.8494 34.7159 99.5426 34.8864C99.2396 35.0568 98.9991 35.3068 98.821 35.6364C98.6468 35.9621 98.5597 36.3561 98.5597 36.8182ZM110.099 42.1761C109.255 42.1761 108.527 41.9848 107.918 41.6023C107.312 41.2159 106.846 40.6837 106.52 40.0057C106.194 39.3277 106.031 38.5511 106.031 37.6761C106.031 36.7898 106.198 36.0076 106.531 35.3295C106.865 34.6477 107.334 34.1155 107.94 33.733C108.546 33.3504 109.26 33.1591 110.082 33.1591C110.745 33.1591 111.336 33.2822 111.855 33.5284C112.374 33.7708 112.793 34.1117 113.111 34.5511C113.433 34.9905 113.624 35.5038 113.685 36.0909H112.031C111.94 35.6818 111.732 35.3295 111.406 35.0341C111.084 34.7386 110.652 34.5909 110.111 34.5909C109.637 34.5909 109.223 34.7159 108.866 34.9659C108.514 35.2121 108.24 35.5644 108.043 36.0227C107.846 36.4773 107.747 37.0152 107.747 37.6364C107.747 38.2727 107.844 38.822 108.037 39.2841C108.23 39.7462 108.503 40.1042 108.855 40.358C109.211 40.6117 109.63 40.7386 110.111 40.7386C110.433 40.7386 110.724 40.6799 110.986 40.5625C111.251 40.4413 111.473 40.2689 111.651 40.0455C111.832 39.822 111.959 39.553 112.031 39.2386H113.685C113.624 39.803 113.44 40.3068 113.134 40.75C112.827 41.1932 112.416 41.5417 111.901 41.7955C111.389 42.0492 110.789 42.1761 110.099 42.1761ZM119.263 42.1761C118.403 42.1761 117.662 41.9924 117.041 41.625C116.424 41.2538 115.946 40.733 115.609 40.0625C115.276 39.3883 115.109 38.5985 115.109 37.6932C115.109 36.7992 115.276 36.0114 115.609 35.3295C115.946 34.6477 116.416 34.1155 117.018 33.733C117.625 33.3504 118.333 33.1591 119.143 33.1591C119.636 33.1591 120.113 33.2405 120.575 33.4034C121.037 33.5663 121.452 33.822 121.82 34.1705C122.187 34.5189 122.477 34.9716 122.689 35.5284C122.901 36.0814 123.007 36.7538 123.007 37.5455V38.1477H116.07V36.875H121.342C121.342 36.428 121.251 36.0322 121.07 35.6875C120.888 35.339 120.632 35.0644 120.303 34.8636C119.977 34.6629 119.594 34.5625 119.155 34.5625C118.678 34.5625 118.261 34.6799 117.905 34.9148C117.553 35.1458 117.28 35.4489 117.087 35.8239C116.897 36.1951 116.803 36.5985 116.803 37.0341V38.0284C116.803 38.6117 116.905 39.108 117.109 39.517C117.318 39.9261 117.607 40.2386 117.979 40.4545C118.35 40.6667 118.784 40.7727 119.28 40.7727C119.602 40.7727 119.895 40.7273 120.161 40.6364C120.426 40.5417 120.655 40.4015 120.848 40.2159C121.041 40.0303 121.189 39.8011 121.291 39.5284L122.899 39.8182C122.77 40.2917 122.539 40.7064 122.206 41.0625C121.876 41.4148 121.462 41.6894 120.962 41.8864C120.465 42.0795 119.899 42.1761 119.263 42.1761ZM126.011 42.108C125.701 42.108 125.434 41.9981 125.21 41.7784C124.987 41.5549 124.875 41.286 124.875 40.9716C124.875 40.661 124.987 40.3958 125.21 40.1761C125.434 39.9527 125.701 39.8409 126.011 39.8409C126.322 39.8409 126.589 39.9527 126.812 40.1761C127.036 40.3958 127.148 40.661 127.148 40.9716C127.148 41.1799 127.095 41.3712 126.989 41.5455C126.886 41.7159 126.75 41.8523 126.58 41.9545C126.409 42.0568 126.22 42.108 126.011 42.108ZM126.011 35.7557C125.701 35.7557 125.434 35.6439 125.21 35.4205C124.987 35.197 124.875 34.9299 124.875 34.6193C124.875 34.3087 124.987 34.0436 125.21 33.8239C125.434 33.6004 125.701 33.4886 126.011 33.4886C126.322 33.4886 126.589 33.6004 126.812 33.8239C127.036 34.0436 127.148 34.3087 127.148 34.6193C127.148 34.8277 127.095 35.0189 126.989 35.1932C126.886 35.3636 126.75 35.5 126.58 35.6023C126.409 35.7045 126.22 35.7557 126.011 35.7557Z" fill="#F9FAFB"/>
<path d="M32.8317 92.7273V65.4545H34.5788V92.7273H32.8317ZM38.2969 73.9134C38.1832 72.9048 37.7145 72.1236 36.8906 71.5696C36.0668 71.0085 35.0298 70.728 33.7798 70.728C32.8849 70.728 32.1108 70.87 31.4574 71.1541C30.804 71.4311 30.2962 71.8146 29.9339 72.3047C29.5788 72.7876 29.4013 73.3381 29.4013 73.956C29.4013 74.4744 29.522 74.9219 29.7635 75.2983C30.0121 75.6747 30.3352 75.9908 30.733 76.2464C31.1378 76.495 31.571 76.7045 32.0327 76.875C32.4943 77.0384 32.9382 77.1733 33.3643 77.2798L35.495 77.8338C36.1911 78.0043 36.9048 78.2351 37.6364 78.5263C38.3679 78.8175 39.0462 79.201 39.6712 79.6768C40.2962 80.1527 40.8004 80.7422 41.1839 81.4453C41.5746 82.1484 41.7699 82.9901 41.7699 83.9702C41.7699 85.206 41.4503 86.3033 40.8111 87.2621C40.179 88.2209 39.2592 88.9773 38.0518 89.5312C36.8516 90.0852 35.3991 90.3622 33.6946 90.3622C32.0611 90.3622 30.6477 90.103 29.4545 89.5845C28.2614 89.0661 27.3274 88.331 26.6527 87.3793C25.978 86.4205 25.6051 85.2841 25.5341 83.9702H28.8366C28.9006 84.7585 29.1563 85.4155 29.6037 85.9411C30.0582 86.4595 30.6371 86.8466 31.3402 87.1023C32.0504 87.3509 32.8281 87.4751 33.6733 87.4751C34.6037 87.4751 35.4311 87.3295 36.1555 87.0384C36.8871 86.7401 37.4624 86.3281 37.8814 85.8026C38.3004 85.2699 38.5099 84.6484 38.5099 83.9382C38.5099 83.2919 38.3253 82.7628 37.956 82.3509C37.5938 81.9389 37.1001 81.598 36.4751 81.3281C35.8572 81.0582 35.1577 80.8203 34.3764 80.6143L31.7983 79.9112C30.0511 79.4354 28.6662 78.7358 27.6435 77.8125C26.6278 76.8892 26.12 75.6676 26.12 74.1477C26.12 72.8906 26.4609 71.7933 27.1428 70.8558C27.8246 69.9183 28.7479 69.1903 29.9126 68.6719C31.0774 68.1463 32.3913 67.8835 33.8544 67.8835C35.3317 67.8835 36.6349 68.1428 37.7642 68.6612C38.9006 69.1797 39.7955 69.8935 40.4489 70.8026C41.1023 71.7045 41.4432 72.7415 41.4716 73.9134H38.2969ZM53.3448 90V87.6136L60.7276 79.9645C61.516 79.1335 62.1658 78.4055 62.6772 77.7805C63.1957 77.1484 63.5827 76.5483 63.8384 75.9801C64.0941 75.4119 64.2219 74.8082 64.2219 74.169C64.2219 73.4446 64.0515 72.8196 63.7106 72.294C63.3697 71.7614 62.9045 71.353 62.315 71.0689C61.7255 70.7777 61.0614 70.6321 60.3228 70.6321C59.5415 70.6321 58.8597 70.7919 58.2773 71.1115C57.695 71.4311 57.2475 71.8821 56.935 72.4645C56.6225 73.0469 56.4663 73.7287 56.4663 74.5099H53.3235C53.3235 73.1818 53.6289 72.0206 54.2397 71.0263C54.8505 70.032 55.6886 69.2614 56.7539 68.7145C57.8192 68.1605 59.0302 67.8835 60.3867 67.8835C61.7575 67.8835 62.9648 68.157 64.0089 68.7038C65.06 69.2436 65.8803 69.9822 66.4698 70.9197C67.0593 71.8501 67.354 72.9013 67.354 74.0732C67.354 74.8828 67.2013 75.6747 66.896 76.4489C66.5977 77.223 66.0756 78.0859 65.3299 79.0376C64.5842 79.9822 63.5472 81.1293 62.2191 82.4787L57.8832 87.017V87.1768H67.7056V90H53.3448ZM79.1154 90.2983C77.5884 90.2983 76.239 90.0355 75.0671 89.5099C73.9023 88.9844 72.9897 88.2599 72.3292 87.3366C71.6687 86.4134 71.342 85.3622 71.3491 84.1832C71.342 83.2599 71.5302 82.4112 71.9137 81.6371C72.3043 80.8558 72.8335 80.206 73.5011 79.6875C74.1687 79.1619 74.9144 78.8281 75.7383 78.6861V78.5582C74.6516 78.2955 73.7816 77.7131 73.1282 76.8111C72.4748 75.9091 72.1516 74.8722 72.1587 73.7003C72.1516 72.5852 72.4464 71.5909 73.043 70.7173C73.6467 69.8366 74.4741 69.1442 75.5252 68.6399C76.5763 68.1357 77.7731 67.8835 79.1154 67.8835C80.4435 67.8835 81.6296 68.1392 82.6737 68.6506C83.7248 69.1548 84.5522 69.8473 85.1559 70.728C85.7596 71.6016 86.065 72.5923 86.0721 73.7003C86.065 74.8722 85.7312 75.9091 85.0707 76.8111C84.4102 77.7131 83.5508 78.2955 82.4925 78.5582V78.6861C83.3093 78.8281 84.0444 79.1619 84.6978 79.6875C85.3583 80.206 85.8839 80.8558 86.2745 81.6371C86.6722 82.4112 86.8746 83.2599 86.8817 84.1832C86.8746 85.3622 86.5408 86.4134 85.8803 87.3366C85.2198 88.2599 84.3036 88.9844 83.1317 89.5099C81.967 90.0355 80.6282 90.2983 79.1154 90.2983ZM79.1154 87.603C80.0174 87.603 80.7987 87.4538 81.4592 87.1555C82.1197 86.8501 82.631 86.4276 82.9933 85.8878C83.3555 85.3409 83.5401 84.7017 83.5472 83.9702C83.5401 83.2102 83.3413 82.5391 82.9506 81.9567C82.5671 81.3743 82.0451 80.9162 81.3846 80.5824C80.7241 80.2486 79.9677 80.0817 79.1154 80.0817C78.256 80.0817 77.4925 80.2486 76.8249 80.5824C76.1573 80.9162 75.6317 81.3743 75.2482 81.9567C74.8647 82.5391 74.6765 83.2102 74.6836 83.9702C74.6765 84.7017 74.8505 85.3409 75.2056 85.8878C75.5678 86.4276 76.0827 86.8501 76.7504 87.1555C77.418 87.4538 78.2063 87.603 79.1154 87.603ZM79.1154 77.4503C79.8398 77.4503 80.4826 77.3047 81.0437 77.0135C81.6048 76.7223 82.0451 76.3175 82.3647 75.799C82.6914 75.2805 82.8583 74.6733 82.8654 73.9773C82.8583 73.2955 82.695 72.6989 82.3754 72.1875C82.0629 71.6761 81.6261 71.282 81.065 71.005C80.5039 70.7209 79.854 70.5788 79.1154 70.5788C78.3626 70.5788 77.7021 70.7209 77.1339 71.005C76.5728 71.282 76.136 71.6761 75.8235 72.1875C75.511 72.6989 75.3583 73.2955 75.3654 73.9773C75.3583 74.6733 75.5146 75.2805 75.8342 75.799C76.1538 76.3175 76.5941 76.7223 77.1552 77.0135C77.7234 77.3047 78.3768 77.4503 79.1154 77.4503ZM97.9533 67.8835C98.9263 67.8906 99.8851 68.0682 100.83 68.4162C101.774 68.7642 102.627 69.3324 103.387 70.1207C104.154 70.9091 104.764 71.9744 105.219 73.3168C105.681 74.652 105.915 76.3139 105.922 78.3026C105.922 80.2131 105.73 81.9141 105.347 83.4055C104.963 84.8899 104.413 86.1435 103.695 87.1662C102.985 88.1889 102.122 88.9666 101.107 89.4993C100.091 90.032 98.9476 90.2983 97.6763 90.2983C96.3766 90.2983 95.2225 90.0426 94.214 89.5312C93.2054 89.0199 92.3851 88.3132 91.753 87.4112C91.1209 86.5021 90.7267 85.4581 90.5705 84.2791H93.8198C94.0328 85.2166 94.4661 85.9766 95.1195 86.5589C95.78 87.1342 96.6323 87.4219 97.6763 87.4219C99.2743 87.4219 100.521 86.7259 101.416 85.3338C102.311 83.9347 102.762 81.9815 102.769 79.4744H102.598C102.229 80.0852 101.767 80.6108 101.213 81.0511C100.666 81.4915 100.052 81.8324 99.3702 82.0739C98.6884 82.3153 97.9604 82.4361 97.1863 82.4361C95.9292 82.4361 94.7857 82.1271 93.7559 81.5092C92.726 80.8913 91.9057 80.0426 91.2949 78.9631C90.6841 77.8835 90.3787 76.6513 90.3787 75.2663C90.3787 73.8885 90.6912 72.6385 91.3162 71.5163C91.9483 70.3942 92.829 69.5064 93.9583 68.853C95.0946 68.1925 96.4263 67.8693 97.9533 67.8835ZM97.964 70.6534C97.133 70.6534 96.3837 70.8594 95.7161 71.2713C95.0556 71.6761 94.5336 72.2266 94.15 72.9226C93.7665 73.6115 93.5748 74.3786 93.5748 75.2237C93.5748 76.0689 93.7594 76.8359 94.1287 77.5249C94.5051 78.2067 95.0165 78.75 95.6628 79.1548C96.3162 79.5526 97.062 79.7514 97.9 79.7514C98.525 79.7514 99.1074 79.6307 99.6472 79.3892C100.187 79.1477 100.659 78.8139 101.064 78.3878C101.469 77.9545 101.785 77.4645 102.012 76.9176C102.24 76.3707 102.353 75.7955 102.353 75.1918C102.353 74.3892 102.161 73.6435 101.778 72.9545C101.401 72.2656 100.883 71.7116 100.222 71.2926C99.562 70.8665 98.8091 70.6534 97.964 70.6534ZM117.026 67.8835C117.999 67.8906 118.957 68.0682 119.902 68.4162C120.847 68.7642 121.699 69.3324 122.459 70.1207C123.226 70.9091 123.837 71.9744 124.291 73.3168C124.753 74.652 124.987 76.3139 124.994 78.3026C124.994 80.2131 124.803 81.9141 124.419 83.4055C124.036 84.8899 123.485 86.1435 122.768 87.1662C122.058 88.1889 121.195 88.9666 120.179 89.4993C119.163 90.032 118.02 90.2983 116.749 90.2983C115.449 90.2983 114.295 90.0426 113.286 89.5312C112.278 89.0199 111.457 88.3132 110.825 87.4112C110.193 86.5021 109.799 85.4581 109.643 84.2791H112.892C113.105 85.2166 113.538 85.9766 114.192 86.5589C114.852 87.1342 115.705 87.4219 116.749 87.4219C118.347 87.4219 119.593 86.7259 120.488 85.3338C121.383 83.9347 121.834 81.9815 121.841 79.4744H121.67C121.301 80.0852 120.839 80.6108 120.286 81.0511C119.739 81.4915 119.124 81.8324 118.442 82.0739C117.761 82.3153 117.033 82.4361 116.259 82.4361C115.001 82.4361 113.858 82.1271 112.828 81.5092C111.798 80.8913 110.978 80.0426 110.367 78.9631C109.756 77.8835 109.451 76.6513 109.451 75.2663C109.451 73.8885 109.763 72.6385 110.388 71.5163C111.021 70.3942 111.901 69.5064 113.031 68.853C114.167 68.1925 115.499 67.8693 117.026 67.8835ZM117.036 70.6534C116.205 70.6534 115.456 70.8594 114.788 71.2713C114.128 71.6761 113.606 72.2266 113.222 72.9226C112.839 73.6115 112.647 74.3786 112.647 75.2237C112.647 76.0689 112.832 76.8359 113.201 77.5249C113.577 78.2067 114.089 78.75 114.735 79.1548C115.388 79.5526 116.134 79.7514 116.972 79.7514C117.597 79.7514 118.18 79.6307 118.719 79.3892C119.259 79.1477 119.732 78.8139 120.136 78.3878C120.541 77.9545 120.857 77.4645 121.085 76.9176C121.312 76.3707 121.425 75.7955 121.425 75.1918C121.425 74.3892 121.234 73.6435 120.85 72.9545C120.474 72.2656 119.955 71.7116 119.295 71.2926C118.634 70.8665 117.881 70.6534 117.036 70.6534ZM136.439 90.3622C134.756 90.3551 133.317 89.9112 132.124 89.0305C130.931 88.1499 130.018 86.8679 129.386 85.1847C128.754 83.5014 128.438 81.4737 128.438 79.1016C128.438 76.7365 128.754 74.7159 129.386 73.0398C130.025 71.3636 130.942 70.0852 132.135 69.2045C133.335 68.3239 134.77 67.8835 136.439 67.8835C138.108 67.8835 139.539 68.3274 140.732 69.2152C141.925 70.0959 142.838 71.3743 143.47 73.0504C144.109 74.7195 144.429 76.7365 144.429 79.1016C144.429 81.4808 144.113 83.5121 143.481 85.1953C142.849 86.8714 141.936 88.1534 140.743 89.0412C139.55 89.9219 138.115 90.3622 136.439 90.3622ZM136.439 87.5178C137.916 87.5178 139.07 86.7969 139.901 85.3551C140.739 83.9134 141.158 81.8288 141.158 79.1016C141.158 77.2905 140.966 75.7599 140.583 74.5099C140.206 73.2528 139.663 72.3011 138.953 71.6548C138.25 71.0014 137.412 70.6747 136.439 70.6747C134.969 70.6747 133.814 71.3991 132.976 72.848C132.138 74.2969 131.716 76.3814 131.709 79.1016C131.709 80.9197 131.897 82.4574 132.273 83.7145C132.657 84.9645 133.2 85.9126 133.903 86.5589C134.606 87.1982 135.452 87.5178 136.439 87.5178Z" fill="white"/>
<g opacity="0.5">
<path opacity="0.25" d="M20.4183 142.922C10.566 133.862 4.58689 120.959 2.41405 105.424C1.49458 98.8669 1.14528 92.099 -1.40768 86.0198C-3.96064 79.9354 -9.40557 74.5447 -15.8419 74.5704C-23.7422 74.6064 -29.5416 82.5459 -31.6528 90.3826C-36.0909 106.863 -35.5207 126.031 -23.2696 139.114C-13.7307 149.305 0.667561 154.274 9.12262 165.374C17.3106 176.119 18.8002 191.232 28.3186 200.822C33.332 205.873 40.1074 208.833 46.9803 210.688C56.7144 213.309 67.291 213.864 76.7271 210.328C86.1684 206.793 94.2126 198.653 95.8666 188.704C100.202 162.625 66.8698 159.182 49.3432 156.329C37.4876 154.397 27.8511 149.752 20.4183 142.922Z" fill="white"/>
<path opacity="0.25" d="M343.8 135.083C331.548 138.629 318.862 130.554 310.459 120.937C302.057 111.321 295.714 99.6569 285.434 92.0872C263.598 76.0246 228.989 86.2075 215.825 109.936C202.661 133.672 209.751 165.493 228.92 184.682C248.079 203.872 276.928 211.259 303.864 208.41C327.534 205.91 350.743 195.762 366.931 178.28C383.119 160.798 391.582 135.737 386.968 112.331C384.266 98.6203 369.685 80.7546 362.899 98.3416C357.642 112.009 362.864 129.57 343.8 135.083Z" fill="#D0D5DD"/>
<path opacity="0.1" d="M194.193 11.1003C199.521 -0.0793958 194.777 -13.4614 183.597 -18.7893C172.417 -24.1172 159.035 -19.3734 153.708 -8.19375C148.38 2.98591 153.123 16.3679 164.303 21.6958C175.483 27.0237 188.865 22.2799 194.193 11.1003Z" fill="white"/>
</g>
</g>
<defs>
<linearGradient id="paint0_linear_414_5988" x1="351" y1="4.94055" x2="-1.69411e-05" y2="173.059" gradientUnits="userSpaceOnUse">
<stop stop-color="#025ACE"/>
<stop offset="1" stop-color="#012D68"/>
</linearGradient>
<clipPath id="clip0_414_5988">
<rect width="351" height="178" fill="white"/>
</clipPath>
</defs>
</svg>
