<svg width="351" height="178" viewBox="0 0 351 178" fill="none" xmlns="http://www.w3.org/2000/svg">
<g clip-path="url(#clip0_1088_5670)">
<rect width="351" height="178" rx="8" fill="url(#paint0_linear_1088_5670)"/>
<g opacity="0.5">
<path opacity="0.25" d="M20.4191 142.921C10.5668 133.861 4.58765 120.958 2.41481 105.423C1.49534 98.8659 1.14604 92.098 -1.40692 86.0188C-3.95987 79.9344 -9.40481 74.5437 -15.8411 74.5694C-23.7414 74.6054 -29.5408 82.5449 -31.652 90.3817C-36.0901 106.862 -35.52 126.03 -23.2688 139.113C-13.7299 149.304 0.668323 154.273 9.12338 165.373C17.3113 176.118 18.801 191.232 28.3193 200.821C33.3328 205.872 40.1081 208.832 46.9811 210.687C56.7152 213.308 67.2917 213.863 76.7279 210.327C86.1692 206.792 94.2133 198.652 95.8674 188.703C100.203 162.624 66.8705 159.181 49.344 156.328C37.4884 154.396 27.8519 149.751 20.4191 142.921Z" fill="white"/>
<path opacity="0.25" d="M343.801 135.082C331.549 138.628 318.863 130.553 310.461 120.936C302.058 111.32 295.715 99.6559 285.436 92.0863C263.6 76.0237 228.99 86.2065 215.826 109.935C202.662 133.671 209.753 165.492 228.921 184.681C248.081 203.871 276.929 211.258 303.865 208.409C327.535 205.909 350.744 195.761 366.932 178.279C383.12 160.797 391.583 135.736 386.969 112.33C384.267 98.6193 369.686 80.7536 362.9 98.3406C357.643 112.008 362.865 129.569 343.801 135.082Z" fill="#D0D5DD"/>
<path opacity="0.1" d="M194.193 11.1003C199.52 -0.0793958 194.777 -13.4614 183.597 -18.7893C172.417 -24.1172 159.035 -19.3734 153.707 -8.19375C148.38 2.98591 153.123 16.3679 164.303 21.6958C175.483 27.0237 188.865 22.2799 194.193 11.1003Z" fill="white"/>
</g>
</g>
<defs>
<linearGradient id="paint0_linear_1088_5670" x1="351" y1="4.94055" x2="-1.69411e-05" y2="173.059" gradientUnits="userSpaceOnUse">
<stop stop-color="#025ACE"/>
<stop offset="1" stop-color="#012D68"/>
</linearGradient>
<clipPath id="clip0_1088_5670">
<rect width="351" height="178" fill="white"/>
</clipPath>
</defs>
</svg>
