<svg width="24" height="24" viewBox="0 0 24 24" fill="none" xmlns="http://www.w3.org/2000/svg">
<g id="XCircle" clip-path="url(#clip0_513_11541)">
<path id="Vector" d="M12.4993 9.17157L12.4989 11.5002L14.8275 11.4997C14.8932 11.4997 14.9582 11.5127 15.0189 11.5378C15.0796 11.5629 15.1348 11.5998 15.1812 11.6462C15.2277 11.6927 15.2645 11.7479 15.2897 11.8086C15.3148 11.8692 15.3277 11.9343 15.3277 12C15.3277 12.0657 15.3148 12.1307 15.2897 12.1914C15.2645 12.2521 15.2277 12.3073 15.1812 12.3537C15.1348 12.4002 15.0796 12.4371 15.0189 12.4622C14.9582 12.4873 14.8932 12.5003 14.8275 12.5003L12.4989 12.4998L12.4993 14.8284C12.4993 14.8941 12.4864 14.9592 12.4612 15.0199C12.4361 15.0806 12.3992 15.1357 12.3528 15.1822C12.3063 15.2286 12.2512 15.2655 12.1905 15.2906C12.1298 15.3158 12.0647 15.3287 11.999 15.3287C11.9333 15.3287 11.8683 15.3158 11.8076 15.2906C11.7469 15.2655 11.6917 15.2286 11.6453 15.1822C11.5988 15.1357 11.562 15.0806 11.5368 15.0199C11.5117 14.9592 11.4988 14.8941 11.4988 14.8284L11.4992 12.4998L9.1706 12.5003C9.03792 12.5003 8.91067 12.4476 8.81685 12.3537C8.72303 12.2599 8.67033 12.1327 8.67033 12C8.67033 11.8673 8.72303 11.7401 8.81685 11.6462C8.91067 11.5524 9.03792 11.4997 9.1706 11.4997L11.4992 11.5002L11.4988 9.17157C11.4988 9.10587 11.5117 9.04082 11.5368 8.98012C11.562 8.91943 11.5988 8.86428 11.6453 8.81782C11.6917 8.77137 11.7469 8.73452 11.8076 8.70937C11.8683 8.68423 11.9333 8.67129 11.999 8.67129C12.0647 8.67129 12.1298 8.68423 12.1905 8.70937C12.2512 8.73452 12.3063 8.77137 12.3528 8.81782C12.3992 8.86428 12.4361 8.91943 12.4612 8.98012C12.4864 9.04082 12.4993 9.10587 12.4993 9.17157ZM16.5952 7.4038C17.5043 8.31285 18.1233 9.47103 18.3741 10.7319C18.6249 11.9928 18.4962 13.2997 18.0042 14.4874C17.5123 15.6752 16.6792 16.6903 15.6102 17.4045C14.5413 18.1188 13.2846 18.5 11.999 18.5C10.7135 18.5 9.45674 18.1188 8.38782 17.4046C7.3189 16.6903 6.48578 15.6752 5.99381 14.4874C5.50184 13.2997 5.37312 11.9928 5.62393 10.7319C5.87473 9.47103 6.4938 8.31285 7.40284 7.4038C8.62271 6.1865 10.2757 5.50284 11.999 5.50284C13.7224 5.50284 15.3753 6.1865 16.5952 7.4038ZM15.8881 8.11091C15.1189 7.34172 14.1389 6.8179 13.072 6.60568C12.0051 6.39346 10.8993 6.50238 9.89427 6.91866C8.88928 7.33494 8.0303 8.03989 7.42595 8.94436C6.8216 9.84883 6.49903 10.9122 6.49903 12C6.49903 13.0878 6.8216 14.1512 7.42595 15.0556C8.0303 15.9601 8.88928 16.6651 9.89427 17.0813C10.8993 17.4976 12.0051 17.6065 13.072 17.3943C14.1389 17.1821 15.1189 16.6583 15.8881 15.8891C16.918 14.8568 17.4964 13.4582 17.4964 12C17.4964 10.5418 16.918 9.14317 15.8881 8.11091Z" fill="#667085"/>
</g>
<defs>
<clipPath id="clip0_513_11541">
<rect width="16" height="16" fill="white" transform="translate(0.685547 12) rotate(-45)"/>
</clipPath>
</defs>
</svg>
