<svg width="106" height="103" viewBox="0 0 106 103" fill="none" xmlns="http://www.w3.org/2000/svg">
<g id="yaper-logo">
<g id="yaper-logo_2">
<g id="Group">
<path id="Vector" d="M66.5858 52.8812C66.9597 52.5239 67.4578 52.9361 67.1455 53.3483C66.2191 54.571 65.2561 55.769 64.2594 56.9507C63.2559 58.1293 62.2067 59.2856 61.1119 60.4197C60.0172 61.5539 58.9452 62.6435 57.7136 63.7109C57.5098 63.8954 57.2389 63.9874 56.9649 63.9651L56.8469 63.9555L49.7536 63.4441C47.3816 63.2884 45.0096 63.066 42.6604 62.8659L35.5671 62.2655L28.4739 61.6206L25.7574 61.3667C24.8253 61.2797 24.5132 60.0742 25.2859 59.5457L27.5844 57.9736C32.0775 54.8826 36.0461 51.0799 39.4217 46.8325C42.82 42.5851 45.6026 37.8485 47.9746 32.934C50.3238 27.9972 52.2169 22.8158 53.7678 17.5455C54.5205 14.8992 55.2047 12.2307 55.7977 9.53996C56.3679 6.8492 56.8469 4.09173 57.1662 1.44545L57.2304 0.93689C57.2968 0.411007 57.7619 0.0282781 58.2908 0.06446L58.6487 0.0889493C61.0435 0.244613 63.2559 0.600414 65.5139 1.06741C67.749 1.5344 69.9614 2.17929 72.1053 2.93537C74.2493 3.69145 76.3248 4.64767 78.2863 5.75955C78.8738 6.09263 78.4547 6.83945 77.8301 6.58234C76.8037 6.15983 75.7774 5.78179 74.7282 5.44823C73.6791 5.11466 72.6299 4.80333 71.5579 4.53648C69.4368 3.98054 67.2472 3.64697 65.0805 3.35788C63.2731 3.13529 62.4088 2.94446 60.9539 2.91309C60.4219 2.90162 59.9963 3.33221 59.9631 3.86334C59.921 4.53827 59.8601 4.8535 59.7435 5.89298C59.5838 7.31619 59.4013 8.71716 59.1961 10.1181C58.7627 12.9201 58.2381 15.722 57.5539 18.5017C56.2082 24.0389 54.3836 29.4871 51.9888 34.713C49.5712 39.9388 46.6061 44.9646 42.9113 49.5233C41.0638 51.7915 39.0339 53.9263 36.8672 55.9055C35.8238 56.7804 35.5642 56.9968 35.506 57.0444C34.9201 57.524 35.2061 58.462 35.9549 58.574L43.0025 59.5747C45.3517 59.9083 47.7009 60.2418 50.0501 60.6199L55.6825 61.5693C56.2144 61.659 56.761 61.5311 57.1931 61.2082C58.0835 60.5427 58.8785 59.9151 59.8119 59.1299C60.9751 58.1515 62.1155 57.1063 63.2559 56.0834C64.3735 55.0382 65.5139 53.9708 66.5858 52.8812Z" fill="white"/>
</g>
<g id="Group_2">
<path id="Vector_2" d="M47.4501 4.06961C45.6939 3.80276 43.9149 3.62486 42.1359 3.53591C41.7938 3.51367 41.3604 3.51367 40.9043 3.51367C35.1111 3.51367 31.1197 9.20652 33.3092 14.4546C34.3584 17.0119 35.2935 19.636 36.2058 22.26C37.0953 24.8841 37.9164 27.5526 38.6691 30.2656C39.0103 31.4957 39.3375 32.7303 39.6613 33.9758C39.933 35.0211 41.259 34.9324 41.2984 33.8531C41.3467 32.5285 41.3318 31.1992 41.2692 29.8653C41.1323 26.9744 40.699 24.0835 40.0604 21.2371C39.4217 18.3907 38.5778 15.5887 37.5287 12.8757C36.4567 10.0738 38.327 7.00498 41.3604 6.58247C41.6569 6.53799 41.9762 6.49352 42.2727 6.44905C43.9833 6.22667 45.6939 6.00429 47.4273 5.80415C47.5596 5.78887 47.6919 5.77373 47.8242 5.75871C48.9038 5.63618 49.0087 4.32228 47.9365 4.14643C47.7744 4.11984 47.6123 4.09425 47.4501 4.06961Z" fill="#F6CB63"/>
</g>
</g>
<g id="yaper-name">
<path id="Vector_3" d="M20.3513 76.5718L9.01712 102.266H3.96418L7.42586 94.4001L0 76.5718H5.36002L8.17961 84.4108L9.93837 89.5279L11.8646 84.5197L15.2705 76.5718H20.3513Z" fill="white"/>
<path id="Vector_4" d="M37.5203 76.5719H41.9312V94.6996H37.6041L37.3807 92.0594C36.3199 94.1825 33.4166 95.2168 31.3507 95.2712C25.8511 95.2984 21.7753 92.0049 21.7753 85.6358C21.7753 79.3754 26.0465 76.1092 31.4624 76.1364C33.947 76.1364 36.3199 77.2796 37.3807 79.076L37.5203 76.5719ZM26.3536 85.6085C26.3536 89.0653 28.8103 91.1339 31.8532 91.1339C39.0837 91.1339 39.0837 80.1376 31.8532 80.1376C28.8103 80.1376 26.3536 82.1517 26.3536 85.6085Z" fill="white"/>
<path id="Vector_5" d="M45.8112 102.266V76.5714H50.1103L50.4174 79.0755C51.8412 77.0613 54.3258 76.1631 56.4474 76.1631C62.1704 76.1631 65.995 80.3276 65.995 85.6625C65.995 90.9701 62.5612 95.1619 56.6149 95.1619C54.6608 95.1619 51.7574 94.563 50.4174 92.5761V102.266H45.8112ZM61.3887 85.6352C61.3887 82.8045 59.4345 80.4909 56.1124 80.4909C52.7903 80.4909 50.8362 82.8045 50.8362 85.6352C50.8362 88.466 52.9858 90.7796 56.1124 90.7796C59.2391 90.8068 61.3887 88.466 61.3887 85.6352Z" fill="white"/>
<path id="Vector_6" d="M73.3094 87.2142C73.6165 89.4462 75.5985 91.0793 78.8648 91.0793C80.5677 91.0793 82.8011 90.4533 83.834 89.3917L86.7653 92.2225C84.8111 94.2095 81.6007 95.1621 78.7811 95.1621C72.3602 95.1621 68.5635 91.297 68.5635 85.4994C68.5635 79.974 72.416 76 78.4461 76C84.6715 76 88.552 79.7562 87.8261 87.2142H73.3094ZM83.4153 83.5124C83.1082 81.1716 81.2377 79.974 78.5856 79.974C76.101 79.974 74.0631 81.1444 73.3931 83.5124H83.4153Z" fill="white"/>
<path id="Vector_7" d="M95.615 76.5715L95.95 78.6673C97.3737 76.4354 99.3 76.0815 101.198 76.0815C103.125 76.0815 104.967 76.8165 106 77.7963L103.934 81.6886C102.985 80.9265 102.12 80.5182 100.612 80.5182C98.2112 80.5182 95.9779 81.7703 95.9779 85.1182V94.6721H91.3716V76.5443H95.615V76.5715Z" fill="white"/>
</g>
</g>
</svg>
