<svg width="29" height="28" viewBox="0 0 29 28" fill="none" xmlns="http://www.w3.org/2000/svg">
<g id="ArrowRight">
<path id="Vector" d="M24.7441 14.6191L16.8691 22.4941C16.7467 22.6166 16.5907 22.7 16.4209 22.7339C16.2511 22.7677 16.075 22.7503 15.9151 22.6841C15.7551 22.6178 15.6184 22.5055 15.5222 22.3615C15.4261 22.2175 15.3749 22.0482 15.375 21.875V14.875H4.875C4.64294 14.875 4.42038 14.7828 4.25628 14.6187C4.09219 14.4546 4 14.2321 4 14C4 13.768 4.09219 13.5454 4.25628 13.3813C4.42038 13.2172 4.64294 13.125 4.875 13.125H15.375V6.12502C15.3749 5.95186 15.4261 5.78255 15.5222 5.63853C15.6184 5.49451 15.7551 5.38226 15.9151 5.31597C16.075 5.24969 16.2511 5.23236 16.4209 5.26618C16.5907 5.3 16.7467 5.38345 16.8691 5.50596L24.7441 13.381C24.8254 13.4622 24.89 13.5587 24.934 13.6649C24.978 13.7712 25.0007 13.885 25.0007 14C25.0007 14.115 24.978 14.2289 24.934 14.3351C24.89 14.4413 24.8254 14.5378 24.7441 14.6191Z" fill="#667085"/>
</g>
</svg>
