<svg width="29" height="28" viewBox="0 0 29 28" fill="none" xmlns="http://www.w3.org/2000/svg">
<g id="ArrowsLeftRight">
<path id="Vector" d="M5.13089 9.36908C5.04954 9.28782 4.985 9.19131 4.94097 9.08509C4.89693 8.97887 4.87427 8.86501 4.87427 8.75002C4.87427 8.63503 4.89693 8.52117 4.94097 8.41495C4.985 8.30872 5.04954 8.21222 5.13089 8.13095L8.63089 4.63096C8.75327 4.50845 8.90924 4.425 9.07906 4.39118C9.24889 4.35736 9.42493 4.37469 9.5849 4.44097C9.74487 4.50726 9.88157 4.61951 9.97771 4.76353C10.0738 4.90755 10.1251 5.07686 10.125 5.25002V7.87502H23.25C23.482 7.87502 23.7046 7.96721 23.8687 8.1313C24.0328 8.29539 24.125 8.51795 24.125 8.75002C24.125 8.98208 24.0328 9.20464 23.8687 9.36874C23.7046 9.53283 23.482 9.62502 23.25 9.62502H10.125V12.25C10.1251 12.4232 10.0738 12.5925 9.97771 12.7365C9.88157 12.8805 9.74487 12.9928 9.5849 13.0591C9.42493 13.1253 9.24889 13.1427 9.07906 13.1089C8.90924 13.075 8.75327 12.9916 8.63089 12.8691L5.13089 9.36908ZM23.869 18.631L20.369 15.131C20.2466 15.0084 20.0907 14.925 19.9209 14.8912C19.751 14.8574 19.575 14.8747 19.415 14.941C19.255 15.0073 19.1183 15.1195 19.0222 15.2635C18.9261 15.4076 18.8748 15.5769 18.875 15.75V18.375H5.74996C5.51789 18.375 5.29533 18.4672 5.13124 18.6313C4.96714 18.7954 4.87496 19.018 4.87496 19.25C4.87496 19.4821 4.96714 19.7046 5.13124 19.8687C5.29533 20.0328 5.51789 20.125 5.74996 20.125H18.875V22.75C18.8748 22.9232 18.9261 23.0925 19.0222 23.2365C19.1183 23.3805 19.255 23.4928 19.415 23.5591C19.575 23.6253 19.751 23.6427 19.9209 23.6089C20.0907 23.575 20.2466 23.4916 20.369 23.3691L23.869 19.8691C23.9504 19.7878 24.0149 19.6913 24.0589 19.5851C24.103 19.4789 24.1256 19.365 24.1256 19.25C24.1256 19.135 24.103 19.0212 24.0589 18.9149C24.0149 18.8087 23.9504 18.7122 23.869 18.631Z" fill="#667085"/>
</g>
</svg>
