<svg width="29" height="28" viewBox="0 0 29 28" fill="none" xmlns="http://www.w3.org/2000/svg">
<g id="CaretLeft">
<path id="Vector" d="M18.619 22.1309C18.7003 22.2122 18.7648 22.3087 18.8088 22.415C18.8528 22.5212 18.8754 22.635 18.8754 22.75C18.8754 22.865 18.8528 22.9788 18.8088 23.085C18.7648 23.1913 18.7003 23.2878 18.619 23.3691C18.5377 23.4504 18.4412 23.5148 18.335 23.5588C18.2288 23.6028 18.1149 23.6255 18 23.6255C17.885 23.6255 17.7711 23.6028 17.6649 23.5588C17.5587 23.5148 17.4622 23.4504 17.3809 23.3691L8.63089 14.6191C8.54954 14.5378 8.485 14.4413 8.44097 14.3351C8.39693 14.2288 8.37427 14.115 8.37427 14C8.37427 13.885 8.39693 13.7711 8.44097 13.6649C8.485 13.5587 8.54954 13.4622 8.63089 13.3809L17.3809 4.63094C17.5451 4.46675 17.7678 4.37451 18 4.37451C18.2321 4.37451 18.4548 4.46675 18.619 4.63094C18.7832 4.79512 18.8754 5.0178 18.8754 5.25C18.8754 5.48219 18.7832 5.70488 18.619 5.86906L10.487 14L18.619 22.1309Z" fill="#101828"/>
</g>
</svg>
