<svg width="29" height="28" viewBox="0 0 29 28" fill="none" xmlns="http://www.w3.org/2000/svg">
<g id="CaretCircleRight">
<path id="Vector" d="M14.5 2.625C12.2502 2.625 10.051 3.29213 8.18039 4.54203C6.30978 5.79193 4.85182 7.56847 3.99088 9.64698C3.12993 11.7255 2.90467 14.0126 3.34357 16.2192C3.78248 18.4257 4.86584 20.4525 6.45667 22.0433C8.04749 23.6342 10.0743 24.7175 12.2809 25.1564C14.4874 25.5953 16.7745 25.3701 18.853 24.5091C20.9315 23.6482 22.7081 22.1902 23.958 20.3196C25.2079 18.449 25.875 16.2498 25.875 14C25.8718 10.9841 24.6724 8.09271 22.5398 5.96018C20.4073 3.82764 17.5159 2.62818 14.5 2.625ZM14.5 23.625C12.5964 23.625 10.7355 23.0605 9.15264 22.0029C7.56982 20.9453 6.33616 19.4421 5.60766 17.6833C4.87917 15.9246 4.68856 13.9893 5.05995 12.1223C5.43133 10.2552 6.34802 8.54018 7.6941 7.1941C9.04018 5.84802 10.7552 4.93132 12.6223 4.55994C14.4893 4.18856 16.4246 4.37917 18.1833 5.10766C19.9421 5.83615 21.4453 7.06981 22.5029 8.65264C23.5605 10.2355 24.125 12.0964 24.125 14C24.1221 16.5518 23.1071 18.9983 21.3027 20.8027C19.4983 22.6071 17.0518 23.6221 14.5 23.625ZM17.7441 13.3809C17.8254 13.4622 17.89 13.5587 17.934 13.6649C17.978 13.7712 18.0007 13.885 18.0007 14C18.0007 14.115 17.978 14.2288 17.934 14.3351C17.89 14.4413 17.8254 14.5378 17.7441 14.6191L13.3691 18.9941C13.2878 19.0754 13.1913 19.1398 13.085 19.1838C12.9788 19.2278 12.865 19.2505 12.75 19.2505C12.635 19.2505 12.5212 19.2278 12.415 19.1838C12.3088 19.1398 12.2122 19.0754 12.1309 18.9941C12.0496 18.9128 11.9852 18.8163 11.9412 18.71C11.8972 18.6038 11.8745 18.49 11.8745 18.375C11.8745 18.26 11.8972 18.1462 11.9412 18.04C11.9852 17.9337 12.0496 17.8372 12.1309 17.7559L15.888 14L12.1309 10.2441C11.9668 10.0799 11.8745 9.85719 11.8745 9.625C11.8745 9.39281 11.9668 9.17012 12.1309 9.00594C12.2951 8.84175 12.5178 8.74951 12.75 8.74951C12.9822 8.74951 13.2049 8.84175 13.3691 9.00594L17.7441 13.3809Z" fill="#667085"/>
</g>
</svg>
