<svg width="21" height="20" viewBox="0 0 21 20" fill="none" xmlns="http://www.w3.org/2000/svg">
<g id="CaretCircleUp">
<path id="Vector" d="M10.5898 1.875C8.98287 1.875 7.41199 2.35152 6.07584 3.24431C4.73969 4.1371 3.69829 5.40605 3.08333 6.8907C2.46836 8.37535 2.30746 10.009 2.62097 11.5851C2.93447 13.1612 3.7083 14.6089 4.8446 15.7452C5.98091 16.8815 7.42864 17.6554 9.00474 17.9689C10.5808 18.2824 12.2145 18.1215 13.6992 17.5065C15.1838 16.8916 16.4528 15.8502 17.3455 14.514C18.2383 13.1779 18.7148 11.607 18.7148 10C18.7126 7.84581 17.8558 5.78051 16.3326 4.25727C14.8093 2.73403 12.744 1.87727 10.5898 1.875ZM10.5898 16.875C9.2301 16.875 7.90089 16.4718 6.7703 15.7164C5.63971 14.9609 4.75853 13.8872 4.23818 12.6309C3.71782 11.3747 3.58168 9.99237 3.84695 8.65875C4.11222 7.32513 4.767 6.10013 5.72849 5.13864C6.68997 4.17716 7.91498 3.52237 9.2486 3.2571C10.5822 2.99183 11.9646 3.12798 13.2208 3.64833C14.477 4.16868 15.5508 5.04987 16.3062 6.18045C17.0616 7.31104 17.4648 8.64025 17.4648 10C17.4628 11.8227 16.7378 13.5702 15.4489 14.8591C14.1601 16.1479 12.4126 16.8729 10.5898 16.875ZM14.157 10.8078C14.2151 10.8659 14.2612 10.9348 14.2926 11.0107C14.324 11.0866 14.3402 11.1679 14.3402 11.25C14.3402 11.3321 14.324 11.4134 14.2926 11.4893C14.2612 11.5652 14.2151 11.6341 14.157 11.6922C14.099 11.7503 14.03 11.7963 13.9542 11.8277C13.8783 11.8592 13.797 11.8753 13.7148 11.8753C13.6327 11.8753 13.5514 11.8592 13.4755 11.8277C13.3997 11.7963 13.3307 11.7503 13.2727 11.6922L10.5898 9.00859L7.90703 11.6922C7.84897 11.7503 7.78003 11.7963 7.70416 11.8277C7.62829 11.8592 7.54697 11.8753 7.46485 11.8753C7.38273 11.8753 7.30141 11.8592 7.22554 11.8277C7.14967 11.7963 7.08073 11.7503 7.02266 11.6922C6.96459 11.6341 6.91853 11.5652 6.8871 11.4893C6.85567 11.4134 6.8395 11.3321 6.8395 11.25C6.8395 11.1679 6.85567 11.0866 6.8871 11.0107C6.91853 10.9348 6.96459 10.8659 7.02266 10.8078L10.1477 7.68281C10.2057 7.6247 10.2746 7.5786 10.3505 7.54715C10.4264 7.5157 10.5077 7.49951 10.5898 7.49951C10.672 7.49951 10.7533 7.5157 10.8292 7.54715C10.9051 7.5786 10.974 7.6247 11.032 7.68281L14.157 10.8078Z" fill="#667085"/>
</g>
</svg>
