<svg width="29" height="28" viewBox="0 0 29 28" fill="none" xmlns="http://www.w3.org/2000/svg">
<g id="CaretRight">
<path id="Vector" d="M20.3691 14.6191L11.6191 23.3691C11.5378 23.4504 11.4413 23.5148 11.335 23.5588C11.2288 23.6028 11.115 23.6255 11 23.6255C10.885 23.6255 10.7712 23.6028 10.665 23.5588C10.5587 23.5148 10.4622 23.4504 10.3809 23.3691C10.2996 23.2878 10.2352 23.1913 10.1912 23.085C10.1472 22.9788 10.1245 22.865 10.1245 22.75C10.1245 22.635 10.1472 22.5212 10.1912 22.415C10.2352 22.3087 10.2996 22.2122 10.3809 22.1309L18.513 14L10.3809 5.86906C10.2167 5.70488 10.1245 5.48219 10.1245 5.25C10.1245 5.0178 10.2167 4.79512 10.3809 4.63094C10.5451 4.46675 10.7678 4.37451 11 4.37451C11.2322 4.37451 11.4549 4.46675 11.6191 4.63094L20.3691 13.3809C20.4504 13.4622 20.515 13.5587 20.559 13.6649C20.603 13.7711 20.6257 13.885 20.6257 14C20.6257 14.115 20.603 14.2288 20.559 14.3351C20.515 14.4413 20.4504 14.5378 20.3691 14.6191Z" fill="#667085"/>
</g>
</svg>
