<svg width="29" height="28" viewBox="0 0 29 28" fill="none" xmlns="http://www.w3.org/2000/svg">
<g id="CheckCircle">
<path id="Vector" d="M14.5 2.625C12.2502 2.625 10.051 3.29213 8.18039 4.54203C6.30978 5.79193 4.85182 7.56847 3.99088 9.64698C3.12993 11.7255 2.90467 14.0126 3.34357 16.2192C3.78248 18.4257 4.86584 20.4525 6.45667 22.0433C8.04749 23.6342 10.0743 24.7175 12.2809 25.1564C14.4874 25.5953 16.7745 25.3701 18.853 24.5091C20.9315 23.6482 22.7081 22.1902 23.958 20.3196C25.2079 18.449 25.875 16.2498 25.875 14C25.8718 10.9841 24.6724 8.09271 22.5398 5.96018C20.4073 3.82764 17.5159 2.62818 14.5 2.625ZM19.4941 11.9941L13.3691 18.1191C13.2878 18.2004 13.1913 18.265 13.0851 18.309C12.9789 18.353 12.865 18.3757 12.75 18.3757C12.635 18.3757 12.5212 18.353 12.4149 18.309C12.3087 18.265 12.2122 18.2004 12.1309 18.1191L9.50594 15.4941C9.34176 15.3299 9.24952 15.1072 9.24952 14.875C9.24952 14.6428 9.34176 14.4201 9.50594 14.2559C9.67013 14.0918 9.89281 13.9995 10.125 13.9995C10.3572 13.9995 10.5799 14.0918 10.7441 14.2559L12.75 16.263L18.2559 10.7559C18.3372 10.6746 18.4338 10.6102 18.54 10.5662C18.6462 10.5222 18.76 10.4995 18.875 10.4995C18.99 10.4995 19.1038 10.5222 19.21 10.5662C19.3163 10.6102 19.4128 10.6746 19.4941 10.7559C19.5754 10.8372 19.6399 10.9337 19.6838 11.04C19.7278 11.1462 19.7505 11.26 19.7505 11.375C19.7505 11.49 19.7278 11.6038 19.6838 11.71C19.6399 11.8163 19.5754 11.9128 19.4941 11.9941Z" fill="#667085"/>
</g>
</svg>
