<svg width="29" height="28" viewBox="0 0 29 28" fill="none" xmlns="http://www.w3.org/2000/svg">
<g id="CopySimple">
<path id="Vector" d="M21.5 7.875V23.625C21.5 23.8571 21.4078 24.0796 21.2437 24.2437C21.0796 24.4078 20.8571 24.5 20.625 24.5H4.875C4.64294 24.5 4.42038 24.4078 4.25628 24.2437C4.09219 24.0796 4 23.8571 4 23.625V7.875C4 7.64294 4.09219 7.42038 4.25628 7.25628C4.42038 7.09219 4.64294 7 4.875 7H20.625C20.8571 7 21.0796 7.09219 21.2437 7.25628C21.4078 7.42038 21.5 7.64294 21.5 7.875ZM24.125 3.5H8.375C8.14294 3.5 7.92038 3.59219 7.75628 3.75628C7.59219 3.92038 7.5 4.14294 7.5 4.375C7.5 4.60706 7.59219 4.82962 7.75628 4.99372C7.92038 5.15781 8.14294 5.25 8.375 5.25H23.25V20.125C23.25 20.3571 23.3422 20.5796 23.5063 20.7437C23.6704 20.9078 23.8929 21 24.125 21C24.3571 21 24.5796 20.9078 24.7437 20.7437C24.9078 20.5796 25 20.3571 25 20.125V4.375C25 4.14294 24.9078 3.92038 24.7437 3.75628C24.5796 3.59219 24.3571 3.5 24.125 3.5Z" fill="#667085"/>
</g>
</svg>
