<svg width="20" height="19" viewBox="0 0 20 19" fill="none" xmlns="http://www.w3.org/2000/svg">
<path id="Vector" d="M10.055 0C8.22662 0 6.4393 0.542177 4.91906 1.55797C3.39882 2.57376 2.21393 4.01755 1.51424 5.70675C0.814552 7.39595 0.631481 9.2547 0.98818 11.0479C1.34488 12.8412 2.22533 14.4884 3.51819 15.7813C4.81105 17.0741 6.45825 17.9546 8.25149 18.3113C10.0447 18.668 11.9035 18.4849 13.5927 17.7852C15.2819 17.0855 16.7257 15.9006 17.7415 14.3804C18.7573 12.8601 19.2994 11.0728 19.2994 9.24444C19.2969 6.79346 18.3221 4.4436 16.5889 2.71049C14.8558 0.977385 12.506 0.00258828 10.055 0ZM13.4026 11.5858C13.4686 11.6518 13.521 11.7303 13.5568 11.8166C13.5925 11.9029 13.6109 11.9955 13.6109 12.0889C13.6109 12.1823 13.5925 12.2748 13.5568 12.3612C13.521 12.4475 13.4686 12.5259 13.4026 12.592C13.3365 12.6581 13.258 12.7105 13.1717 12.7462C13.0854 12.782 12.9929 12.8004 12.8994 12.8004C12.806 12.8004 12.7135 12.782 12.6272 12.7462C12.5408 12.7105 12.4624 12.6581 12.3963 12.592L10.055 10.2498L7.71366 12.592C7.64759 12.6581 7.56916 12.7105 7.48283 12.7462C7.39651 12.782 7.30399 12.8004 7.21055 12.8004C7.11711 12.8004 7.02459 12.782 6.93827 12.7462C6.85195 12.7105 6.77351 12.6581 6.70744 12.592C6.64137 12.5259 6.58896 12.4475 6.5532 12.3612C6.51745 12.2748 6.49904 12.1823 6.49904 12.0889C6.49904 11.9955 6.51745 11.9029 6.5532 11.8166C6.58896 11.7303 6.64137 11.6518 6.70744 11.5858L9.04966 9.24444L6.70744 6.90311C6.57401 6.76968 6.49904 6.5887 6.49904 6.4C6.49904 6.2113 6.57401 6.03032 6.70744 5.89689C6.84087 5.76346 7.02185 5.68849 7.21055 5.68849C7.39925 5.68849 7.58023 5.76346 7.71366 5.89689L10.055 8.23911L12.3963 5.89689C12.4624 5.83082 12.5408 5.77841 12.6272 5.74265C12.7135 5.7069 12.806 5.68849 12.8994 5.68849C12.9929 5.68849 13.0854 5.7069 13.1717 5.74265C13.258 5.77841 13.3365 5.83082 13.4026 5.89689C13.4686 5.96296 13.521 6.04139 13.5568 6.12772C13.5925 6.21404 13.6109 6.30656 13.6109 6.4C13.6109 6.49344 13.5925 6.58596 13.5568 6.67228C13.521 6.75861 13.4686 6.83704 13.4026 6.90311L11.0603 9.24444L13.4026 11.5858Z" fill="#667085"/>
</svg>
