<svg width="29" height="28" viewBox="0 0 29 28" fill="none" xmlns="http://www.w3.org/2000/svg">
<g id="FunnelSimple">
<path id="Vector" d="M22.375 14.875C22.375 15.1071 22.2828 15.3296 22.1187 15.4937C21.9546 15.6578 21.7321 15.75 21.5 15.75H7.5C7.26794 15.75 7.04538 15.6578 6.88128 15.4937C6.71719 15.3296 6.625 15.1071 6.625 14.875C6.625 14.6429 6.71719 14.4204 6.88128 14.2563C7.04538 14.0922 7.26794 14 7.5 14H21.5C21.7321 14 21.9546 14.0922 22.1187 14.2563C22.2828 14.4204 22.375 14.6429 22.375 14.875ZM25.875 8.75H3.125C2.89294 8.75 2.67038 8.84219 2.50628 9.00628C2.34219 9.17038 2.25 9.39294 2.25 9.625C2.25 9.85706 2.34219 10.0796 2.50628 10.2437C2.67038 10.4078 2.89294 10.5 3.125 10.5H25.875C26.1071 10.5 26.3296 10.4078 26.4937 10.2437C26.6578 10.0796 26.75 9.85706 26.75 9.625C26.75 9.39294 26.6578 9.17038 26.4937 9.00628C26.3296 8.84219 26.1071 8.75 25.875 8.75ZM17.125 19.25H11.875C11.6429 19.25 11.4204 19.3422 11.2563 19.5063C11.0922 19.6704 11 19.8929 11 20.125C11 20.3571 11.0922 20.5796 11.2563 20.7437C11.4204 20.9078 11.6429 21 11.875 21H17.125C17.3571 21 17.5796 20.9078 17.7437 20.7437C17.9078 20.5796 18 20.3571 18 20.125C18 19.8929 17.9078 19.6704 17.7437 19.5063C17.5796 19.3422 17.3571 19.25 17.125 19.25Z" fill="#667085"/>
</g>
</svg>
