<svg width="29" height="28" viewBox="0 0 29 28" fill="none" xmlns="http://www.w3.org/2000/svg">
<g id="Gift">
<path id="Vector" d="M24.125 7.875H20.2881C20.3308 7.83891 20.3745 7.80391 20.4161 7.76563C20.7483 7.47051 21.016 7.11002 21.2025 6.70671C21.389 6.30341 21.4903 5.86596 21.5 5.42172C21.5144 4.93574 21.4293 4.45195 21.2499 4.00005C21.0705 3.54815 20.8007 3.13768 20.4569 2.79384C20.1132 2.45 19.7028 2.18004 19.251 2.00054C18.7991 1.82103 18.3154 1.73578 17.8294 1.75C17.385 1.75957 16.9473 1.86078 16.5438 2.04729C16.1403 2.2338 15.7796 2.50159 15.4844 2.83391C15.0758 3.30739 14.7437 3.84173 14.5 4.41766C14.2563 3.84173 13.9242 3.30739 13.5156 2.83391C13.2204 2.50159 12.8597 2.2338 12.4562 2.04729C12.0527 1.86078 11.615 1.75957 11.1706 1.75C10.6846 1.73578 10.2009 1.82103 9.74903 2.00054C9.29718 2.18004 8.88679 2.45 8.54305 2.79384C8.19931 3.13768 7.92948 3.54815 7.75011 4.00005C7.57074 4.45195 7.48563 4.93574 7.5 5.42172C7.50972 5.86596 7.611 6.30341 7.79751 6.70671C7.98401 7.11002 8.25172 7.47051 8.58391 7.76563C8.62547 7.80172 8.66922 7.83672 8.71187 7.875H4.875C4.41087 7.875 3.96575 8.05938 3.63756 8.38756C3.30937 8.71575 3.125 9.16087 3.125 9.625V13.125C3.125 13.5891 3.30937 14.0342 3.63756 14.3624C3.96575 14.6906 4.41087 14.875 4.875 14.875V21.875C4.875 22.3391 5.05937 22.7842 5.38756 23.1124C5.71575 23.4406 6.16087 23.625 6.625 23.625H22.375C22.8391 23.625 23.2842 23.4406 23.6124 23.1124C23.9406 22.7842 24.125 22.3391 24.125 21.875V14.875C24.5891 14.875 25.0342 14.6906 25.3624 14.3624C25.6906 14.0342 25.875 13.5891 25.875 13.125V9.625C25.875 9.16087 25.6906 8.71575 25.3624 8.38756C25.0342 8.05938 24.5891 7.875 24.125 7.875ZM16.7969 3.99328C16.9354 3.84029 17.1041 3.71759 17.2923 3.63289C17.4805 3.54819 17.6842 3.50332 17.8906 3.50109H17.9442C18.1861 3.50261 18.4253 3.55239 18.6477 3.64752C18.8701 3.74265 19.0713 3.88121 19.2395 4.0551C19.4077 4.22898 19.5395 4.43468 19.6271 4.66015C19.7148 4.88561 19.7566 5.12631 19.75 5.36813C19.7478 5.57451 19.7029 5.77821 19.6182 5.96643C19.5335 6.15466 19.4108 6.32333 19.2578 6.46188C18.2198 7.38063 16.4972 7.70438 15.4297 7.81813C15.5609 6.65985 15.9219 4.97656 16.7969 3.99328ZM9.78703 4.03266C10.126 3.69369 10.5851 3.50227 11.0645 3.5H11.1181C11.3245 3.50223 11.5282 3.5471 11.7164 3.6318C11.9047 3.7165 12.0733 3.8392 12.2119 3.99219C13.1295 5.02906 13.4533 6.74844 13.567 7.81156C12.5039 7.70219 10.7845 7.37406 9.74766 6.45641C9.59466 6.31786 9.47196 6.14919 9.38727 5.96097C9.30257 5.77275 9.2577 5.56905 9.25547 5.36266C9.24869 5.11682 9.29192 4.87217 9.38254 4.64354C9.47316 4.41492 9.60929 4.20709 9.78266 4.03266H9.78703ZM4.875 9.625H13.625V13.125H4.875V9.625ZM6.625 14.875H13.625V21.875H6.625V14.875ZM22.375 21.875H15.375V14.875H22.375V21.875ZM24.125 13.125H15.375V9.625H24.125V13.125Z" fill="#667085"/>
</g>
</svg>
