<svg width="29" height="28" viewBox="0 0 29 28" fill="none" xmlns="http://www.w3.org/2000/svg">
<g id="HouseLine">
<path id="Vector" d="M26.75 22.75H25V14.875L25.2559 15.1309C25.4204 15.2951 25.6434 15.3872 25.8758 15.387C26.1082 15.3868 26.331 15.2943 26.4952 15.1298C26.6593 14.9653 26.7515 14.7424 26.7513 14.51C26.7511 14.2776 26.6585 14.0548 26.4941 13.8906L15.737 3.13685C15.4089 2.80891 14.9639 2.62469 14.5 2.62469C14.0361 2.62469 13.5911 2.80891 13.263 3.13685L2.50594 13.8906C2.3419 14.0548 2.2498 14.2774 2.2499 14.5095C2.25 14.7416 2.3423 14.9641 2.50648 15.1282C2.67067 15.2922 2.8933 15.3843 3.12539 15.3842C3.35748 15.3841 3.58002 15.2918 3.74406 15.1276L4 14.875V22.75H2.25C2.01794 22.75 1.79538 22.8422 1.63128 23.0063C1.46719 23.1704 1.375 23.3929 1.375 23.625C1.375 23.857 1.46719 24.0796 1.63128 24.2437C1.79538 24.4078 2.01794 24.5 2.25 24.5H26.75C26.9821 24.5 27.2046 24.4078 27.3687 24.2437C27.5328 24.0796 27.625 23.857 27.625 23.625C27.625 23.3929 27.5328 23.1704 27.3687 23.0063C27.2046 22.8422 26.9821 22.75 26.75 22.75ZM5.75 13.125L14.5 4.37498L23.25 13.125V22.75H18V16.625C18 16.3929 17.9078 16.1704 17.7437 16.0063C17.5796 15.8422 17.3571 15.75 17.125 15.75H11.875C11.6429 15.75 11.4204 15.8422 11.2563 16.0063C11.0922 16.1704 11 16.3929 11 16.625V22.75H5.75V13.125ZM16.25 22.75H12.75V17.5H16.25V22.75Z" fill="#667085"/>
</g>
</svg>
