<svg width="29" height="28" viewBox="0 0 29 28" fill="none" xmlns="http://www.w3.org/2000/svg">
<g id="Info">
<path id="Vector" d="M14.5 2.625C12.2502 2.625 10.051 3.29213 8.18039 4.54203C6.30978 5.79193 4.85182 7.56847 3.99088 9.64698C3.12993 11.7255 2.90467 14.0126 3.34357 16.2192C3.78248 18.4257 4.86584 20.4525 6.45667 22.0433C8.04749 23.6342 10.0743 24.7175 12.2809 25.1564C14.4874 25.5953 16.7745 25.3701 18.853 24.5091C20.9315 23.6482 22.7081 22.1902 23.958 20.3196C25.2079 18.449 25.875 16.2498 25.875 14C25.8718 10.9841 24.6724 8.09271 22.5398 5.96018C20.4073 3.82764 17.5159 2.62818 14.5 2.625ZM14.5 23.625C12.5964 23.625 10.7355 23.0605 9.15264 22.0029C7.56982 20.9453 6.33616 19.4421 5.60766 17.6833C4.87917 15.9246 4.68856 13.9893 5.05995 12.1223C5.43133 10.2552 6.34802 8.54018 7.6941 7.1941C9.04018 5.84802 10.7552 4.93132 12.6223 4.55994C14.4893 4.18856 16.4246 4.37917 18.1833 5.10766C19.9421 5.83615 21.4453 7.06981 22.5029 8.65264C23.5605 10.2355 24.125 12.0964 24.125 14C24.1221 16.5518 23.1071 18.9983 21.3027 20.8027C19.4983 22.6071 17.0518 23.6221 14.5 23.625ZM16.25 19.25C16.25 19.4821 16.1578 19.7046 15.9937 19.8687C15.8296 20.0328 15.6071 20.125 15.375 20.125C14.9109 20.125 14.4658 19.9406 14.1376 19.6124C13.8094 19.2842 13.625 18.8391 13.625 18.375V14C13.3929 14 13.1704 13.9078 13.0063 13.7437C12.8422 13.5796 12.75 13.3571 12.75 13.125C12.75 12.8929 12.8422 12.6704 13.0063 12.5063C13.1704 12.3422 13.3929 12.25 13.625 12.25C14.0891 12.25 14.5343 12.4344 14.8624 12.7626C15.1906 13.0908 15.375 13.5359 15.375 14V18.375C15.6071 18.375 15.8296 18.4672 15.9937 18.6313C16.1578 18.7954 16.25 19.0179 16.25 19.25ZM12.75 9.1875C12.75 8.92791 12.827 8.67415 12.9712 8.45831C13.1154 8.24248 13.3204 8.07425 13.5602 7.97491C13.8001 7.87557 14.064 7.84958 14.3186 7.90022C14.5732 7.95086 14.807 8.07587 14.9906 8.25942C15.1741 8.44298 15.2991 8.67684 15.3498 8.93144C15.4004 9.18604 15.3744 9.44994 15.2751 9.68977C15.1758 9.9296 15.0075 10.1346 14.7917 10.2788C14.5759 10.423 14.3221 10.5 14.0625 10.5C13.7144 10.5 13.3806 10.3617 13.1344 10.1156C12.8883 9.86944 12.75 9.5356 12.75 9.1875Z" fill="#667085"/>
</g>
</svg>
