<svg width="29" height="28" viewBox="0 0 29 28" fill="none" xmlns="http://www.w3.org/2000/svg">
<g id="LockKey">
<path id="Vector" d="M14.5 12.25C13.7646 12.2502 13.0538 12.5151 12.4975 12.9963C11.9413 13.4774 11.5768 14.1426 11.4706 14.8703C11.3644 15.5981 11.5237 16.3397 11.9193 16.9597C12.3148 17.5797 12.9203 18.0367 13.625 18.247V20.125C13.625 20.3571 13.7172 20.5796 13.8813 20.7437C14.0454 20.9078 14.2679 21 14.5 21C14.7321 21 14.9546 20.9078 15.1187 20.7437C15.2828 20.5796 15.375 20.3571 15.375 20.125V18.247C16.0797 18.0367 16.6852 17.5797 17.0807 16.9597C17.4763 16.3397 17.6356 15.5981 17.5294 14.8703C17.4232 14.1426 17.0587 13.4774 16.5025 12.9963C15.9462 12.5151 15.2354 12.2502 14.5 12.25ZM14.5 16.625C14.2404 16.625 13.9867 16.548 13.7708 16.4038C13.555 16.2596 13.3867 16.0546 13.2874 15.8148C13.1881 15.5749 13.1621 15.311 13.2127 15.0564C13.2634 14.8018 13.3884 14.568 13.5719 14.3844C13.7555 14.2009 13.9893 14.0759 14.2439 14.0252C14.4985 13.9746 14.7624 14.0006 15.0023 14.0999C15.2421 14.1992 15.4471 14.3675 15.5913 14.5833C15.7355 14.7992 15.8125 15.0529 15.8125 15.3125C15.8125 15.6606 15.6742 15.9944 15.4281 16.2406C15.1819 16.4867 14.8481 16.625 14.5 16.625ZM23.25 8.75H19.75V6.125C19.75 4.73261 19.1969 3.39726 18.2123 2.41269C17.2277 1.42812 15.8924 0.875 14.5 0.875C13.1076 0.875 11.7723 1.42812 10.7877 2.41269C9.80312 3.39726 9.25 4.73261 9.25 6.125V8.75H5.75C5.28587 8.75 4.84075 8.93437 4.51256 9.26256C4.18437 9.59075 4 10.0359 4 10.5V22.75C4 23.2141 4.18437 23.6592 4.51256 23.9874C4.84075 24.3156 5.28587 24.5 5.75 24.5H23.25C23.7141 24.5 24.1592 24.3156 24.4874 23.9874C24.8156 23.6592 25 23.2141 25 22.75V10.5C25 10.0359 24.8156 9.59075 24.4874 9.26256C24.1592 8.93437 23.7141 8.75 23.25 8.75ZM11 6.125C11 5.19674 11.3687 4.3065 12.0251 3.65013C12.6815 2.99375 13.5717 2.625 14.5 2.625C15.4283 2.625 16.3185 2.99375 16.9749 3.65013C17.6313 4.3065 18 5.19674 18 6.125V8.75H11V6.125ZM23.25 22.75H5.75V10.5H23.25V22.75Z" fill="#667085"/>
</g>
</svg>
