<svg width="29" height="28" viewBox="0 0 29 28" fill="none" xmlns="http://www.w3.org/2000/svg">
<g id="LockSimple">
<path id="Vector" d="M23.25 8.75H19.75V6.125C19.75 4.73261 19.1969 3.39726 18.2123 2.41269C17.2277 1.42812 15.8924 0.875 14.5 0.875C13.1076 0.875 11.7723 1.42812 10.7877 2.41269C9.80312 3.39726 9.25 4.73261 9.25 6.125V8.75H5.75C5.28587 8.75 4.84075 8.93437 4.51256 9.26256C4.18437 9.59075 4 10.0359 4 10.5V22.75C4 23.2141 4.18437 23.6592 4.51256 23.9874C4.84075 24.3156 5.28587 24.5 5.75 24.5H23.25C23.7141 24.5 24.1592 24.3156 24.4874 23.9874C24.8156 23.6592 25 23.2141 25 22.75V10.5C25 10.0359 24.8156 9.59075 24.4874 9.26256C24.1592 8.93437 23.7141 8.75 23.25 8.75ZM11 6.125C11 5.19674 11.3687 4.3065 12.0251 3.65013C12.6815 2.99375 13.5717 2.625 14.5 2.625C15.4283 2.625 16.3185 2.99375 16.9749 3.65013C17.6313 4.3065 18 5.19674 18 6.125V8.75H11V6.125Z" fill="#667085"/>
</g>
</svg>
