<svg width="29" height="28" viewBox="0 0 29 28" fill="none" xmlns="http://www.w3.org/2000/svg">
<g id="MagnifyingGlass">
<path id="Vector" d="M25.6191 23.8809L20.1427 18.4056C21.7299 16.5 22.5214 14.0558 22.3525 11.5814C22.1836 9.10709 21.0672 6.79313 19.2357 5.12091C17.4041 3.4487 14.9984 2.54697 12.5189 2.60332C10.0394 2.65967 7.67715 3.66976 5.92345 5.42345C4.16976 7.17715 3.15967 9.53944 3.10332 12.0189C3.04697 14.4984 3.9487 16.9041 5.62091 18.7357C7.29313 20.5672 9.60709 21.6836 12.0814 21.8525C14.5558 22.0214 17 21.2299 18.9056 19.6427L24.3809 25.1191C24.4622 25.2004 24.5588 25.2649 24.665 25.3088C24.7712 25.3528 24.885 25.3755 25 25.3755C25.115 25.3755 25.2288 25.3528 25.335 25.3088C25.4413 25.2649 25.5378 25.2004 25.6191 25.1191C25.7004 25.0378 25.7649 24.9413 25.8088 24.835C25.8528 24.7288 25.8755 24.615 25.8755 24.5C25.8755 24.385 25.8528 24.2712 25.8088 24.165C25.7649 24.0588 25.7004 23.9622 25.6191 23.8809ZM4.87501 12.25C4.87501 10.6925 5.33687 9.16993 6.20218 7.87489C7.0675 6.57985 8.29741 5.57049 9.73637 4.97445C11.1753 4.37841 12.7587 4.22246 14.2863 4.52632C15.8139 4.83018 17.2171 5.5802 18.3185 6.68154C19.4198 7.78288 20.1698 9.18607 20.4737 10.7137C20.7775 12.2413 20.6216 13.8247 20.0256 15.2636C19.4295 16.7026 18.4202 17.9325 17.1251 18.7978C15.8301 19.6631 14.3075 20.125 12.75 20.125C10.6621 20.1227 8.66044 19.2923 7.1841 17.8159C5.70775 16.3396 4.87732 14.3379 4.87501 12.25Z" fill="#667085"/>
</g>
</svg>
