<svg width="29" height="28" viewBox="0 0 29 28" fill="none" xmlns="http://www.w3.org/2000/svg">
<g id="Package">
<path id="Vector" d="M26.46 7.23518L15.46 1.96877C15.1661 1.82667 14.8358 1.75214 14.5 1.75214C14.1642 1.75214 13.8339 1.82667 13.54 1.96877L2.54 7.23736C2.22586 7.38776 1.96363 7.60919 1.78069 7.87855C1.59775 8.1479 1.50081 8.45529 1.5 8.76861V19.2292C1.50081 19.5426 1.59775 19.85 1.78069 20.1193C1.96363 20.3887 2.22586 20.6101 2.54 20.7605L13.54 26.0291C13.8339 26.1712 14.1642 26.2457 14.5 26.2457C14.8358 26.2457 15.1661 26.1712 15.46 26.0291L26.46 20.7605C26.7741 20.6101 27.0364 20.3887 27.2193 20.1193C27.4023 19.85 27.4992 19.5426 27.5 19.2292V8.76971C27.4999 8.45582 27.4032 8.14775 27.2203 7.87777C27.0373 7.60779 26.7747 7.38584 26.46 7.23518ZM14.5 3.50002L24.5425 8.31252L20.8213 10.0953L10.7775 5.28283L14.5 3.50002ZM14.5 13.125L4.4575 8.31252L8.695 6.28252L18.7375 11.095L14.5 13.125ZM3.5 9.84377L13.5 14.6322V24.0155L3.5 19.2303V9.84377ZM25.5 19.226L15.5 24.0155V14.6366L19.5 12.7214V16.625C19.5 16.8571 19.6054 17.0796 19.7929 17.2437C19.9804 17.4078 20.2348 17.5 20.5 17.5C20.7652 17.5 21.0196 17.4078 21.2071 17.2437C21.3946 17.0796 21.5 16.8571 21.5 16.625V11.7633L25.5 9.84377V19.2249V19.226Z" fill="#667085"/>
</g>
</svg>
