<svg width="25" height="24" viewBox="0 0 25 24" fill="none" xmlns="http://www.w3.org/2000/svg">
<g id="PlayCircle">
<path id="Vector" d="M12.5 2.25C10.5716 2.25 8.68657 2.82183 7.08319 3.89317C5.47982 4.96451 4.23013 6.48726 3.49218 8.26884C2.75422 10.0504 2.56114 12.0108 2.93735 13.9021C3.31355 15.7934 4.24215 17.5307 5.60571 18.8943C6.96928 20.2579 8.70656 21.1865 10.5979 21.5627C12.4892 21.9389 14.4496 21.7458 16.2312 21.0078C18.0127 20.2699 19.5355 19.0202 20.6068 17.4168C21.6782 15.8134 22.25 13.9284 22.25 12C22.2473 9.41498 21.2192 6.93661 19.3913 5.10872C17.5634 3.28084 15.085 2.25273 12.5 2.25ZM12.5 20.25C10.8683 20.25 9.27326 19.7661 7.91655 18.8596C6.55984 17.9531 5.50242 16.6646 4.878 15.1571C4.25358 13.6496 4.0902 11.9908 4.40853 10.3905C4.72685 8.79016 5.51259 7.32015 6.66637 6.16637C7.82016 5.01259 9.29017 4.22685 10.8905 3.90852C12.4909 3.59019 14.1497 3.75357 15.6571 4.37799C17.1646 5.00242 18.4531 6.05984 19.3596 7.41655C20.2661 8.77325 20.75 10.3683 20.75 12C20.7475 14.1873 19.8775 16.2843 18.3309 17.8309C16.7843 19.3775 14.6873 20.2475 12.5 20.25ZM17.0225 11.3644L11.0225 7.61438C10.909 7.54344 10.7786 7.50416 10.6448 7.50063C10.511 7.4971 10.3787 7.52945 10.2616 7.5943C10.1445 7.65916 10.0469 7.75416 9.97893 7.86946C9.91096 7.98476 9.87507 8.11615 9.875 8.25V15.75C9.87507 15.8838 9.91096 16.0152 9.97893 16.1305C10.0469 16.2458 10.1445 16.3408 10.2616 16.4057C10.3787 16.4706 10.511 16.5029 10.6448 16.4994C10.7786 16.4958 10.909 16.4566 11.0225 16.3856L17.0225 12.6356C17.1302 12.5682 17.219 12.4745 17.2806 12.3633C17.3421 12.2521 17.3744 12.1271 17.3744 12C17.3744 11.8729 17.3421 11.7479 17.2806 11.6367C17.219 11.5255 17.1302 11.4318 17.0225 11.3644ZM11.375 14.3972V9.60281L15.2103 12L11.375 14.3972Z" fill="black"/>
</g>
</svg>
