<svg width="29" height="28" viewBox="0 0 29 28" fill="none" xmlns="http://www.w3.org/2000/svg">
<g id="Question">
<path id="Vector" d="M15.8125 19.6875C15.8125 19.9471 15.7355 20.2008 15.5913 20.4167C15.4471 20.6325 15.2421 20.8008 15.0023 20.9001C14.7624 20.9994 14.4985 21.0254 14.2439 20.9748C13.9893 20.9241 13.7555 20.7991 13.5719 20.6156C13.3884 20.432 13.2634 20.1982 13.2127 19.9436C13.1621 19.689 13.1881 19.4251 13.2874 19.1852C13.3868 18.9454 13.555 18.7404 13.7708 18.5962C13.9867 18.452 14.2404 18.375 14.5 18.375C14.8481 18.375 15.1819 18.5133 15.4281 18.7594C15.6742 19.0056 15.8125 19.3394 15.8125 19.6875ZM14.5 7.875C12.0872 7.875 10.125 9.64141 10.125 11.8125V12.25C10.125 12.4821 10.2172 12.7046 10.3813 12.8687C10.5454 13.0328 10.7679 13.125 11 13.125C11.2321 13.125 11.4546 13.0328 11.6187 12.8687C11.7828 12.7046 11.875 12.4821 11.875 12.25V11.8125C11.875 10.6094 13.053 9.625 14.5 9.625C15.947 9.625 17.125 10.6094 17.125 11.8125C17.125 13.0156 15.947 14 14.5 14C14.2679 14 14.0454 14.0922 13.8813 14.2563C13.7172 14.4204 13.625 14.6429 13.625 14.875V15.75C13.625 15.9821 13.7172 16.2046 13.8813 16.3687C14.0454 16.5328 14.2679 16.625 14.5 16.625C14.7321 16.625 14.9546 16.5328 15.1187 16.3687C15.2828 16.2046 15.375 15.9821 15.375 15.75V15.6712C17.37 15.3048 18.875 13.7134 18.875 11.8125C18.875 9.64141 16.9128 7.875 14.5 7.875ZM25.875 14C25.875 16.2498 25.2079 18.449 23.958 20.3196C22.7081 22.1902 20.9315 23.6482 18.853 24.5091C16.7745 25.3701 14.4874 25.5953 12.2809 25.1564C10.0743 24.7175 8.04749 23.6342 6.45667 22.0433C4.86584 20.4525 3.78248 18.4257 3.34357 16.2192C2.90467 14.0126 3.12993 11.7255 3.99088 9.64698C4.85182 7.56847 6.30978 5.79193 8.18039 4.54203C10.051 3.29213 12.2502 2.625 14.5 2.625C17.5159 2.62818 20.4073 3.82764 22.5398 5.96018C24.6724 8.09271 25.8718 10.9841 25.875 14ZM24.125 14C24.125 12.0964 23.5605 10.2355 22.5029 8.65264C21.4453 7.06981 19.9421 5.83615 18.1833 5.10766C16.4246 4.37917 14.4893 4.18856 12.6223 4.55994C10.7552 4.93132 9.04018 5.84802 7.6941 7.1941C6.34802 8.54018 5.43133 10.2552 5.05995 12.1223C4.68856 13.9893 4.87917 15.9246 5.60766 17.6833C6.33616 19.4421 7.56982 20.9453 9.15264 22.0029C10.7355 23.0605 12.5964 23.625 14.5 23.625C17.0518 23.6221 19.4983 22.6071 21.3027 20.8027C23.1071 18.9983 24.1221 16.5518 24.125 14Z" fill="#667085"/>
</g>
</svg>
