<svg width="24" height="24" viewBox="0 0 24 24" fill="none" xmlns="http://www.w3.org/2000/svg">
<g id="Share">
<path id="Vector" d="M21.5306 10.2812L17.0306 14.7812C16.9257 14.8862 16.792 14.9578 16.6465 14.9867C16.5009 15.0157 16.35 15.0009 16.2129 14.9441C16.0758 14.8872 15.9586 14.791 15.8762 14.6676C15.7938 14.5441 15.7499 14.399 15.75 14.2506V10.5006H15.4688C13.6394 10.5001 11.8617 11.1076 10.4153 12.2277C8.96889 13.3478 7.93578 14.9168 7.47844 16.6881C7.42871 16.8808 7.30447 17.0458 7.13305 17.1469C6.96163 17.248 6.75707 17.2769 6.56437 17.2272C6.37168 17.1774 6.20663 17.0532 6.10554 16.8818C6.00444 16.7103 5.97558 16.5058 6.02531 16.3131C6.56495 14.2192 7.78571 12.3643 9.49537 11.0404C11.205 9.71656 13.3064 8.99895 15.4688 9.00059H15.75V5.25059C15.7499 5.10217 15.7938 4.95705 15.8762 4.8336C15.9586 4.71016 16.0758 4.61394 16.2129 4.55712C16.35 4.50031 16.5009 4.48546 16.6465 4.51444C16.792 4.54343 16.9257 4.61496 17.0306 4.71997L21.5306 9.21997C21.6004 9.28962 21.6557 9.37234 21.6934 9.46339C21.7312 9.55443 21.7506 9.65203 21.7506 9.75059C21.7506 9.84915 21.7312 9.94675 21.6934 10.0378C21.6557 10.1288 21.6004 10.2116 21.5306 10.2812ZM18 19.5006H3.75V8.25059C3.75 8.05168 3.67098 7.86091 3.53033 7.72026C3.38968 7.57961 3.19891 7.50059 3 7.50059C2.80109 7.50059 2.61032 7.57961 2.46967 7.72026C2.32902 7.86091 2.25 8.05168 2.25 8.25059V20.2506C2.25 20.4495 2.32902 20.6403 2.46967 20.7809C2.61032 20.9216 2.80109 21.0006 3 21.0006H18C18.1989 21.0006 18.3897 20.9216 18.5303 20.7809C18.671 20.6403 18.75 20.4495 18.75 20.2506C18.75 20.0517 18.671 19.8609 18.5303 19.7203C18.3897 19.5796 18.1989 19.5006 18 19.5006Z" fill="#101828"/>
</g>
</svg>
