<svg width="29" height="28" viewBox="0 0 29 28" fill="none" xmlns="http://www.w3.org/2000/svg">
<g id="ShieldCheck">
<path id="Vector" d="M23.25 4.375H5.75C5.28587 4.375 4.84075 4.55937 4.51256 4.88756C4.18437 5.21575 4 5.66087 4 6.125V12.25C4 18.0163 6.79125 21.5108 9.13297 23.427C11.6552 25.4898 14.1642 26.1898 14.2736 26.2194C14.424 26.2603 14.5826 26.2603 14.733 26.2194C14.8423 26.1898 17.3481 25.4898 19.8736 23.427C22.2087 21.5108 25 18.0163 25 12.25V6.125C25 5.66087 24.8156 5.21575 24.4874 4.88756C24.1592 4.55937 23.7141 4.375 23.25 4.375ZM19.4962 11.9941L13.3713 18.1191C13.29 18.2004 13.1935 18.265 13.0873 18.309C12.981 18.353 12.8672 18.3757 12.7522 18.3757C12.6372 18.3757 12.5233 18.353 12.4171 18.309C12.3109 18.265 12.2144 18.2004 12.1331 18.1191L9.50813 15.4941C9.34394 15.3299 9.2517 15.1072 9.2517 14.875C9.2517 14.6428 9.34394 14.4201 9.50813 14.2559C9.67231 14.0918 9.89499 13.9995 10.1272 13.9995C10.3594 13.9995 10.5821 14.0918 10.7463 14.2559L12.75 16.263L18.2559 10.7559C18.3372 10.6746 18.4337 10.6102 18.54 10.5662C18.6462 10.5222 18.76 10.4995 18.875 10.4995C18.99 10.4995 19.1038 10.5222 19.21 10.5662C19.3163 10.6102 19.4128 10.6746 19.4941 10.7559C19.5754 10.8372 19.6398 10.9337 19.6838 11.04C19.7278 11.1462 19.7505 11.26 19.7505 11.375C19.7505 11.49 19.7278 11.6038 19.6838 11.71C19.6398 11.8163 19.5754 11.9128 19.4941 11.9941H19.4962Z" fill="#667085"/>
</g>
</svg>
