<svg width="29" height="28" viewBox="0 0 29 28" fill="none" xmlns="http://www.w3.org/2000/svg">
<g id="Spinner">
<path id="Vector" d="M15.375 3.5V7C15.375 7.23206 15.2828 7.45462 15.1187 7.61872C14.9546 7.78281 14.7321 7.875 14.5 7.875C14.2679 7.875 14.0454 7.78281 13.8813 7.61872C13.7172 7.45462 13.625 7.23206 13.625 7V3.5C13.625 3.26794 13.7172 3.04538 13.8813 2.88128C14.0454 2.71719 14.2679 2.625 14.5 2.625C14.7321 2.625 14.9546 2.71719 15.1187 2.88128C15.2828 3.04538 15.375 3.26794 15.375 3.5ZM19.4492 9.92578C19.5642 9.92573 19.6781 9.903 19.7843 9.8589C19.8906 9.81479 19.9871 9.75018 20.0683 9.66875L22.5434 7.19469C22.7076 7.0305 22.7999 6.80782 22.7999 6.57562C22.7999 6.34343 22.7076 6.12075 22.5434 5.95656C22.3793 5.79238 22.1566 5.70014 21.9244 5.70014C21.6922 5.70014 21.4695 5.79238 21.3053 5.95656L18.8313 8.43172C18.7088 8.55403 18.6254 8.7099 18.5915 8.87962C18.5577 9.04934 18.5749 9.22529 18.6411 9.38522C18.7072 9.54514 18.8193 9.68186 18.9631 9.77808C19.107 9.8743 19.2762 9.9257 19.4492 9.92578ZM25 13.125H21.5C21.2679 13.125 21.0454 13.2172 20.8813 13.3813C20.7172 13.5454 20.625 13.7679 20.625 14C20.625 14.2321 20.7172 14.4546 20.8813 14.6187C21.0454 14.7828 21.2679 14.875 21.5 14.875H25C25.2321 14.875 25.4546 14.7828 25.6187 14.6187C25.7828 14.4546 25.875 14.2321 25.875 14C25.875 13.7679 25.7828 13.5454 25.6187 13.3813C25.4546 13.2172 25.2321 13.125 25 13.125ZM20.0683 18.3313C19.9029 18.1741 19.6826 18.0878 19.4544 18.0907C19.2262 18.0936 19.0082 18.1855 18.8469 18.3469C18.6855 18.5082 18.5936 18.7262 18.5907 18.9544C18.5878 19.1826 18.6741 19.4029 18.8313 19.5683L21.3053 22.0434C21.4695 22.2076 21.6922 22.2999 21.9244 22.2999C22.1566 22.2999 22.3793 22.2076 22.5434 22.0434C22.7076 21.8793 22.7999 21.6566 22.7999 21.4244C22.7999 21.1922 22.7076 20.9695 22.5434 20.8053L20.0683 18.3313ZM14.5 20.125C14.2679 20.125 14.0454 20.2172 13.8813 20.3813C13.7172 20.5454 13.625 20.7679 13.625 21V24.5C13.625 24.7321 13.7172 24.9546 13.8813 25.1187C14.0454 25.2828 14.2679 25.375 14.5 25.375C14.7321 25.375 14.9546 25.2828 15.1187 25.1187C15.2828 24.9546 15.375 24.7321 15.375 24.5V21C15.375 20.7679 15.2828 20.5454 15.1187 20.3813C14.9546 20.2172 14.7321 20.125 14.5 20.125ZM8.93172 18.3313L6.45656 20.8053C6.29238 20.9695 6.20014 21.1922 6.20014 21.4244C6.20014 21.6566 6.29238 21.8793 6.45656 22.0434C6.62075 22.2076 6.84343 22.2999 7.07562 22.2999C7.30782 22.2999 7.5305 22.2076 7.69469 22.0434L10.1688 19.5683C10.3259 19.4029 10.4122 19.1826 10.4093 18.9544C10.4064 18.7262 10.3145 18.5082 10.1531 18.3469C9.99176 18.1855 9.77376 18.0936 9.5456 18.0907C9.31743 18.0878 9.09715 18.1741 8.93172 18.3313ZM8.375 14C8.375 13.7679 8.28281 13.5454 8.11872 13.3813C7.95462 13.2172 7.73206 13.125 7.5 13.125H4C3.76794 13.125 3.54538 13.2172 3.38128 13.3813C3.21719 13.5454 3.125 13.7679 3.125 14C3.125 14.2321 3.21719 14.4546 3.38128 14.6187C3.54538 14.7828 3.76794 14.875 4 14.875H7.5C7.73206 14.875 7.95462 14.7828 8.11872 14.6187C8.28281 14.4546 8.375 14.2321 8.375 14ZM7.69469 5.95656C7.5305 5.79238 7.30782 5.70014 7.07562 5.70014C6.84343 5.70014 6.62075 5.79238 6.45656 5.95656C6.29238 6.12075 6.20014 6.34343 6.20014 6.57562C6.20014 6.80782 6.29238 7.0305 6.45656 7.19469L8.93172 9.66875C9.09715 9.82592 9.31743 9.91224 9.5456 9.90932C9.77376 9.9064 9.99176 9.81446 10.1531 9.65311C10.3145 9.49176 10.4064 9.27376 10.4093 9.0456C10.4122 8.81743 10.3259 8.59715 10.1688 8.43172L7.69469 5.95656Z" fill="#667085"/>
</g>
</svg>
