<svg width="29" height="28" viewBox="0 0 29 28" fill="none" xmlns="http://www.w3.org/2000/svg">
<g id="X">
<path id="Vector" d="M22.9941 21.2559C23.0754 21.3372 23.1398 21.4337 23.1838 21.54C23.2278 21.6462 23.2505 21.76 23.2505 21.875C23.2505 21.99 23.2278 22.1038 23.1838 22.21C23.1398 22.3163 23.0754 22.4128 22.9941 22.4941C22.9128 22.5754 22.8163 22.6398 22.71 22.6838C22.6038 22.7278 22.49 22.7505 22.375 22.7505C22.26 22.7505 22.1462 22.7278 22.04 22.6838C21.9337 22.6398 21.8372 22.5754 21.7559 22.4941L14.5 15.237L7.24406 22.4941C7.07988 22.6582 6.85719 22.7505 6.625 22.7505C6.3928 22.7505 6.17012 22.6582 6.00594 22.4941C5.84175 22.3299 5.74951 22.1072 5.74951 21.875C5.74951 21.6428 5.84175 21.4201 6.00594 21.2559L13.263 14L6.00594 6.74406C5.84175 6.57988 5.74951 6.35719 5.74951 6.125C5.74951 5.8928 5.84175 5.67012 6.00594 5.50594C6.17012 5.34175 6.3928 5.24951 6.625 5.24951C6.85719 5.24951 7.07988 5.34175 7.24406 5.50594L14.5 12.763L21.7559 5.50594C21.9201 5.34175 22.1428 5.24951 22.375 5.24951C22.6072 5.24951 22.8299 5.34175 22.9941 5.50594C23.1582 5.67012 23.2505 5.8928 23.2505 6.125C23.2505 6.35719 23.1582 6.57988 22.9941 6.74406L15.737 14L22.9941 21.2559Z" fill="#101828"/>
</g>
</svg>
