<svg width="29" height="28" viewBox="0 0 29 28" fill="none" xmlns="http://www.w3.org/2000/svg">
<g id="XCircle">
<path id="Vector" d="M14.5 2.625C12.2502 2.625 10.051 3.29213 8.18039 4.54203C6.30978 5.79193 4.85182 7.56847 3.99088 9.64698C3.12993 11.7255 2.90467 14.0126 3.34357 16.2192C3.78248 18.4257 4.86584 20.4525 6.45667 22.0433C8.04749 23.6342 10.0743 24.7175 12.2809 25.1564C14.4874 25.5953 16.7745 25.3701 18.853 24.5091C20.9315 23.6482 22.7081 22.1902 23.958 20.3196C25.2079 18.449 25.875 16.2498 25.875 14C25.8718 10.9841 24.6724 8.09271 22.5398 5.96018C20.4073 3.82764 17.5159 2.62818 14.5 2.625ZM18.6191 16.8809C18.7004 16.9622 18.7649 17.0587 18.8088 17.165C18.8528 17.2712 18.8755 17.385 18.8755 17.5C18.8755 17.615 18.8528 17.7288 18.8088 17.835C18.7649 17.9413 18.7004 18.0378 18.6191 18.1191C18.5378 18.2004 18.4413 18.2648 18.335 18.3088C18.2288 18.3528 18.115 18.3755 18 18.3755C17.885 18.3755 17.7712 18.3528 17.665 18.3088C17.5588 18.2648 17.4622 18.2004 17.3809 18.1191L14.5 15.237L11.6191 18.1191C11.5378 18.2004 11.4413 18.2648 11.335 18.3088C11.2288 18.3528 11.115 18.3755 11 18.3755C10.885 18.3755 10.7712 18.3528 10.665 18.3088C10.5588 18.2648 10.4622 18.2004 10.3809 18.1191C10.2996 18.0378 10.2352 17.9413 10.1912 17.835C10.1472 17.7288 10.1245 17.615 10.1245 17.5C10.1245 17.385 10.1472 17.2712 10.1912 17.165C10.2352 17.0587 10.2996 16.9622 10.3809 16.8809L13.263 14L10.3809 11.1191C10.2168 10.9549 10.1245 10.7322 10.1245 10.5C10.1245 10.2678 10.2168 10.0451 10.3809 9.88094C10.5451 9.71675 10.7678 9.62451 11 9.62451C11.2322 9.62451 11.4549 9.71675 11.6191 9.88094L14.5 12.763L17.3809 9.88094C17.4622 9.79964 17.5588 9.73515 17.665 9.69116C17.7712 9.64716 17.885 9.62451 18 9.62451C18.115 9.62451 18.2288 9.64716 18.335 9.69116C18.4413 9.73515 18.5378 9.79964 18.6191 9.88094C18.7004 9.96223 18.7649 10.0587 18.8088 10.165C18.8528 10.2712 18.8755 10.385 18.8755 10.5C18.8755 10.615 18.8528 10.7288 18.8088 10.835C18.7649 10.9413 18.7004 11.0378 18.6191 11.1191L15.737 14L18.6191 16.8809Z" fill="#667085"/>
</g>
</svg>
