<svg width="240" height="240" viewBox="0 0 240 240" fill="none" xmlns="http://www.w3.org/2000/svg">
<path d="M240 183.551H0V183.671H240V183.551Z" fill="#EBEBEB"/>
<path d="M215.953 191.277H200.055V191.397H215.953V191.277Z" fill="#EBEBEB"/>
<path d="M144.692 191.337H140.52V191.457H144.692V191.337Z" fill="#EBEBEB"/>
<path d="M199.574 186.82H170.08V186.94H199.574V186.82Z" fill="#EBEBEB"/>
<path d="M108.071 189.653H101.979V189.773H108.071V189.653Z" fill="#EBEBEB"/>
<path d="M97.7033 189.653H80.0234V189.773H97.7033V189.653Z" fill="#EBEBEB"/>
<path d="M37.3861 187.626H25.1797V187.746H37.3861V187.626Z" fill="#EBEBEB"/>
<path d="M76.2143 187.626H40.2676V187.746H76.2143V187.626Z" fill="#EBEBEB"/>
<path d="M113.767 162.144H21.0797C19.5691 162.144 18.3398 160.915 18.3398 159.404V29.1168C18.3398 27.6062 19.5691 26.377 21.0797 26.377H113.767C115.277 26.377 116.507 27.6062 116.507 29.1168V159.404C116.507 160.915 115.277 162.144 113.767 162.144ZM21.0797 26.4974C19.6349 26.4974 18.4598 27.6725 18.4598 29.1173V159.405C18.4598 160.849 19.6349 162.024 21.0797 162.024H113.767C115.212 162.024 116.387 160.849 116.387 159.405V29.1168C116.387 27.6725 115.212 26.497 113.767 26.497L21.0797 26.4974Z" fill="#EBEBEB"/>
<path d="M217.589 162.144H124.901C123.391 162.144 122.162 160.915 122.162 159.404V29.1168C122.162 27.6062 123.391 26.377 124.901 26.377H217.589C219.1 26.377 220.328 27.6062 220.328 29.1168V159.404C220.329 160.915 219.1 162.144 217.589 162.144ZM124.901 26.4974C123.457 26.4974 122.282 27.6725 122.282 29.1173V159.405C122.282 160.849 123.457 162.024 124.901 162.024H217.589C219.033 162.024 220.208 160.849 220.208 159.405V29.1168C220.208 27.6725 219.033 26.497 217.589 26.497L124.901 26.4974Z" fill="#EBEBEB"/>
<path d="M91.5732 119.762L208.232 119.762V34.5459L91.5732 34.5459L91.5732 119.762Z" fill="#E6E6E6"/>
<path d="M86.417 119.762L207.037 119.762V34.5459L86.417 34.5459L86.417 119.762Z" fill="#F0F0F0"/>
<path d="M199.816 112.542V41.7666L93.637 41.7666L93.637 112.542L199.816 112.542Z" fill="#FAFAFA"/>
<path d="M174.005 112.542L149.833 41.7666H126.75L150.922 112.542H174.005Z" fill="white"/>
<path d="M145.964 112.542L121.792 41.7666H112.793L136.965 112.542H145.964Z" fill="white"/>
<path d="M94.5527 112.542L94.5527 41.7666H93.6359L93.6359 112.542H94.5527Z" fill="#E6E6E6"/>
<path d="M30.9963 96.583H72.1895L72.1895 38.1809L30.9963 38.1809L30.9963 96.583Z" fill="#E0E0E0"/>
<path d="M28.0773 96.583H70.5391L70.5391 38.1809L28.0773 38.1809L28.0773 96.583Z" fill="#F5F5F5"/>
<path d="M66.3496 91.9803L66.3496 42.7832L32.2706 42.7832L32.2706 91.9803H66.3496Z" fill="white"/>
<path d="M47.0059 137.469C50.064 129.925 57.3365 127.116 59.8488 122.352C63.1407 116.111 63.1219 106.748 60.3192 103.37C57.8842 100.434 49.8197 120.286 48.9115 122.504C45.7872 130.132 44.8791 135.794 44.2935 141.279C44.3602 136.616 44.424 132.336 44.4763 129.033C44.6472 118.26 44.8608 114.795 44.9583 113.729C45.2947 113.208 45.6927 112.601 45.9235 112.276C47.8752 109.525 52.2053 106.249 54.3691 102.249C57.529 96.4091 57.0183 89.4194 54.8021 86.8168C52.4847 84.0957 48.3883 90.5272 46.213 96.9002C44.0381 103.273 44.9674 109.373 44.3573 114.665C44.2296 115.704 44.0986 119.646 43.9757 125.116C43.3157 119.231 42.0015 115.288 39.5659 111.615C36.5703 107.096 33.984 101.594 31.5154 102.305C29.0472 103.016 30.3759 110.296 32.3285 115.408C34.0675 119.96 42.6471 124.5 43.9109 128.16C43.7621 135.573 43.6291 144.965 43.5346 153.709C42.8583 149.192 43.3234 148.813 40.5519 141.898C38.904 137.787 32.149 132.717 31.3435 135.542C30.553 138.314 31.7626 143.705 34.3128 147.444C36.3701 150.46 40.9344 150.457 41.9904 152.329C42.2367 152.765 43.0517 154.439 43.5168 155.402C43.4064 166.077 43.3575 175.501 43.4117 178.714L43.8543 178.746C43.8331 177.916 43.8864 172.486 43.9733 165.299C45.0816 161.475 52.5432 159.243 54.8482 155.266C57.2607 151.105 58.9939 146.248 57.9595 142.996C57.097 140.285 50.2973 143.972 47.5378 148.465C45.6999 151.457 44.5771 154.651 44.053 158.942C44.1159 154.046 44.1874 148.786 44.257 143.822C44.8157 142.584 46.0896 139.731 47.0059 137.469Z" fill="#E6E6E6"/>
<path d="M51.3873 183.551H35.7033C34.8465 183.551 34.1077 182.947 33.9378 182.107L32.8242 176.618H54.2668L53.1532 182.107C52.9828 182.947 52.2445 183.551 51.3873 183.551Z" fill="#F0F0F0"/>
<path d="M54.7155 178.746H32.3758C31.8406 178.746 31.3904 178.344 31.3309 177.812L30.8739 173.754C30.8038 173.131 31.2915 172.585 31.9189 172.585H55.172C55.7993 172.585 56.2875 173.131 56.2169 173.754L55.76 177.812C55.7005 178.344 55.2507 178.746 54.7155 178.746Z" fill="#F0F0F0"/>
<path d="M194.705 180.052H199.5V128.456H194.705V180.052Z" fill="#F0F0F0"/>
<path d="M96.9883 183.49H197.658V180.052H96.9883V183.49Z" fill="#F0F0F0"/>
<path d="M194.706 128.455H95.1484V180.051H194.706V128.455Z" fill="#F5F5F5"/>
<path d="M195.834 128.455H200.789V125.203H195.834V128.455Z" fill="#E0E0E0"/>
<path d="M195.833 125.203H93.8594V128.455H195.833V125.203Z" fill="#EBEBEB"/>
<path d="M187.559 150.739H102.292C100.166 150.739 98.4375 149.01 98.4375 146.884V135.834C98.4375 133.708 100.167 131.979 102.292 131.979H187.559C189.685 131.979 191.414 133.708 191.414 135.834V146.884C191.414 149.01 189.685 150.739 187.559 150.739ZM102.292 132.939C100.696 132.939 99.3975 134.238 99.3975 135.834V146.884C99.3975 148.48 100.696 149.779 102.292 149.779H187.559C189.155 149.779 190.454 148.48 190.454 146.884V135.834C190.454 134.238 189.155 132.939 187.559 132.939H102.292Z" fill="white"/>
<path d="M187.559 173.851H102.292C100.166 173.851 98.4375 172.122 98.4375 169.996V158.947C98.4375 156.821 100.167 155.092 102.292 155.092H187.559C189.685 155.092 191.414 156.821 191.414 158.947V169.996C191.414 172.122 189.685 173.851 187.559 173.851ZM102.292 156.052C100.696 156.052 99.3975 157.351 99.3975 158.947V169.996C99.3975 171.592 100.696 172.891 102.292 172.891H187.559C189.155 172.891 190.454 171.592 190.454 169.996V158.947C190.454 157.351 189.155 156.052 187.559 156.052H102.292Z" fill="white"/>
<path d="M168.182 143.059H121.67C120.983 143.059 120.424 142.5 120.424 141.813V140.905C120.424 140.217 120.983 139.658 121.67 139.658H168.182C168.87 139.658 169.429 140.217 169.429 140.905V141.813C169.429 142.5 168.87 143.059 168.182 143.059ZM121.67 140.619C121.515 140.619 121.384 140.75 121.384 140.905V141.813C121.384 141.968 121.515 142.1 121.67 142.1H168.182C168.337 142.1 168.469 141.969 168.469 141.813V140.905C168.469 140.75 168.338 140.619 168.182 140.619H121.67Z" fill="white"/>
<path d="M168.182 166.172H121.67C120.983 166.172 120.424 165.613 120.424 164.925V164.017C120.424 163.33 120.983 162.771 121.67 162.771H168.182C168.87 162.771 169.429 163.33 169.429 164.017V164.925C169.429 165.613 168.87 166.172 168.182 166.172ZM121.67 163.731C121.515 163.731 121.384 163.862 121.384 164.018V164.926C121.384 165.081 121.515 165.212 121.67 165.212H168.182C168.337 165.212 168.469 165.081 168.469 164.926V164.018C168.469 163.863 168.338 163.731 168.182 163.731H121.67Z" fill="white"/>
<path d="M117.6 205.229C168.999 205.229 210.667 202.796 210.667 199.794C210.667 196.793 168.999 194.359 117.6 194.359C66.2006 194.359 24.5332 196.793 24.5332 199.794C24.5332 202.796 66.2006 205.229 117.6 205.229Z" fill="#F5F5F5"/>
<path d="M179.892 80.5207L179.709 83.3477L180.188 83.3786L180.371 80.5516L179.892 80.5207Z" fill="#025ACE"/>
<path d="M180.633 69.0517L180.033 78.3408L180.512 78.3717L181.112 69.0826L180.633 69.0517Z" fill="#025ACE"/>
<path d="M174.931 55.5537H118.505C115.549 55.5537 112.975 57.972 112.783 60.9278L105.496 173.487C105.304 176.443 107.566 178.861 110.522 178.861H166.948C169.904 178.861 172.478 176.443 172.67 173.487L179.957 60.9278C180.149 57.972 177.887 55.5537 174.931 55.5537Z" fill="#025ACE"/>
<path opacity="0.7" d="M173.14 55.5537H118.505C115.549 55.5537 112.975 57.972 112.783 60.9278L105.496 173.487C105.304 176.443 107.566 178.861 110.522 178.861H165.157C168.113 178.861 170.687 176.443 170.879 173.487L178.166 60.9278C178.357 57.972 176.096 55.5537 173.14 55.5537Z" fill="white"/>
<path d="M168.533 170.544H108.434C107.485 170.544 106.733 169.742 106.795 168.795L113.389 66.9432C113.445 66.0787 114.162 65.4062 115.028 65.4062H175.127C176.077 65.4062 176.828 66.2083 176.767 67.1554L170.173 169.008C170.117 169.872 169.399 170.544 168.533 170.544Z" fill="white"/>
<path d="M155.178 62.0725H133.334C132.853 62.0725 132.488 61.6827 132.519 61.2018C132.551 60.7208 132.966 60.3311 133.447 60.3311H155.291C155.772 60.3311 156.136 60.7208 156.105 61.2018C156.074 61.6827 155.659 62.0725 155.178 62.0725Z" fill="white"/>
<path d="M138.128 174.823C138.067 176.005 137.059 176.963 135.878 176.963C134.696 176.963 133.788 176.005 133.849 174.823C133.91 173.642 134.917 172.684 136.099 172.684C137.281 172.684 138.189 173.642 138.128 174.823Z" fill="white"/>
<path d="M97.8826 60.5674H94.2154C94.0234 60.5674 93.8496 60.7243 93.8295 60.9168L93.0605 68.232C93.0404 68.424 93.181 68.5815 93.373 68.5815H97.0402C97.2322 68.5815 97.406 68.4245 97.4261 68.232L98.1951 60.9168C98.2152 60.7248 98.0746 60.5674 97.8826 60.5674Z" fill="#025ACE"/>
<path opacity="0.4" d="M97.5528 60.5674H94.2154C94.0234 60.5674 93.8496 60.7243 93.8295 60.9168L93.0605 68.232C93.0404 68.424 93.181 68.5815 93.373 68.5815H96.7104C96.9024 68.5815 97.0762 68.4245 97.0964 68.232L97.8653 60.9168C97.8855 60.7248 97.7448 60.5674 97.5528 60.5674Z" fill="white"/>
<path d="M79.5034 195.831C80.0021 195.831 80.4811 195.762 80.6328 195.538C80.6861 195.46 80.7245 195.326 80.6074 195.136C80.5421 195.029 80.4403 194.956 80.3064 194.92C79.6517 194.745 78.3274 195.519 78.2712 195.552C78.239 195.571 78.2227 195.608 78.2304 195.646C78.2381 195.684 78.2688 195.714 78.3067 195.722C78.5563 195.771 79.0382 195.831 79.5034 195.831ZM80.0866 195.077C80.1514 195.077 80.2118 195.084 80.2656 195.099C80.3515 195.122 80.4125 195.164 80.4514 195.227C80.5214 195.341 80.5003 195.398 80.4782 195.431C80.3083 195.682 79.3262 195.687 78.599 195.586C78.9514 195.4 79.6325 195.077 80.0866 195.077Z" fill="#025ACE"/>
<path d="M78.3247 195.725C78.3376 195.725 78.3501 195.722 78.3621 195.716C78.8219 195.506 79.7148 194.665 79.6245 194.226C79.6034 194.123 79.5247 193.994 79.2703 193.969C79.0807 193.949 78.9122 194.003 78.7667 194.127C78.2901 194.533 78.2311 195.58 78.2287 195.624C78.2267 195.657 78.2431 195.689 78.2704 195.708C78.2868 195.718 78.3055 195.725 78.3247 195.725ZM79.204 194.149C79.2223 194.149 79.2405 194.15 79.2592 194.152C79.4258 194.168 79.4392 194.234 79.4431 194.255C79.4973 194.519 78.8949 195.18 78.4288 195.467C78.4653 195.161 78.5762 194.535 78.8896 194.269C78.9837 194.188 79.0874 194.149 79.204 194.149Z" fill="#025ACE"/>
<path d="M77.93 186.631H74.043V195.632H77.93V186.631Z" fill="#FF8B7B"/>
<path d="M45.8438 191.342L49.726 191.762L52.259 183.024L48.3767 182.604L45.8438 191.342Z" fill="#FF8B7B"/>
<path d="M51.5325 192.647C52.0212 192.77 52.5074 192.822 52.7114 192.645C52.7829 192.583 52.8535 192.465 52.7858 192.254C52.7484 192.135 52.6663 192.041 52.5439 191.973C51.9458 191.643 50.4569 192.058 50.3935 192.076C50.357 192.086 50.3316 192.118 50.3301 192.156C50.3287 192.195 50.3508 192.231 50.3863 192.247C50.6191 192.357 51.077 192.533 51.5325 192.647ZM52.2905 192.069C52.3538 192.085 52.4114 192.106 52.4604 192.133C52.5391 192.176 52.5881 192.232 52.6106 192.303C52.6509 192.429 52.6164 192.479 52.5866 192.504C52.3581 192.703 51.3943 192.466 50.7069 192.189C51.0981 192.099 51.8455 191.957 52.2905 192.069Z" fill="#025ACE"/>
<path d="M50.4033 192.253C50.4157 192.257 50.4287 192.257 50.4417 192.255C50.9442 192.166 52.0266 191.581 52.0468 191.138C52.0516 191.033 52.006 190.891 51.7636 190.804C51.5826 190.738 51.4041 190.748 51.2313 190.83C50.6639 191.102 50.3471 192.091 50.3341 192.133C50.3245 192.163 50.3322 192.198 50.3543 192.223C50.3677 192.238 50.385 192.248 50.4033 192.253ZM51.6546 190.96C51.6724 190.964 51.6906 190.97 51.7084 190.976C51.8673 191.033 51.8644 191.099 51.8629 191.121C51.8509 191.387 51.0973 191.872 50.5693 192.032C50.6807 191.748 50.9442 191.175 51.3172 190.997C51.429 190.944 51.5404 190.931 51.6546 190.96Z" fill="#025ACE"/>
<path d="M49.935 191.403L45.6884 190.184C45.5338 190.14 45.374 190.207 45.3034 190.347L43.7377 193.45C43.5754 193.772 43.7689 194.177 44.1274 194.273C45.6164 194.673 46.3575 194.794 48.2252 195.33C49.3743 195.66 51.7119 196.457 53.2983 196.913C54.8502 197.358 55.4747 195.878 54.8598 195.552C52.1027 194.087 51.2199 192.905 50.4918 191.809C50.3607 191.611 50.161 191.468 49.935 191.403Z" fill="#263238"/>
<path d="M77.8868 195.182H73.6422C73.4833 195.182 73.3504 195.292 73.323 195.447L72.7062 198.902C72.6424 199.26 72.9289 199.6 73.2957 199.593C74.8259 199.567 77.0344 199.478 78.9587 199.478C81.2089 199.478 82.4396 199.601 85.0787 199.601C86.6742 199.601 87.0467 197.987 86.3723 197.841C83.3027 197.176 81.5349 197.105 78.8363 195.485C78.5435 195.308 78.2224 195.182 77.8868 195.182Z" fill="#263238"/>
<path opacity="0.2" d="M77.9275 186.633H74.0391V191.272H77.9275V186.633Z" fill="black"/>
<path opacity="0.2" d="M48.3759 182.606L52.2596 183.027L50.8527 187.873L47.0684 187.11L48.3759 182.606Z" fill="black"/>
<path d="M71.533 97.1348C71.533 97.1348 69.3908 126.468 67.4559 137.596C65.3372 149.782 53.0228 187.096 53.0228 187.096L45.9648 185.808C45.9648 185.808 54.8583 150.766 55.8437 138.7C56.9132 125.605 58.2 98.6122 58.2 98.6122L71.533 97.1348Z" fill="#13254D"/>
<path opacity="0.2" d="M67.9186 109.315C68.3069 107.699 69.1891 109.73 70.2149 113.249C69.4387 121.957 68.4235 132.042 67.4558 137.598C67.2379 138.842 66.9134 140.352 66.5098 142.058C66.8659 129.634 66.877 113.675 67.9186 109.315Z" fill="black"/>
<path d="M78.8638 96.3223C78.8638 96.3223 81.6848 125.824 81.7803 137.677C81.8797 150.006 79.339 190.374 79.339 190.374H72.7544C72.7544 190.374 70.7787 150.726 69.9565 138.618C69.0598 125.418 65.2812 97.8271 65.2812 97.8271L78.8638 96.3223Z" fill="#13254D"/>
<path d="M54.5109 184.721C54.5412 184.726 53.4055 187.276 53.4055 187.276L45.4648 185.828L45.9468 183.455L54.5109 184.721Z" fill="#263238"/>
<path d="M80.4911 187.752C80.5213 187.752 80.239 190.486 80.239 190.486H72.2293L71.9062 188.046L80.4911 187.752Z" fill="#263238"/>
<path d="M58.4061 70.0297C57.8791 71.0545 57.2992 72.1278 56.7679 73.1896L55.1556 76.3845C54.6333 77.4529 54.1221 78.5214 53.6272 79.5899C53.1496 80.6622 52.6807 81.7293 52.2655 82.7944L52.2295 81.112C52.5271 81.9544 52.8218 82.8145 53.2384 83.6392C53.4261 84.0597 53.6623 84.4619 53.8706 84.8805C54.1082 85.2841 54.3362 85.696 54.5968 86.0925C55.098 86.8974 55.6509 87.6851 56.2461 88.4478C56.5452 88.828 56.8432 89.2129 57.16 89.5811C57.4696 89.9401 57.821 90.3232 58.1013 90.6347L58.1978 90.7417C58.7085 91.3105 58.662 92.1856 58.0932 92.6963C57.6424 93.1009 56.9973 93.1542 56.4957 92.8763C55.9466 92.571 55.5069 92.2878 55.0428 91.9624C54.5882 91.6422 54.1394 91.3134 53.7084 90.9616C52.8453 90.2593 52.0399 89.4837 51.2805 88.6509C50.526 87.8161 49.8146 86.9233 49.193 85.9561C48.5498 85.0038 48.0136 83.9646 47.5308 82.8952C47.3157 82.419 47.2927 81.9049 47.428 81.4403L47.4948 81.2128C47.861 79.9605 48.269 78.7441 48.7202 77.5542C49.1695 76.3667 49.6504 75.1998 50.1592 74.0507C50.6647 72.9011 51.2032 71.7707 51.7624 70.6518C52.338 69.5334 52.8904 68.439 53.5418 67.3211C54.316 65.9925 56.0205 65.5437 57.3487 66.3174C58.6327 67.0657 59.0954 68.6829 58.4258 69.9894L58.4061 70.0297Z" fill="#FF8B7B"/>
<path d="M61.1643 68.3297C61.3553 71.9902 57.198 78.7169 57.198 78.7169L48.6387 74.4401C48.6387 74.4401 50.0988 69.8009 53.3796 66.1711C57.9108 61.1594 60.9872 64.9394 61.1643 68.3297Z" fill="#282E32"/>
<path d="M55.3633 92.1933L57.0865 95.0743L60.6721 92.7799C60.6721 92.7799 59.7193 90.9477 57.8847 90.2709C57.3394 90.0698 56.7212 90.329 56.4265 90.8795L55.3633 92.1933Z" fill="#FF8B7B"/>
<path d="M58.524 96.3006L60.1901 95.9886C60.78 95.8782 61.1669 95.308 61.0517 94.719L60.6715 92.7803L57.0859 95.0747L57.3288 95.655C57.5251 96.1254 58.0234 96.3942 58.524 96.3006Z" fill="#FF8B7B"/>
<path d="M68.6332 49.9172C68.6707 50.2316 68.8655 50.473 69.0681 50.4572C69.2707 50.4409 69.4046 50.1735 69.3667 49.8591C69.3292 49.5447 69.1343 49.3033 68.9318 49.3191C68.7297 49.3349 68.5958 49.6028 68.6332 49.9172Z" fill="#263238"/>
<path d="M68.8379 50.4756C68.8379 50.4756 69.759 52.2324 70.6393 53.0455C70.1531 53.6076 69.1926 53.4444 69.1926 53.4444L68.8379 50.4756Z" fill="#FF5652"/>
<path d="M67.2898 48.2619C67.3392 48.2682 67.3896 48.2543 67.4285 48.2197C68.0232 47.6917 68.6669 47.8693 68.6938 47.8765C68.7927 47.9043 68.8911 47.8487 68.9155 47.7512C68.94 47.6533 68.881 47.5511 68.7831 47.5218C68.7495 47.5112 67.9253 47.276 67.1803 47.9375C67.1055 48.0032 67.1011 48.1203 67.1698 48.1981C67.2024 48.2346 67.2456 48.2567 67.2898 48.2619Z" fill="#263238"/>
<path d="M58.959 53.3936C59.8767 56.1699 61.0955 61.2958 59.355 63.3464C59.355 63.3464 60.4974 66.1448 65.7625 65.7012C71.5518 65.2136 68.1615 62.6048 68.1615 62.6048C64.9052 62.119 64.6868 59.7766 64.9556 57.5369L58.959 53.3936Z" fill="#FF8B7B"/>
<path d="M58.116 64.3625C57.5703 63.4937 56.966 62.4986 57.9936 62.1286C59.1245 61.7215 65.4572 61.0586 67.7127 61.6135C69.9682 62.1684 69.5112 64.0049 69.5112 64.0049L58.116 64.3625Z" fill="#025ACE"/>
<path d="M76.6657 65.5315C77.4918 66.2909 78.3846 67.128 79.2716 67.8984C80.1587 68.6851 81.0591 69.4536 81.9606 70.2125C82.8697 70.9589 83.7856 71.686 84.71 72.3816C85.6422 73.0574 86.5758 73.7093 87.5199 74.2805L85.5942 74.1009C86.306 73.9214 87.074 73.5782 87.8243 73.067C88.5721 72.5568 89.3204 71.9265 90.0179 71.2046C90.7273 70.4933 91.395 69.696 92.0396 68.866C92.3598 68.4494 92.6824 68.027 92.9848 67.5907C93.2819 67.162 93.5915 66.6936 93.8564 66.2923L93.9087 66.2131C94.3302 65.5737 95.1904 65.3976 95.8297 65.819C96.3496 66.1617 96.5622 66.7958 96.3976 67.3637C96.2161 67.9872 96.026 68.52 95.8023 69.0806C95.5825 69.6331 95.3535 70.1837 95.0924 70.7217C94.5702 71.7984 93.9692 72.8501 93.2555 73.8633C92.5359 74.8689 91.7176 75.8524 90.71 76.7294C89.7092 77.6049 88.5116 78.3984 87.0894 78.8995C86.487 79.1116 85.8553 79.0574 85.323 78.7982L85.1636 78.72C83.9459 78.1214 82.7977 77.4643 81.6995 76.7582C80.6056 76.0526 79.5539 75.3072 78.5339 74.5325C77.5148 73.7587 76.5308 72.9499 75.5708 72.1171C74.6127 71.2656 73.6892 70.4472 72.7542 69.4934C71.6785 68.3952 71.6963 66.6326 72.7945 65.5569C73.8558 64.5172 75.5377 64.499 76.6206 65.4907L76.6657 65.5315Z" fill="#FF8B7B"/>
<path d="M73.7352 63.0442C73.7352 63.0442 78.5712 67.74 79.1309 96.7776C71.3976 98.651 63.9499 99.3427 58.2005 98.6122C57.9245 94.9694 57.5193 82.3282 53.8219 68.9966C53.1629 66.6202 54.6585 64.1899 57.0801 63.7224C57.8155 63.5803 58.5878 63.4493 59.3553 63.347C61.9862 62.9971 65.8075 62.5901 68.1614 62.6059C71.2646 62.6261 73.7352 63.0442 73.7352 63.0442Z" fill="#282E32"/>
<path d="M69.978 68.1C70.4422 71.736 76.6754 78.7171 76.6754 78.7171L84.0833 71.0395C84.0833 71.0395 80.8798 67.5931 76.9663 64.6565C71.562 60.6024 69.5479 64.7323 69.978 68.1Z" fill="#282E32"/>
<path d="M95.9444 68.6373L98.4197 66.3697L95.4505 63.3193C95.4505 63.3193 93.8473 64.6216 93.5535 66.5545C93.4661 67.1291 93.8449 67.6825 94.4434 67.8606L95.9444 68.6373Z" fill="#FF8B7B"/>
<path d="M99.3315 64.7141L98.6907 63.145C98.4636 62.5891 97.8277 62.3251 97.2737 62.5565L95.4512 63.3187L98.4204 66.3691L98.9403 66.0149C99.3608 65.7279 99.524 65.1855 99.3315 64.7141Z" fill="#FF8B7B"/>
<path d="M58.2182 50.0703C58.9132 53.9108 59.1282 56.186 61.2868 58.0143C64.534 60.7647 69.0201 58.6249 69.4674 54.7009C69.8702 51.169 68.6658 45.4815 64.7572 44.2412C60.9066 43.0191 57.5231 46.2298 58.2182 50.0703Z" fill="#FF8B7B"/>
<path d="M65.7913 51.4616C67.1405 51.7721 68.2042 50.2126 68.3309 49.7681C67.6748 49.8315 66.5108 49.4931 66.278 49.1964C66.9975 49.2598 67.6959 48.3708 67.7809 48.0324C66.9975 47.9268 66.1301 47.2491 65.8973 46.8046C67.0613 46.7835 68.4658 44.7305 67.1813 42.8888C65.8973 41.0475 60.5425 42.5926 59.7802 41.2803C58.6585 41.9364 59.653 42.8043 59.653 42.8043C59.653 42.8043 52.0757 44.2222 55.5682 47.1646C53.0074 47.3974 52.6474 50.4276 54.7849 51.9708C56.9228 53.514 57.0284 54.5302 56.1817 54.403C56.5201 55.0592 58.0417 55.1436 58.1276 54.5091C58.4885 55.8425 59.5258 57.6416 61.9177 57.3454C64.3095 57.0492 66.6586 53.7051 65.7913 51.4616Z" fill="#263238"/>
<path d="M56.2424 46.7222C54.439 46.9704 53.6153 45.9518 54.0689 45.0557C51.8331 46.1971 54.2744 48.7238 56.2424 46.7222Z" fill="#263238"/>
<path d="M63.9198 50.8788C64.2284 51.7159 64.8639 52.4307 65.4947 52.8526C66.4431 53.4871 67.3254 52.8593 67.1598 51.8767C67.0105 50.9926 66.3375 49.5967 65.3382 49.3476C64.3537 49.1023 63.567 49.9217 63.9198 50.8788Z" fill="#FF8B7B"/>
<path d="M185.656 186.008C182.104 177.627 180.668 167.781 184.735 168.177C188.906 168.583 188.414 183.443 189.093 185.075C187.789 186.192 185.656 186.008 185.656 186.008Z" fill="#025ACE"/>
<path d="M186.807 170.107C185.93 173.302 185.008 178.243 184.299 182.429C184.702 183.628 185.158 184.833 185.653 186.009C185.653 186.009 187.787 186.193 189.095 185.075C188.56 183.789 188.75 174.264 186.807 170.107Z" fill="#263238"/>
<path d="M186.824 184.473C185.714 166.664 188.759 150.159 196.733 150.904C203.588 151.545 193.594 181.527 193.786 184.986C190.647 186.203 186.824 184.473 186.824 184.473Z" fill="#025ACE"/>
<path d="M192.008 184.357C193.264 171.557 200.014 156.621 202.916 161.611C206.599 167.945 197.163 183.037 196.903 185.521C194.529 186.026 192.008 184.357 192.008 184.357Z" fill="#025ACE"/>
<path d="M190.736 155.657C189.928 155.524 189.476 155.018 189.527 154.304C189.585 153.5 190.247 152.699 190.864 152.687C191.157 152.689 191.658 152.839 191.782 153.952L191.305 154.006C191.246 153.479 191.087 153.167 190.877 153.167C190.876 153.167 190.874 153.167 190.873 153.167C190.545 153.173 190.047 153.765 190.006 154.338C189.972 154.806 190.244 155.089 190.813 155.183L190.736 155.657Z" fill="#025ACE"/>
<path d="M199.358 158.886C199.115 158.886 198.796 158.792 198.377 158.517L198.639 158.115C199.085 158.406 199.43 158.483 199.561 158.317C199.765 158.06 199.626 157.299 199.21 156.903C198.87 156.579 198.479 156.607 198.043 156.987L197.729 156.625C198.345 156.087 199.024 156.061 199.541 156.555C200.124 157.112 200.32 158.132 199.937 158.615C199.838 158.741 199.658 158.886 199.358 158.886Z" fill="#025ACE"/>
<path d="M187.59 166.13C186.941 166.13 186.481 165.791 186.335 165.187C186.144 164.404 186.528 163.439 187.111 163.239C187.385 163.146 187.913 163.14 188.373 164.163L187.935 164.36C187.717 163.874 187.469 163.625 187.267 163.693C186.957 163.799 186.664 164.515 186.801 165.074C186.911 165.529 187.258 165.715 187.827 165.631L187.898 166.106C187.791 166.122 187.689 166.13 187.59 166.13Z" fill="#025ACE"/>
<path d="M182.483 176.071C181.991 176.071 181.598 175.822 181.383 175.352C181.047 174.619 181.242 173.598 181.776 173.291C182.028 173.147 182.546 173.042 183.19 173.96L182.797 174.235C182.491 173.799 182.198 173.602 182.015 173.707C181.731 173.87 181.58 174.628 181.819 175.152C182.015 175.578 182.39 175.695 182.933 175.504L183.093 175.957C182.878 176.033 182.673 176.071 182.483 176.071Z" fill="#025ACE"/>
<path d="M190.986 161.578C190.937 161.578 190.889 161.563 190.846 161.533C190.187 161.062 189.95 160.41 190.213 159.79C190.49 159.137 191.243 158.702 191.89 158.82C192.186 158.875 192.88 159.139 192.929 160.417C192.934 160.549 192.831 160.661 192.698 160.666C192.569 160.67 192.454 160.567 192.449 160.435C192.424 159.77 192.195 159.365 191.803 159.293C191.38 159.215 190.842 159.535 190.654 159.978C190.48 160.388 190.648 160.802 191.125 161.143C191.233 161.22 191.258 161.37 191.181 161.478C191.134 161.543 191.06 161.578 190.986 161.578Z" fill="white"/>
<path d="M196.677 174.533C196.566 174.533 196.466 174.455 196.442 174.342C196.415 174.212 196.499 174.085 196.629 174.058C197.28 173.923 197.641 173.628 197.647 173.231C197.654 172.8 197.248 172.324 196.779 172.212C196.349 172.109 195.967 172.343 195.709 172.871C195.652 172.991 195.507 173.039 195.389 172.981C195.27 172.923 195.22 172.78 195.278 172.661C195.634 171.931 196.234 171.588 196.891 171.745C197.582 171.91 198.137 172.579 198.127 173.238C198.123 173.539 197.978 174.267 196.726 174.527C196.71 174.531 196.693 174.533 196.677 174.533Z" fill="white"/>
<path d="M203.424 170.489C203.148 170.489 202.778 170.324 202.361 169.703L202.76 169.436C203.057 169.878 203.343 170.078 203.531 169.98C203.818 169.823 203.986 169.068 203.757 168.539C203.571 168.109 203.198 167.984 202.651 168.164L202.501 167.708C203.277 167.452 203.912 167.692 204.197 168.349C204.518 169.089 204.301 170.105 203.761 170.401C203.676 170.447 203.562 170.489 203.424 170.489Z" fill="#025ACE"/>
<path d="M201.993 189.06C201.993 186.392 201.017 183.955 199.405 182.081C199.739 182.024 199.999 181.745 199.999 181.397C199.999 181.008 199.682 180.69 199.293 180.69H183.222C182.833 180.69 182.515 181.009 182.515 181.397C182.515 181.747 182.778 182.027 183.113 182.081C181.498 183.955 180.521 186.392 180.521 189.06C180.521 193.177 182.843 196.752 186.246 198.553C185.998 198.684 185.825 198.942 185.825 199.242C185.825 199.672 186.176 200.023 186.606 200.023H195.91C196.339 200.023 196.691 199.672 196.691 199.242C196.691 198.943 196.518 198.685 196.27 198.554C199.674 196.753 201.993 193.177 201.993 189.06Z" fill="#263238"/>
<path d="M163.508 128.18L97.1952 142.435C94.1439 143.091 91.1158 141.106 90.4663 138.024L81.7237 96.5374C81.0742 93.4555 83.0397 90.3971 86.091 89.7411L152.404 75.4857C155.455 74.8297 158.483 76.8149 159.133 79.8967L167.876 121.383C168.525 124.465 166.56 127.524 163.508 128.18Z" fill="#E1F0FF"/>
<path d="M162.326 95.0243L84.916 111.667L87.2815 122.891L164.691 106.248L162.326 95.0243Z" fill="#025ACE"/>
<path d="M97.7731 103.791L92.2156 104.986C90.6817 105.315 89.1737 104.327 88.8471 102.777L87.6644 97.1642C87.3378 95.6149 88.3167 94.0918 89.8507 93.7619L95.4082 92.5674C96.9421 92.2375 98.45 93.2262 98.7767 94.7755L99.9594 100.389C100.286 101.938 99.307 103.461 97.7731 103.791Z" fill="#DB4800"/>
<path d="M156.641 111.955L104.752 123.111L105.101 124.767L156.99 113.611L156.641 111.955Z" fill="#A6BBFF"/>
<path d="M157.34 115.277L105.451 126.433L105.8 128.089L157.689 116.933L157.34 115.277Z" fill="#A6BBFF"/>
</svg>
