<svg width="240" height="240" viewBox="0 0 240 240" fill="none" xmlns="http://www.w3.org/2000/svg">
<g clip-path="url(#clip0_478_12761)">
<path d="M240 183.551H0V183.671H240V183.551Z" fill="#E6E6E6"/>
<path d="M181.28 188.635H164.766V188.755H181.28V188.635Z" fill="#E6E6E6"/>
<path d="M53.3001 188.694H44.0078V188.814H53.3001V188.694Z" fill="#E6E6E6"/>
<path d="M120.479 188.413H101.645V188.533H120.479V188.413Z" fill="#E6E6E6"/>
<path d="M101.166 186.707H92.7461V186.827H101.166V186.707Z" fill="#E6E6E6"/>
<path d="M203.786 186.767H178.354V186.887H203.786V186.767Z" fill="#E6E6E6"/>
<path d="M113.767 162.144H21.0797C19.5691 162.144 18.3398 160.915 18.3398 159.404V29.1168C18.3398 27.6062 19.5691 26.377 21.0797 26.377H113.767C115.277 26.377 116.507 27.6062 116.507 29.1168V159.404C116.507 160.915 115.277 162.144 113.767 162.144ZM21.0797 26.4974C19.6349 26.4974 18.4598 27.6725 18.4598 29.1173V159.405C18.4598 160.849 19.6349 162.024 21.0797 162.024H113.767C115.212 162.024 116.387 160.849 116.387 159.405V29.1168C116.387 27.6725 115.212 26.497 113.767 26.497L21.0797 26.4974Z" fill="#E6E6E6"/>
<path d="M217.589 162.144H124.901C123.391 162.144 122.162 160.915 122.162 159.404V29.1168C122.162 27.6062 123.391 26.377 124.901 26.377H217.589C219.1 26.377 220.328 27.6062 220.328 29.1168V159.404C220.329 160.915 219.1 162.144 217.589 162.144ZM124.901 26.4974C123.457 26.4974 122.282 27.6725 122.282 29.1173V159.405C122.282 160.849 123.457 162.024 124.901 162.024H217.589C219.033 162.024 220.208 160.849 220.208 159.405V29.1168C220.208 27.6725 219.033 26.497 217.589 26.497L124.901 26.4974Z" fill="#E6E6E6"/>
<path d="M203.055 35.3438H137.641V111.566H203.055V35.3438Z" fill="#E0E0E0"/>
<path d="M204.832 35.3438H138.471V111.566H204.832V35.3438Z" fill="#F5F5F5"/>
<path d="M203.055 111.565H137.641V115.836H203.055V111.565Z" fill="#E0E0E0"/>
<path d="M212.961 111.565H150.49V115.836H212.961V111.565Z" fill="#F5F5F5"/>
<path d="M202.344 108.334V38.5771L140.96 38.5771V108.334L202.344 108.334Z" fill="#FAFAFA"/>
<path d="M149.791 108.333L164.4 38.5771H183.55L168.942 108.333H149.791Z" fill="white"/>
<path d="M172.041 108.333L186.65 38.5771H195.298L180.69 108.333H172.041Z" fill="white"/>
<path d="M135.771 35.2334V62.3711H142.952C142.952 62.3711 155.853 53.9563 158.784 36.6455C159.082 34.8878 157.736 33.2793 155.953 33.2793H137.725C136.647 33.2798 135.771 34.1543 135.771 35.2334Z" fill="#E0E0E0"/>
<path d="M135.771 105.875V64.5615H142.952C142.952 64.5615 147.08 72.9006 151.196 82.4929C155.945 93.5588 147.814 105.875 135.771 105.875Z" fill="#E0E0E0"/>
<path d="M142.741 64.5623H136.036C135.638 64.5623 135.316 64.2402 135.316 63.8428V63.0906C135.316 62.6932 135.638 62.3711 136.036 62.3711H142.741C143.138 62.3711 143.461 62.6932 143.461 63.0906V63.8428C143.461 64.2402 143.138 64.5623 142.741 64.5623Z" fill="#F5F5F5"/>
<path d="M206.866 35.2334V62.3711H199.686C199.686 62.3711 186.785 53.9563 183.854 36.6455C183.556 34.8878 184.902 33.2793 186.685 33.2793H204.912C205.991 33.2798 206.866 34.1543 206.866 35.2334Z" fill="#E0E0E0"/>
<path d="M206.929 105.882V64.5693H199.749C199.749 64.5693 195.621 72.9084 191.505 82.5007C186.755 93.5666 194.888 105.882 206.929 105.882Z" fill="#E0E0E0"/>
<path d="M199.897 64.5623H206.602C207 64.5623 207.322 64.2402 207.322 63.8428V63.0906C207.322 62.6932 207 62.3711 206.602 62.3711H199.897C199.5 62.3711 199.178 62.6932 199.178 63.0906V63.8428C199.178 64.2402 199.5 64.5623 199.897 64.5623Z" fill="#F5F5F5"/>
<path d="M96.4277 68.9258H67.6133V100.469H96.4277V68.9258Z" fill="#E0E0E0"/>
<path d="M100.476 68.9258H69.1699V100.469H100.476V68.9258Z" fill="#FAFAFA"/>
<path d="M97.248 97.2391V72.1543H72.3999V97.2391H97.248Z" fill="white"/>
<path d="M78.2324 84.6971C78.2324 81.4254 80.8844 78.7734 84.1561 78.7734H85.4915C88.7631 78.7734 91.4151 81.4254 91.4151 84.6971C91.4151 87.9688 88.7631 90.6208 85.4915 90.6208H84.1561C80.8844 90.6208 78.2324 87.9688 78.2324 84.6971Z" fill="#F5F5F5"/>
<path d="M44.2774 76.4503C35.9316 76.4503 29.166 69.6847 29.166 61.3389C29.166 52.9931 35.9316 46.2275 44.2774 46.2275H47.0057V76.4507H44.2774V76.4503Z" fill="#E0E0E0"/>
<path d="M47.0064 76.4502C55.3524 76.4502 62.1182 69.6844 62.1182 61.3384C62.1182 52.9924 55.3524 46.2266 47.0064 46.2266C38.6603 46.2266 31.8945 52.9924 31.8945 61.3384C31.8945 69.6844 38.6603 76.4502 47.0064 76.4502Z" fill="#FAFAFA"/>
<path d="M47.007 72.7319C53.2996 72.7319 58.4008 67.6307 58.4008 61.3381C58.4008 55.0455 53.2996 49.9443 47.007 49.9443C40.7144 49.9443 35.6133 55.0455 35.6133 61.3381C35.6133 67.6307 40.7144 72.7319 47.007 72.7319Z" fill="white"/>
<path d="M51.6999 65.6006L46.1055 61.6982L47.8786 53.0654L49.464 53.3914L47.9059 60.9797L52.6263 64.2729L51.6999 65.6006Z" fill="#E0E0E0"/>
<path d="M169.124 129.603H148.527V185.253H169.124V129.603Z" fill="#E0E0E0"/>
<path d="M163.624 185.253H169.124V176.036H157.857L163.624 185.253Z" fill="#FAFAFA"/>
<path d="M45.6417 129.603H25.0449V185.253H45.6417V129.603Z" fill="#E0E0E0"/>
<path d="M169.125 129.603H40.8418V182.08H169.125V129.603Z" fill="#FAFAFA"/>
<path d="M46.3416 185.253H40.8418V176.036H52.1084L46.3416 185.253Z" fill="#FAFAFA"/>
<path d="M164.857 134.114H45.1074V153.431H164.857V134.114Z" fill="#F0F0F0"/>
<path d="M164.857 158.098H45.1074V177.414H164.857V158.098Z" fill="#F0F0F0"/>
<path d="M147.298 134.114H45.1074V153.431H147.298V134.114Z" fill="#E0E0E0"/>
<path d="M76.5805 136.721H70.3631C70.3631 136.721 71.4426 140.447 71.4426 142.641C71.4426 144.834 66.7136 153.431 73.472 153.431C80.23 153.431 75.5015 144.834 75.5015 142.641C75.501 140.448 76.5805 136.721 76.5805 136.721Z" fill="#FAFAFA"/>
<path d="M52.1074 143.2V146.594C52.1074 150.355 55.7439 153.431 60.1892 153.431H64.201C68.6458 153.431 72.2828 150.355 72.2828 146.594V143.2H52.1074Z" fill="#F0F0F0"/>
<path d="M147.298 158.098H45.1074V177.414H147.298V158.098Z" fill="#E0E0E0"/>
<path d="M102.502 177.065H112.074V161.123H102.502V177.065Z" fill="white"/>
<path d="M110.584 177.314H111.234V161.372H110.584V177.314Z" fill="#E6E6E6"/>
<path d="M111.284 177.437H112.954C113.082 177.437 113.185 177.333 113.185 177.205V161.482C113.185 161.355 113.082 161.251 112.954 161.251H111.284C111.156 161.251 111.053 161.355 111.053 161.482V177.205C111.053 177.333 111.156 177.437 111.284 177.437Z" fill="#EBEBEB"/>
<path d="M111.053 168.729H113.186V164.947H111.053V168.729Z" fill="white"/>
<path d="M111.053 172.227H113.186V169.895H111.053V172.227Z" fill="white"/>
<path d="M102.018 177.437H110.641C110.768 177.437 110.872 177.333 110.872 177.205V161.482C110.872 161.355 110.768 161.251 110.641 161.251H102.018C101.891 161.251 101.787 161.355 101.787 161.482V177.205C101.787 177.333 101.89 177.437 102.018 177.437Z" fill="#EBEBEB"/>
<path d="M97.837 177.027H108.396V159.441H97.837V177.027Z" fill="white"/>
<path d="M106.753 177.302H107.471V159.715H106.753V177.302Z" fill="#E6E6E6"/>
<path d="M107.527 177.436H109.369C109.51 177.436 109.624 177.322 109.624 177.181V159.836C109.624 159.695 109.51 159.581 109.369 159.581H107.527C107.386 159.581 107.271 159.695 107.271 159.836V177.181C107.272 177.322 107.386 177.436 107.527 177.436Z" fill="#F0F0F0"/>
<path d="M107.271 165.877H109.623V165.269H107.271V165.877Z" fill="white"/>
<path d="M107.271 167.641H109.623V167.033H107.271V167.641Z" fill="white"/>
<path d="M107.271 169.403H109.623V168.796H107.271V169.403Z" fill="white"/>
<path d="M97.3042 177.436H106.816C106.957 177.436 107.071 177.322 107.071 177.181V159.836C107.071 159.695 106.957 159.581 106.816 159.581H97.3042C97.1631 159.581 97.0488 159.695 97.0488 159.836V177.181C97.0488 177.322 97.1631 177.436 97.3042 177.436Z" fill="#F0F0F0"/>
<path d="M84.8246 171.31C84.8246 172.804 83.6136 174.015 82.1193 174.015C80.6251 174.015 79.4141 172.804 79.4141 171.31C79.4141 169.816 80.6251 168.604 82.1193 168.604C83.6136 168.605 84.8246 169.816 84.8246 171.31Z" fill="#FAFAFA"/>
<path d="M80.2122 172.599C80.2122 173.767 79.2651 174.714 78.0973 174.714C76.9295 174.714 75.9824 173.768 75.9824 172.599C75.9824 171.431 76.9295 170.484 78.0973 170.484C79.2651 170.484 80.2122 171.431 80.2122 172.599Z" fill="#FAFAFA"/>
<path d="M89.4555 172.6C89.4555 174.094 88.2444 175.305 86.7502 175.305C85.256 175.305 84.0449 174.094 84.0449 172.6C84.0449 171.106 85.256 169.895 86.7502 169.895C88.2444 169.894 89.4555 171.106 89.4555 172.6Z" fill="#FAFAFA"/>
<path d="M93.893 171.805C93.893 173.299 92.6819 174.51 91.1877 174.51C89.6935 174.51 88.4824 173.299 88.4824 171.805C88.4824 170.311 89.6935 169.1 91.1877 169.1C92.6819 169.1 93.893 170.311 93.893 171.805Z" fill="#FAFAFA"/>
<path d="M70.6465 172.158C70.6465 172.158 71.018 177.436 85.2577 177.436C99.4974 177.436 99.8689 172.158 99.8689 172.158H70.6465Z" fill="#F5F5F5"/>
<path d="M110.584 148.153C110.584 148.153 111.173 153.431 133.741 153.431C156.308 153.431 156.897 148.153 156.897 148.153H110.584Z" fill="white"/>
<path d="M120 205.229C171.4 205.229 213.067 202.796 213.067 199.794C213.067 196.793 171.4 194.359 120 194.359C68.601 194.359 26.9336 196.793 26.9336 199.794C26.9336 202.796 68.601 205.229 120 205.229Z" fill="#F5F5F5"/>
<path d="M70.524 127.838C80.6767 117.685 80.6767 101.225 70.524 91.0721C60.3714 80.9194 43.9107 80.9194 33.758 91.0721C23.6054 101.225 23.6054 117.685 33.758 127.838C43.9107 137.991 60.3714 137.991 70.524 127.838Z" fill="#407BFF"/>
<path opacity="0.4" d="M70.524 127.838C80.6767 117.685 80.6767 101.225 70.524 91.0721C60.3714 80.9194 43.9107 80.9194 33.758 91.0721C23.6054 101.225 23.6054 117.685 33.758 127.838C43.9107 137.991 60.3714 137.991 70.524 127.838Z" fill="black"/>
<path opacity="0.2" d="M73.6698 113.129C75.6978 101.243 67.7064 89.964 55.8205 87.936C43.9346 85.908 32.6551 93.8994 30.6271 105.785C28.5991 117.671 36.5905 128.951 48.4764 130.979C60.3624 133.007 71.6418 125.015 73.6698 113.129Z" fill="black"/>
<path d="M74.4305 111.809C75.2523 100.264 66.5594 90.2391 55.0145 89.4173C43.4696 88.5956 33.4444 97.2885 32.6227 108.833C31.8009 120.378 40.4938 130.403 52.0387 131.225C63.5836 132.047 73.6088 123.354 74.4305 111.809Z" fill="#407BFF"/>
<path opacity="0.4" d="M74.4305 111.809C75.2523 100.264 66.5594 90.2391 55.0145 89.4173C43.4696 88.5956 33.4444 97.2885 32.6227 108.833C31.8009 120.378 40.4938 130.403 52.0387 131.225C63.5836 132.047 73.6088 123.354 74.4305 111.809Z" fill="black"/>
<path d="M107.62 88.7657C114.087 81.1116 113.124 69.6644 105.471 63.1977C97.8165 56.7311 86.3694 57.6938 79.9026 65.3479C73.4357 73.0021 74.3981 84.4493 82.0521 90.9159C89.7061 97.3826 101.153 96.4199 107.62 88.7657Z" fill="#407BFF"/>
<path opacity="0.4" d="M107.62 88.7657C114.087 81.1116 113.124 69.6644 105.471 63.1977C97.8165 56.7311 86.3694 57.6938 79.9026 65.3479C73.4357 73.0021 74.3981 84.4493 82.0521 90.9159C89.7061 97.3826 101.153 96.4199 107.62 88.7657Z" fill="black"/>
<path opacity="0.2" d="M105.499 86.7733C110.86 80.2887 109.95 70.6857 103.465 65.3244C96.9805 59.963 87.3775 60.8736 82.0162 67.3582C76.6548 73.8428 77.5654 83.4458 84.05 88.8072C90.5346 94.1685 100.138 93.2579 105.499 86.7733Z" fill="black"/>
<path d="M105.955 86.918C110.86 80.5011 109.633 71.3235 103.216 66.4193C96.7994 61.5152 87.6219 62.7415 82.7177 69.1584C77.8135 75.5754 79.0398 84.753 85.4568 89.6571C91.8737 94.5613 101.051 93.335 105.955 86.918Z" fill="#407BFF"/>
<path opacity="0.4" d="M105.955 86.918C110.86 80.5011 109.633 71.3235 103.216 66.4193C96.7994 61.5152 87.6219 62.7415 82.7177 69.1584C77.8135 75.5754 79.0398 84.753 85.4568 89.6571C91.8737 94.5613 101.051 93.335 105.955 86.918Z" fill="black"/>
<path d="M99.3615 74.5634L98.4074 76.0178H96.5667C96.5648 76.0236 96.5648 76.0295 96.5629 76.0351C95.8366 79.7489 91.5607 79.8707 91.5607 79.8707L97.2754 86.8795H95.1509L89.3336 80.1508V78.7524C89.3336 78.7524 89.3336 78.7524 89.6234 78.7524C89.6234 78.7524 89.6234 78.7524 91.2032 78.7524H91.493C93.66 78.7524 94.676 77.3967 94.7841 76.0176H88.801L89.8884 74.5632H94.5525C94.5486 74.5534 94.5467 74.5459 94.5428 74.5362C93.9653 73.2286 92.2811 72.9873 91.6727 72.9873H91.3832C90.4889 72.9873 89.0906 72.9873 89.0906 72.9873C88.9109 72.9873 88.8008 72.9873 88.8008 72.9873L89.8436 71.5195H99.4346L98.469 72.9873L95.8269 73.0124C96.0587 73.2905 96.3714 73.864 96.528 74.5632H99.3615V74.5634Z" fill="white"/>
<path d="M60.9602 103.446L59.529 105.627H56.7681C56.7652 105.636 56.7652 105.645 56.7622 105.653C55.6729 111.224 49.259 111.407 49.259 111.407L57.8311 121.92H54.6443L45.9184 111.827V109.729C45.9184 109.729 45.9184 109.729 46.3531 109.729C46.3531 109.729 46.3531 109.729 48.7228 109.729H49.1575C52.4079 109.729 53.9319 107.696 54.0941 105.627H45.1195L46.7506 103.445H53.7467C53.7409 103.431 53.738 103.419 53.7321 103.405C52.866 101.444 50.3396 101.082 49.4271 101.082H48.9927C47.6514 101.082 45.5538 101.082 45.5538 101.082C45.2843 101.082 45.1191 101.082 45.1191 101.082L46.6833 98.8799H61.0698L59.6214 101.082L55.6583 101.119C56.0061 101.536 56.4751 102.397 56.71 103.445H60.9602V103.446Z" fill="white"/>
<path d="M189.942 133.851C190.04 133.818 190.141 133.796 190.24 133.769L190.551 133.684L190.552 133.692C190.838 133.634 191.127 133.592 191.422 133.585C195.269 133.487 198.406 137.884 198.475 143.488C198.544 149.066 195.556 153.85 191.711 154.278L191.712 154.29L167.13 162.339L165.502 161.666V140.334L189.942 133.851Z" fill="#5E93FF"/>
<path d="M167.13 141.033L194.552 153.072C194.552 153.072 192.733 154.164 191.711 154.277L191.712 154.29L167.13 162.339L165.502 161.666V140.334L167.13 141.033Z" fill="#3666C7"/>
<path d="M167.129 162.338V141.032L189.941 134.981C190.039 134.949 190.139 134.926 190.239 134.9L190.55 134.815L190.551 134.823C190.837 134.765 191.126 134.723 191.421 134.715C195.268 134.617 198.405 139.014 198.474 144.619C198.543 150.197 195.555 154.981 191.71 155.408L191.711 155.42L167.129 162.338Z" fill="#0A43B8"/>
<path d="M194.193 144.792C194.082 147.536 192.191 149.886 189.759 150.162C187.067 150.466 184.587 148.171 184.487 144.863C184.383 141.387 186.927 138.723 189.852 139.039C192.473 139.322 194.307 141.935 194.193 144.792Z" fill="#BFA847"/>
<path d="M194.759 145.358C194.649 148.101 192.757 150.452 190.326 150.727C187.634 151.032 185.154 148.736 185.054 145.428C184.949 141.953 187.494 139.288 190.419 139.605C193.039 139.887 194.874 142.5 194.759 145.358Z" fill="#FFE05E"/>
<path d="M193 145.288C192.93 147.038 191.723 148.537 190.172 148.712C188.456 148.907 186.874 147.443 186.811 145.333C186.744 143.117 188.366 141.417 190.232 141.619C191.903 141.8 193.073 143.467 193 145.288Z" fill="#DBC151"/>
<path d="M171.785 109.44H65.4385C62.4856 109.44 60.0918 111.834 60.0918 114.787V186.909C60.0918 189.862 62.4856 192.256 65.4385 192.256H169.997L169.673 192.535L171.983 194.482L175.541 190.713C176.522 189.744 177.132 188.398 177.132 186.91V114.788C177.131 111.834 174.737 109.44 171.785 109.44Z" fill="#2D5DC2"/>
<path d="M172.165 114.732L175.767 111.229C174.788 110.134 173.369 109.44 171.785 109.44H65.4385C62.4856 109.44 60.0918 111.834 60.0918 114.787V186.909C60.0918 189.862 62.4856 192.256 65.4385 192.256H109.382C118.679 181.54 172.165 114.732 172.165 114.732Z" fill="#3D76EB"/>
<path d="M168.333 195.928H61.9873C59.0345 195.928 56.6406 193.534 56.6406 190.581V118.459C56.6406 115.506 59.0345 113.112 61.9873 113.112H168.333C171.286 113.112 173.68 115.506 173.68 118.459V190.581C173.68 193.535 171.286 195.928 168.333 195.928Z" fill="#0A43B8"/>
<path d="M163.14 191.691H74.8569C71.7971 191.691 69.3164 189.21 69.3164 186.151V123.438C69.3164 120.379 71.7965 117.898 74.8569 117.898H163.14C166.2 117.898 168.681 120.379 168.681 123.438V186.15C168.68 189.21 166.199 191.691 163.14 191.691Z" fill="#2259C9"/>
<path d="M159.484 182.319H77.1581C73.9559 182.319 71.3594 179.723 71.3594 176.521V126.271C71.3594 123.069 73.9553 120.473 77.1581 120.473H159.484C162.687 120.473 165.283 123.069 165.283 126.271V176.521C165.283 179.723 162.687 182.319 159.484 182.319Z" fill="#338EB3"/>
<path d="M158.353 183.45H76.0272C72.825 183.45 70.2285 180.854 70.2285 177.651V127.402C70.2285 124.2 72.8244 121.604 76.0272 121.604H158.354C161.556 121.604 164.152 124.199 164.152 127.402V177.651C164.152 180.854 161.556 183.45 158.353 183.45Z" fill="#1FC0E5"/>
<path d="M92.8311 157.382H77.473C76.1954 157.382 75.1602 156.347 75.1602 155.069V145.787C75.1602 144.509 76.1954 143.474 77.473 143.474H92.8311C94.1081 143.474 95.144 144.509 95.144 145.787V155.069C95.144 156.347 94.1081 157.382 92.8311 157.382Z" fill="#7DA6FF"/>
<path d="M75.1602 147.961H95.144" stroke="#FFFCFC" stroke-width="0.8219" stroke-miterlimit="10"/>
<path d="M75.1602 152.896H95.144" stroke="#FFFCFC" stroke-width="0.8219" stroke-miterlimit="10"/>
<path d="M81.2266 152.896V147.961" stroke="#FFFCFC" stroke-width="0.8219" stroke-miterlimit="10"/>
<path d="M89.0762 152.896V147.961" stroke="#FFFCFC" stroke-width="0.8219" stroke-miterlimit="10"/>
<path d="M92.3879 167.608H76.2723C75.6583 167.608 75.1602 167.111 75.1602 166.496V163.673C75.1602 163.059 75.6577 162.561 76.2723 162.561H92.3879C93.0019 162.561 93.5001 163.058 93.5001 163.673V166.496C93.5001 167.11 93.0019 167.608 92.3879 167.608Z" fill="#FEE1A8"/>
<path d="M114.294 167.608H98.1785C97.5646 167.608 97.0664 167.111 97.0664 166.496V163.673C97.0664 163.059 97.564 162.561 98.1785 162.561H114.294C114.908 162.561 115.406 163.058 115.406 163.673V166.496C115.406 167.11 114.909 167.608 114.294 167.608Z" fill="#FEE1A8"/>
<path d="M136.202 167.608H120.087C119.473 167.608 118.975 167.111 118.975 166.496V163.673C118.975 163.059 119.473 162.561 120.087 162.561H136.202C136.816 162.561 137.315 163.058 137.315 163.673V166.496C137.315 167.11 136.816 167.608 136.202 167.608Z" fill="#FEE1A8"/>
<path d="M158.109 167.608H141.993C141.379 167.608 140.881 167.111 140.881 166.496V163.673C140.881 163.059 141.378 162.561 141.993 162.561H158.109C158.723 162.561 159.221 163.058 159.221 163.673V166.496C159.221 167.11 158.723 167.608 158.109 167.608Z" fill="#FEE1A8"/>
<path d="M158.043 179.244H107.703C107.052 179.244 106.525 178.716 106.525 178.066V175.331C106.525 174.68 107.052 174.153 107.703 174.153H158.043C158.693 174.153 159.22 174.68 159.22 175.331V178.066C159.22 178.716 158.693 179.244 158.043 179.244Z" fill="#9098BD"/>
<path d="M146.447 172.174H141.741C141.42 172.174 141.16 171.914 141.16 171.593V170.048C141.16 169.727 141.42 169.467 141.741 169.467H146.447C146.768 169.467 147.028 169.727 147.028 170.048V171.593C147.029 171.914 146.768 172.174 146.447 172.174Z" fill="#9098BD"/>
<path d="M158.418 172.174H153.712C153.391 172.174 153.131 171.914 153.131 171.593V170.048C153.131 169.727 153.391 169.467 153.712 169.467H158.418C158.739 169.467 158.999 169.727 158.999 170.048V171.593C158.999 171.914 158.739 172.174 158.418 172.174Z" fill="#9098BD"/>
<path d="M69.3164 147.335V186.151C69.3164 189.211 71.7971 191.691 74.8569 191.691H163.14C166.2 191.691 168.681 189.21 168.681 186.151V147.335H69.3164Z" fill="#4377E0"/>
<path d="M69.3164 167.884V186.15C69.3164 189.21 71.7971 191.69 74.8569 191.69H163.14C166.2 191.69 168.681 189.21 168.681 186.15V167.884H69.3164Z" fill="#255AC4"/>
<path d="M135.209 207.729L128.922 210.887L129.281 129.622L136.364 128.387V205.857C136.364 206.649 135.917 207.374 135.209 207.729Z" fill="#2259C9"/>
<path d="M136.363 128.388C136.363 128.388 136.62 126.821 134.888 126.443C133.678 126.179 63.1467 109.962 63.1467 109.962L56.6406 111.973L128.525 131.409L136.363 128.388Z" fill="#3D76EB"/>
<path d="M128.16 128.981L56.6406 111.973V190.443C56.6406 192.984 58.3892 195.189 60.8622 195.769L126.544 211.167C128.75 211.684 130.861 210.01 130.861 207.744V132.4C130.862 130.772 129.744 129.357 128.16 128.981Z" fill="#2560D9"/>
<path d="M56.6406 116.623L58.2917 117.015" stroke="#E0FEFD" stroke-width="0.9571" stroke-miterlimit="10"/>
<path d="M61.5975 117.802L121.679 132.09C124.41 132.74 126.338 135.18 126.338 137.988V198.804C126.338 202.717 122.685 205.605 118.878 204.702L59.9453 190.725" stroke="#E0FEFD" stroke-width="0.9571" stroke-miterlimit="10" stroke-dasharray="5.75 5.75"/>
<path d="M58.2917 190.332L56.6406 189.94" stroke="#E0FEFD" stroke-width="0.9571" stroke-miterlimit="10"/>
<path d="M66.1356 109.44H59.1727C57.774 109.44 56.6406 110.574 56.6406 111.973L66.1356 109.44Z" fill="#4377E0"/>
<path d="M111.833 162.482C112.302 165.521 110.558 168.312 107.937 168.717C105.315 169.122 102.809 166.987 102.34 163.949C101.871 160.91 103.615 158.118 106.236 157.713C108.858 157.309 111.363 159.444 111.833 162.482Z" fill="#BAA445"/>
<path d="M111.149 162.691C111.611 165.683 109.874 168.434 107.269 168.836C104.665 169.239 102.179 167.14 101.717 164.149C101.255 161.157 102.992 158.406 105.596 158.004C108.201 157.601 110.687 159.7 111.149 162.691Z" fill="#FFE05E"/>
<path d="M109.377 162.965C109.665 164.832 108.581 166.55 106.955 166.801C105.329 167.053 103.776 165.742 103.488 163.875C103.199 162.007 104.284 160.289 105.91 160.038C107.536 159.787 109.089 161.097 109.377 162.965Z" fill="#DBC151"/>
<path d="M155.997 80.0729C154.86 83.2841 153.617 86.3907 152.258 89.4977C150.877 92.5947 149.434 95.6595 147.6 98.6844C147.369 99.0631 147.11 99.4433 146.866 99.8215L146.68 100.105L146.424 100.454C146.254 100.673 146.092 100.868 145.929 101.053C145.287 101.783 144.648 102.385 144.005 102.98C142.726 104.163 141.419 105.24 140.099 106.299C137.452 108.403 134.744 110.372 131.934 112.241L130.258 110.16L137.346 103.201C138.512 102.045 139.666 100.878 140.748 99.7121C141.283 99.1308 141.801 98.5332 142.227 97.9855C142.331 97.8507 142.425 97.7182 142.502 97.602L142.604 97.4403L142.746 97.1926C142.934 96.859 143.128 96.5403 143.311 96.1971C144.781 93.4356 146.075 90.4155 147.321 87.3963C148.56 84.3718 149.77 81.2839 150.923 78.2422L155.997 80.0729Z" fill="#E4897B"/>
<path d="M157.349 77.7564C158.437 80.9402 152.037 90.3161 152.037 90.3161L145.898 86.9186C145.898 86.9186 147.569 82.1493 149.585 78.3732C151.748 74.3215 156.154 74.2625 157.349 77.7564Z" fill="#407BFF"/>
<path d="M157.349 77.7564C158.437 80.9402 152.037 90.3161 152.037 90.3161L145.898 86.9186C145.898 86.9186 147.569 82.1493 149.585 78.3732C151.748 74.3215 156.154 74.2625 157.349 77.7564Z" fill="#282E32"/>
<path d="M153.209 75.3214C153.209 75.3214 148.637 86.0671 151.932 106.079C157.667 106.079 168.174 106.079 170.965 106.079C171.197 103.158 169.856 88.9049 173.152 75.138C173.152 75.138 169.912 74.4833 166.808 74.3335C164.38 74.2164 160.862 74.1386 158.717 74.334C155.89 74.5913 153.209 75.3214 153.209 75.3214Z" fill="#407BFF"/>
<path d="M153.209 75.3214C153.209 75.3214 148.637 86.0671 151.932 106.079C157.667 106.079 168.174 106.079 170.965 106.079C171.197 103.158 169.856 88.9049 173.152 75.138C173.152 75.138 169.912 74.4833 166.808 74.3335C164.38 74.2164 160.862 74.1386 158.717 74.334C155.89 74.5913 153.209 75.3214 153.209 75.3214Z" fill="#282E32"/>
<path d="M177.703 191.341L174.882 193.865L169.514 188.275L172.335 185.75L177.703 191.341Z" fill="#E4897B"/>
<path d="M168.042 196.596H164.484L164.021 188.355H167.58L168.042 196.596Z" fill="#E4897B"/>
<path d="M169.518 188.276L172.284 191.158L175.107 188.632L172.34 185.75L169.518 188.276Z" fill="#CE6F64"/>
<path d="M167.581 188.357H164.021L164.261 192.605H167.821L167.581 188.357Z" fill="#CE6F64"/>
<path d="M151.93 106.08C151.93 106.08 148.182 132.027 146.902 146.152C145.876 157.482 170.38 191.288 170.38 191.288L175.12 186.827C175.12 186.827 157.222 156.534 158.6 143.92C159.934 131.702 164.458 106.079 164.458 106.079H151.93V106.08Z" fill="#407BFF"/>
<path opacity="0.7" d="M151.93 106.08C151.93 106.08 148.182 132.027 146.902 146.152C145.876 157.482 170.38 191.288 170.38 191.288L175.12 186.827C175.12 186.827 157.222 156.534 158.6 143.92C159.934 131.702 164.458 106.079 164.458 106.079H151.93V106.08Z" fill="black"/>
<path opacity="0.2" d="M158.602 143.919C159.288 137.626 160.824 127.767 162.144 119.694C161.453 118.34 159.515 115.601 159.515 115.601C157.777 121.605 154.001 144.241 159.389 174.812C165.005 183.865 170.381 191.286 170.381 191.286L171.116 179.612C165.927 169.849 157.647 152.65 158.602 143.919Z" fill="black"/>
<path d="M158.698 106.079C158.698 106.079 158.36 133.274 158.937 143.462C159.569 154.619 162.734 191.58 162.734 191.58H169.251C169.251 191.58 169.057 155.52 169.449 144.473C169.876 132.484 170.98 106.079 170.98 106.079H158.698Z" fill="#407BFF"/>
<path opacity="0.7" d="M158.698 106.079C158.698 106.079 158.36 133.274 158.937 143.462C159.569 154.619 162.734 191.58 162.734 191.58H169.251C169.251 191.58 169.057 155.52 169.449 144.473C169.876 132.484 170.98 106.079 170.98 106.079H158.698Z" fill="black"/>
<path d="M164.296 196.185H168.294C168.44 196.185 168.549 196.285 168.558 196.427L168.752 199.591C168.772 199.919 168.464 200.229 168.129 200.223C166.737 200.199 166.072 200.117 164.314 200.117C163.233 200.117 158.634 200.23 157.14 200.23C155.679 200.23 155.689 198.753 156.322 198.619C159.161 198.019 162.679 197.192 163.683 196.402C163.865 196.261 164.084 196.185 164.296 196.185Z" fill="#263238"/>
<path d="M174.104 192.853L177.533 190.544C177.662 190.458 177.825 190.463 177.926 190.555L180.547 193.2C180.78 193.415 180.704 193.785 180.421 194.003C178.233 195.687 176.653 196.959 175.408 198.36C173.952 199.999 173.188 200.23 169.828 200.23C168.273 200.23 167.394 198.921 168.028 198.72C173.628 196.947 172.131 196.176 173.49 193.58C173.638 193.298 173.833 193.035 174.104 192.853Z" fill="#263238"/>
<path d="M131.093 109.707L127.383 109.84L128.16 112.747C128.16 112.747 132.04 113.091 132.385 111.922L131.093 109.707Z" fill="#E4897B"/>
<path d="M123.381 111.57L125.98 113.09L128.161 112.747L127.384 109.84L123.381 111.57Z" fill="#E4897B"/>
<path d="M166.322 65.2227C165.721 67.8262 165.046 72.5959 166.807 74.3331C166.807 74.3331 166.048 76.4897 161.21 76.4897C155.891 76.4897 158.716 74.3331 158.716 74.3331C161.644 73.6399 161.644 71.4857 161.208 69.463L166.322 65.2227Z" fill="#E4897B"/>
<path d="M161.068 76.4902L159.631 78.0214L160.335 79.4974L161.48 79.5526L162.46 78.1414L161.068 76.4902Z" fill="#407BFF"/>
<path d="M164.236 66.9531L161.209 69.4611C161.314 69.9397 161.391 70.4255 161.409 70.8973C162.523 70.737 164.089 69.5197 164.247 68.3586C164.326 67.7797 164.321 67.2229 164.236 66.9531Z" fill="#CE6F64"/>
<path d="M160.01 56.3989C158.187 57.0181 156.736 61.8416 158.855 63.1155C160.975 64.3894 163.462 55.2262 160.01 56.3989Z" fill="#263238"/>
<path d="M167.46 62.4953C166.376 65.8664 165.914 67.8886 163.726 69.2624C160.436 71.3283 156.585 68.8332 156.635 65.2424C156.68 62.01 158.446 57.0401 162.164 56.4176C165.827 55.8036 168.545 59.1238 167.46 62.4953Z" fill="#E4897B"/>
<path d="M170.145 56.8825C169.063 59.4999 171.59 57.3135 170.936 60.4206C170.51 62.4491 166.856 67.3019 165.443 66.8588C164.03 66.4153 164.047 62.9785 165.848 60.5439C166.881 59.1471 164.639 57.5636 159.6 57.7287C154.562 57.8939 151.521 55.0671 158.215 52.9873C158.215 52.9873 155.748 54.4139 157.213 54.9337C159.289 55.6705 172.315 51.6313 170.145 56.8825Z" fill="#263238"/>
<path d="M169.185 58.0942C169.136 58.0711 170.314 57.7999 170.942 55.7139C170.942 55.7139 170.739 58.8185 169.185 58.0942Z" fill="#263238"/>
<path d="M159.765 53.4531C156.67 54.4318 157.951 55.4936 159.231 55.76L162.167 54.6099C157.708 55.1754 159.765 53.4531 159.765 53.4531Z" fill="#263238"/>
<path d="M168.053 66.6016C167.364 67.2804 166.431 67.5919 165.642 67.5914C164.457 67.5909 164.218 66.4697 164.844 65.5313C165.407 64.6865 166.703 63.6688 167.751 64.121C168.783 64.5669 168.841 65.8255 168.053 66.6016Z" fill="#E4897B"/>
<path d="M161.993 62.3074C161.922 62.5858 161.715 62.7788 161.532 62.7384C161.349 62.6981 161.258 62.4403 161.329 62.1619C161.4 61.8835 161.606 61.6906 161.79 61.7309C161.973 61.7708 162.064 62.029 161.993 62.3074Z" fill="#263238"/>
<path d="M158.822 61.614C158.751 61.8924 158.545 62.0854 158.362 62.0451C158.179 62.0052 158.088 61.747 158.159 61.4686C158.23 61.1902 158.436 60.9972 158.62 61.0376C158.803 61.0779 158.893 61.3356 158.822 61.614Z" fill="#263238"/>
<path d="M159.795 61.9727C159.795 61.9727 158.748 63.4386 157.848 64.0597C158.226 64.6275 159.124 64.6021 159.124 64.6021L159.795 61.9727Z" fill="#DE5753"/>
<path d="M160.334 65.6143C160.151 65.6143 159.955 65.5951 159.746 65.5495C159.701 65.5399 159.672 65.4948 159.682 65.4492C159.692 65.4036 159.738 65.3748 159.782 65.3848C161.016 65.6536 161.808 64.9255 161.816 64.9183C161.851 64.8866 161.904 64.8881 161.935 64.9221C161.967 64.9562 161.965 65.0095 161.931 65.0412C161.903 65.0685 161.308 65.6143 160.334 65.6143Z" fill="#263238"/>
<path d="M163.249 61.5071C163.184 61.5071 163.122 61.4692 163.094 61.4059C162.804 60.7382 162.207 60.6374 162.182 60.6335C162.091 60.6191 162.027 60.5337 162.041 60.442C162.055 60.3503 162.136 60.2879 162.231 60.3004C162.264 60.3052 163.037 60.4276 163.404 61.2724C163.441 61.3579 163.401 61.4567 163.316 61.4942C163.294 61.5023 163.271 61.5071 163.249 61.5071Z" fill="#263238"/>
<path d="M157.753 60.2351C157.715 60.2351 157.676 60.2222 157.645 60.1958C157.573 60.1362 157.564 60.0297 157.623 59.9582C158.226 59.2362 159.001 59.2977 159.035 59.3001C159.127 59.3087 159.196 59.3903 159.187 59.483C159.179 59.5751 159.098 59.6438 159.005 59.6356C158.975 59.6337 158.366 59.5934 157.881 60.1742C157.849 60.2145 157.801 60.2351 157.753 60.2351Z" fill="#263238"/>
<path d="M174.07 77.5938C174.446 78.1745 174.761 78.6867 175.076 79.243C175.39 79.7893 175.694 80.3384 175.99 80.8923C176.579 82.0025 177.13 83.1344 177.636 84.2946C178.638 86.6197 179.512 89.0341 180.015 91.6606L180.065 91.905L180.089 92.0274L180.123 92.2275C180.169 92.5189 180.18 92.7824 180.184 93.0397C180.181 93.5437 180.121 93.9853 180.038 94.3923C179.864 95.2021 179.612 95.8875 179.337 96.5312C178.789 97.8152 178.112 98.9216 177.42 99.9944C176.001 102.121 174.434 104.012 172.678 105.816L170.573 104.17C171.738 102.142 172.893 100.042 173.863 97.9818C174.353 96.9565 174.777 95.9101 175.079 94.9376C175.227 94.4537 175.33 93.9819 175.361 93.6037C175.378 93.417 175.378 93.2562 175.363 93.1578C175.352 93.1146 175.345 93.0761 175.335 93.0713C175.331 93.0627 175.337 93.0824 175.327 93.0497L175.298 92.9523L175.241 92.7574C174.964 91.7235 174.563 90.6771 174.161 89.6355C173.739 88.5954 173.266 87.5581 172.774 86.5266C172.272 85.4974 171.744 84.4736 171.198 83.4579C170.927 82.9491 170.649 82.4432 170.363 81.9445L169.52 80.4881L174.07 77.5938Z" fill="#E4897B"/>
<path d="M163.035 196.806C162.758 196.806 162.507 196.758 162.366 196.618C162.254 196.507 162.219 196.355 162.262 196.166C162.287 196.052 162.354 195.97 162.455 195.931C162.895 195.759 163.899 196.449 164.012 196.527C164.04 196.547 164.053 196.58 164.047 196.613C164.04 196.645 164.016 196.671 163.983 196.679C163.728 196.738 163.364 196.806 163.035 196.806ZM162.62 196.071C162.58 196.071 162.546 196.076 162.517 196.087C162.486 196.099 162.444 196.124 162.426 196.202C162.397 196.333 162.416 196.43 162.484 196.497C162.649 196.661 163.116 196.681 163.751 196.556C163.39 196.327 162.893 196.071 162.62 196.071Z" fill="white"/>
<path d="M163.965 196.68C163.95 196.68 163.935 196.676 163.922 196.668C163.567 196.457 163.036 195.713 163.118 195.325C163.149 195.182 163.256 195.093 163.42 195.073C163.556 195.057 163.676 195.095 163.773 195.189C164.132 195.536 164.052 196.559 164.049 196.603C164.046 196.632 164.029 196.657 164.003 196.671C163.991 196.677 163.978 196.68 163.965 196.68ZM163.478 195.237C163.466 195.237 163.453 195.238 163.44 195.24C163.32 195.254 163.293 195.311 163.283 195.36C163.23 195.613 163.581 196.174 163.889 196.436C163.899 196.098 163.87 195.516 163.656 195.31C163.606 195.262 163.547 195.237 163.478 195.237Z" fill="white"/>
<path d="M171.801 194.783C171.705 194.783 171.618 194.77 171.543 194.738C171.413 194.684 171.327 194.584 171.289 194.44C171.266 194.353 171.284 194.27 171.341 194.202C171.663 193.814 173.35 193.929 173.541 193.943C173.578 193.945 173.609 193.972 173.617 194.007C173.626 194.043 173.609 194.08 173.578 194.099C173.111 194.373 172.324 194.783 171.801 194.783ZM172.822 194.085C172.228 194.085 171.612 194.14 171.471 194.31C171.448 194.337 171.443 194.363 171.452 194.398C171.476 194.489 171.527 194.549 171.608 194.583C171.876 194.694 172.479 194.512 173.245 194.094C173.11 194.088 172.967 194.085 172.822 194.085Z" fill="white"/>
<path d="M173.533 194.111H173.531C173.041 194.099 171.97 193.743 171.887 193.357C171.866 193.264 171.89 193.129 172.117 193.02C172.944 192.629 173.582 193.934 173.609 193.99C173.621 194.017 173.62 194.048 173.604 194.072C173.589 194.096 173.562 194.111 173.533 194.111ZM172.424 193.117C172.347 193.117 172.27 193.134 172.19 193.172C172.088 193.221 172.041 193.271 172.052 193.322C172.101 193.547 172.875 193.864 173.385 193.93C173.233 193.669 172.86 193.117 172.424 193.117Z" fill="white"/>
<path d="M171.524 103.382L167.98 102.765L169.799 106.866C169.799 106.866 173.033 106.847 172.885 105.18L171.524 103.382Z" fill="#E4897B"/>
<path d="M165.338 104.826L167.002 108.139L169.799 106.866L167.981 102.765L165.338 104.826Z" fill="#E4897B"/>
<path d="M175.409 186.556L170.092 191.558L168.381 189.72L174.461 184.18L175.409 186.556Z" fill="#407BFF"/>
<path opacity="0.6" d="M175.409 186.556L170.092 191.558L168.381 189.72L174.461 184.18L175.409 186.556Z" fill="white"/>
<path d="M169.514 191.58H162.471L162.08 189.106L169.853 189.493L169.514 191.58Z" fill="#407BFF"/>
<path opacity="0.6" d="M169.514 191.58H162.471L162.08 189.106L169.853 189.493L169.514 191.58Z" fill="white"/>
<path d="M173.151 75.1375C176.501 75.6271 179.952 87.2935 179.952 87.2935L172.743 91.2876C172.743 91.2876 169.821 85.7388 168.428 81.6185C166.969 77.3013 169.558 74.6124 173.151 75.1375Z" fill="#407BFF"/>
<path d="M173.151 75.1375C176.501 75.6271 179.952 87.2935 179.952 87.2935L172.743 91.2876C172.743 91.2876 169.821 85.7388 168.428 81.6185C166.969 77.3013 169.558 74.6124 173.151 75.1375Z" fill="#282E32"/>
<path d="M161.068 76.4902L159.631 78.0214L160.335 79.4974L161.48 79.5526L162.46 78.1414L161.068 76.4902Z" fill="#025ACE"/>
<path d="M161.068 76.4899C161.945 77.7734 161.994 79.4208 161.994 79.4208C161.994 79.4208 167.981 77.3088 167.701 74.2142C167.701 74.2142 166.852 73.7097 166.312 73.2998C166.312 73.2998 166.108 75.2505 161.068 76.4899Z" fill="#407BFF"/>
<path d="M161.068 76.4899C161.945 77.7734 161.994 79.4208 161.994 79.4208C161.994 79.4208 167.981 77.3088 167.701 74.2142C167.701 74.2142 166.852 73.7097 166.312 73.2998C166.312 73.2998 166.108 75.2505 161.068 76.4899Z" fill="#025ACE"/>
<path d="M161.068 76.4902C160.191 77.7737 159.9 79.2353 159.9 79.2353C159.9 79.2353 157.188 77.3998 158.002 74.3407C158.002 74.3407 158.768 74.0201 159.535 73.8535C159.535 73.8535 159.179 75.8282 161.068 76.4902Z" fill="#407BFF"/>
<path d="M161.068 76.4902C160.191 77.7737 159.9 79.2353 159.9 79.2353C159.9 79.2353 157.188 77.3998 158.002 74.3407C158.002 74.3407 158.768 74.0201 159.535 73.8535C159.535 73.8535 159.179 75.8282 161.068 76.4902Z" fill="#025ACE"/>
</g>
<defs>
<clipPath id="clip0_478_12761">
<rect width="240" height="240" fill="white"/>
</clipPath>
</defs>
</svg>
